<svg width="30" height="30" viewBox="0 0 30 30" fill="none" xmlns="http://www.w3.org/2000/svg">
<path d="M25.3793 16.3181L15.4203 9.27977C15.1937 9.11942 14.9254 9.02277 14.6452 9.00054C14.365 8.97832 14.084 9.03139 13.8332 9.15387C13.5824 9.27635 13.3718 9.46343 13.2247 9.69434C13.0776 9.92525 12.9998 10.1909 13 10.4619L13 26.0001C13 26.5524 13.4451 27.0001 13.9974 27.0001C16.7237 27.0001 21.7578 27.0001 25.0013 27.0001C25.5536 27.0001 26 26.5524 26 26.0001V17.5002C25.9999 17.2701 25.9437 17.0432 25.8359 16.8378C25.7281 16.6325 25.5717 16.4544 25.3793 16.3181Z" fill="#8FB8E2"/>
<path d="M5.00018 3.00002C4.4479 3.00003 4 3.44774 4 4.00002L4 25.9999C4 26.5522 4.44514 26.9999 4.99742 26.9999C7.7237 26.9999 12.7578 26.9999 16.0013 26.9999C16.5536 26.9999 17 26.5535 17 26.0012C17 21.1771 16.9996 12.9252 17 7.02232C17 6.69453 16.8393 6.38846 16.5698 6.20187C15.3163 5.33393 14.1875 4.55835 12.2613 3.18631C12.0917 3.06548 11.888 3.00002 11.6797 3.00002C8.83167 3 7.06115 2.99999 5.00018 3.00002Z" fill="#0055BA"/>
<path d="M11.8551 19.7521L9.55798 18.068C9.50573 18.0296 9.44388 18.0065 9.37929 18.0012C9.3147 17.9959 9.2499 18.0086 9.1921 18.0379C9.13429 18.0672 9.08575 18.112 9.05186 18.1672C9.01797 18.2224 9.00007 18.286 9.00013 18.3508L9 27C9.97607 27 10.4761 27 11.9985 27L11.9986 20.035C11.9986 19.9798 11.9856 19.9255 11.9606 19.8764C11.9357 19.8272 11.8996 19.7847 11.8551 19.7521Z" fill="white"/>
</svg>
