<svg width="30" height="30" viewBox="0 0 30 30" fill="none" xmlns="http://www.w3.org/2000/svg">
<path d="M5.58018 7.81456C4.92221 7.33207 4.00006 7.80447 4.00022 8.62039C4.00127 14.0794 4.00596 19.5384 4.0019 24.9974C4.00108 26.1029 4.89684 26.9997 6.00232 26.9992C7.41843 26.9986 8.84837 26.998 10.0707 26.9998H19.9506C20.0993 26.9998 20.2465 26.9706 20.3839 26.9138C20.5212 26.8569 20.646 26.7735 20.7512 26.6684C20.8563 26.5633 20.9397 26.4385 20.9965 26.3011C21.0534 26.1638 21.0826 26.0165 21.0825 25.8679V19.9998C19.1761 18.0936 11.4724 12.1353 5.58018 7.81456Z" fill="#0055BA"/>
<path d="M8.938 27.0002C15.2902 27.0002 18.3559 27.0002 24.019 27.0002C25.1235 27.0002 26.0205 26.1048 26.0205 25.0002L26.0205 7.74875C26.0202 7.57104 25.9782 7.39589 25.898 7.23732C25.8178 7.07876 25.7015 6.94121 25.5585 6.83571L20.6263 3.21891C20.4317 3.07702 20.1972 3.00039 19.9564 3.00005L10.0788 3.00004C9.9301 2.99996 9.78287 3.02918 9.6455 3.08604C9.50813 3.14289 9.38332 3.22627 9.2782 3.33139C9.17307 3.43651 9.0897 3.56132 9.03285 3.69869C8.976 3.83606 8.94677 3.98328 8.94686 4.13195C8.94375 11.7546 8.938 19.3776 8.938 27.0002Z" fill="#8FB8E2"/>
<path d="M12 20C12 19.4477 12.4477 19 13 19H16C16.5523 19 17 19.4477 17 20C17 20.5523 16.5523 21 16 21H13C12.4477 21 12 20.5523 12 20Z" fill="white"/>
<path d="M12 10C12 9.44772 12.4477 9 13 9H19C19.5523 9 20 9.44772 20 10C20 10.5523 19.5523 11 19 11H13C12.4477 11 12 10.5523 12 10Z" fill="white"/>
<path d="M12 15C12 14.4477 12.4477 14 13 14H21C21.5523 14 22 14.4477 22 15C22 15.5523 21.5523 16 21 16H13C12.4477 16 12 15.5523 12 15Z" fill="white"/>
</svg>
