<svg width="50" height="50" viewBox="0 0 50 50" fill="none" xmlns="http://www.w3.org/2000/svg">
<path d="M10 31.8264V19.2058C10 18.9191 10.1352 18.6495 10.3643 18.4794L25.5882 7.17751C26.1795 6.73856 27.0149 7.16389 27.0149 7.90387V20.5483C27.0149 20.8357 26.879 21.1059 26.649 21.2758L20.2985 25.9679L22.885 28.2015C23.2048 28.4777 23.6723 28.492 24.0082 28.2359L38.5641 17.1379C39.1539 16.6882 40 17.1121 40 17.8574V30.0104C40 30.3042 39.858 30.5797 39.6194 30.7486L23.9589 41.836C23.6445 42.0585 23.2242 42.0543 22.9144 41.8253L10.3659 32.554C10.1359 32.384 10 32.1138 10 31.8264Z" fill="#FA7D54"/>
</svg>
