<svg width="30" height="30" viewBox="0 0 30 30" fill="none" xmlns="http://www.w3.org/2000/svg">
<path d="M20.7509 7.85921C20.6458 7.75406 20.521 7.67065 20.3837 7.61375C20.2464 7.55685 20.0992 7.52757 19.9506 7.52759L5.1319 7.53212C4.98324 7.53203 4.83601 7.56125 4.69864 7.6181C4.56127 7.67495 4.43646 7.75833 4.33133 7.86345C4.22621 7.96857 4.14284 8.09339 4.08599 8.23076C4.02913 8.36812 3.99991 8.51535 4 8.66402V22.2446C4.00032 22.4223 4.04228 22.5975 4.12252 22.756C4.20276 22.9146 4.31904 23.0522 4.46204 23.1577L9.40086 26.7811C9.59542 26.923 9.82992 26.9996 10.0707 27H19.9506C20.0992 27.0001 20.2465 26.9708 20.3838 26.914C20.5212 26.8571 20.646 26.7738 20.7511 26.6686C20.8563 26.5635 20.9396 26.4387 20.9965 26.3013C21.0533 26.164 21.0826 26.0167 21.0825 25.8681V8.65956C21.0825 8.51091 21.0532 8.36371 20.9963 8.22638C20.9394 8.08905 20.856 7.96428 20.7509 7.85921Z" fill="#0055BA"/>
<path d="M25.6893 3.33163C25.5843 3.22648 25.4595 3.14307 25.3222 3.08616C25.1849 3.02926 25.0377 2.99998 24.8891 3H10.0704C9.92171 2.99992 9.77449 3.02914 9.63712 3.08599C9.49976 3.14285 9.37494 3.22622 9.26982 3.33134C9.16469 3.43647 9.08132 3.56128 9.02447 3.69865C8.96762 3.83601 8.93839 3.98324 8.93848 4.1319V16.8106C8.93879 16.9883 8.98075 17.1634 9.06099 17.322C9.14123 17.4806 9.25752 17.6181 9.40052 17.7236L14.3327 21.3404C14.5273 21.4823 14.7618 21.5589 15.0026 21.5593H24.8802C25.0289 21.5594 25.1761 21.5301 25.3135 21.4733C25.4509 21.4164 25.5757 21.3331 25.6808 21.2279C25.7859 21.1228 25.8693 20.998 25.9261 20.8606C25.983 20.7233 26.0122 20.576 26.0121 20.4274L26.021 4.1319C26.021 3.98326 25.9917 3.83607 25.9348 3.69876C25.8779 3.56144 25.7945 3.43668 25.6893 3.33163Z" fill="#8FB8E2"/>
<path d="M16.0708 8.49824L12.7954 6.09689C12.7209 6.04221 12.6327 6.00925 12.5406 6.00168C12.4485 5.99411 12.3561 6.01223 12.2737 6.05402C12.1913 6.09581 12.1221 6.15964 12.0738 6.23841C12.0254 6.31718 11.9999 6.4078 12 6.50021V7.90158C12 7.98015 12.0185 8.05762 12.0541 8.12769C12.0896 8.19776 12.1412 8.25847 12.2046 8.3049L15.48 10.7043C15.5545 10.7588 15.4413 10.229 15.5333 10.2365C15.6254 10.2441 15.7177 10.2261 15.8001 10.1845C15.8825 10.1426 15.9517 10.0788 16 10C16.0483 9.92124 16.2753 9.83069 16.2754 9.73828V8.90156C16.2754 8.82299 16.2568 8.74552 16.2213 8.67545C16.1857 8.60538 16.1342 8.54467 16.0708 8.49824Z" fill="white"/>
<path d="M16.0708 10.3025L12.7954 12.7039C12.7209 12.7586 12.6327 12.7915 12.5406 12.7991C12.4485 12.8067 12.3561 12.7886 12.2737 12.7468C12.1913 12.705 12.1221 12.6411 12.0738 12.5624C12.0254 12.4836 11.9999 12.393 12 12.3006V10.8992C12 10.8206 12.0185 10.7432 12.0541 10.6731C12.0896 10.603 12.1412 10.5423 12.2046 10.4959L15.48 8.09647C15.5545 8.04193 15.4413 8.77105 15.5333 8.76346C15.6254 8.75587 15.7177 8.77387 15.8001 8.81546C15.8825 8.85738 15.9517 8.92124 16 9C16.0483 9.07876 16.2753 9.40759 16.2754 9.5V9.89922C16.2754 9.97779 16.2568 10.0553 16.2213 10.1253C16.1857 10.1954 16.1342 10.2561 16.0708 10.3025Z" fill="white"/>
<path d="M13.6518 16.8118L8.93945 16.8119V16.8126C8.93977 16.9903 8.98174 17.1655 9.06198 17.324C9.14223 17.4826 9.25852 17.6201 9.40152 17.7256L14.3315 21.3402C14.526 21.4821 14.7605 21.5587 15.0013 21.5591H15.0101V18.17C15.0101 17.8098 14.867 17.4643 14.6123 17.2096C14.3575 16.9549 14.0121 16.8118 13.6518 16.8118Z" fill="#F2F6FC"/>
<path d="M18.9429 13H22.0571C22.3072 13 22.547 12.8946 22.7238 12.7071C22.9007 12.5196 23 12.2652 23 12C23 11.7348 22.9007 11.4804 22.7238 11.2929C22.547 11.1054 22.3072 11 22.0571 11H18.9429C18.6928 11 18.453 11.1054 18.2762 11.2929C18.0993 11.4804 18 11.7348 18 12C18 12.2652 18.0993 12.5196 18.2762 12.7071C18.453 12.8946 18.6928 13 18.9429 13Z" fill="white"/>
</svg>
