<svg width="83" height="13" viewBox="0 0 83 13" fill="none" xmlns="http://www.w3.org/2000/svg">
<path d="M40.3148 0.00199624C39.3719 -0.0135489 38.453 0.299922 37.7162 0.888507C36.9392 1.53147 36.4004 2.41659 36.1862 3.40209C36.0242 1.13536 34.9313 0.00199624 32.9075 0.00199624C31.9974 -0.0190701 31.1098 0.286881 30.406 0.864316C29.6835 1.4828 29.1879 2.32464 28.9978 3.25654V3.08644C29.0059 2.41919 28.9069 1.75497 28.7045 1.11912C28.6362 0.834537 28.5386 0.557824 28.413 0.293456H25.96V12.0721H29.0462V5.70816C29.0623 4.63956 29.3052 3.81379 29.7747 3.23086C30.0033 2.94466 30.2962 2.71635 30.6295 2.56443C30.9628 2.41252 31.3273 2.34128 31.6933 2.35648C32.3084 2.35623 32.7415 2.50605 32.9925 2.80595C33.2436 3.10587 33.3691 3.60376 33.3691 4.2996V12.0721H36.4535V5.71001C36.4696 4.64141 36.7084 3.81564 37.1699 3.23271C37.3993 2.9443 37.694 2.71459 38.0297 2.56255C38.3654 2.41051 38.7325 2.3405 39.1006 2.3583C39.7157 2.35804 40.1488 2.50788 40.3999 2.8078C40.6509 3.10769 40.7764 3.60556 40.7764 4.30142V12.0739H43.8608V4.15477C43.8618 2.77844 43.546 1.74223 42.9135 1.04614C42.2809 0.350044 41.4147 0.00199624 40.3148 0.00199624Z" fill="white"/>
<path d="M51.2488 0.00390759C49.5003 0.00292691 48.0796 0.540634 46.9868 1.61703C45.894 2.69348 45.3476 4.15473 45.3477 6.0008V6.04918C45.3489 8.12158 45.916 9.68805 47.0492 10.7486C48.2128 11.7735 49.7101 12.3391 51.2608 12.3394C52.8114 12.3397 54.309 11.7748 55.4731 10.7504C56.6065 9.69014 57.1732 8.1156 57.1732 6.02681V5.97843C57.1741 4.13258 56.6242 2.67537 55.5233 1.60679C54.4225 0.53819 52.9977 0.00389502 51.2488 0.00390759ZM54.0433 6.3887C54.043 9.01151 53.112 10.3229 51.2503 10.3229V10.3237C49.4035 10.3237 48.4807 9.01227 48.4819 6.38942V5.51501C48.4822 4.41416 48.729 3.5642 49.2225 2.96514C49.4679 2.6686 49.7788 2.43309 50.1306 2.27716C50.4825 2.12122 50.8658 2.04912 51.2503 2.06653C51.6366 2.0495 52.0216 2.12171 52.3754 2.27755C52.7292 2.43339 53.0424 2.66868 53.2906 2.96514C53.7924 3.56517 54.0433 4.41512 54.0433 5.51501V6.3887Z" fill="white"/>
<path d="M65.8992 0.00218615C64.9242 -0.0295189 63.9694 0.284484 63.2035 0.888697C62.4565 1.51076 61.9498 2.37385 61.7707 3.32931V3.08663C61.78 2.41945 61.6816 1.75514 61.4792 1.11931C61.4104 0.83466 61.3121 0.557947 61.1859 0.293646H58.7295V12.0722H61.8183V5.7102C61.8181 4.65773 62.0812 3.83599 62.6077 3.245C62.8633 2.95494 63.18 2.72504 63.5349 2.57177C63.8899 2.41851 64.2744 2.34567 64.6608 2.3585C65.9721 2.3585 66.6277 3.00621 66.6277 4.30162V12.0741H69.6879V4.15496C69.6884 2.77863 69.3565 1.74242 68.6922 1.04633C68.0279 0.350234 67.0969 0.00218615 65.8992 0.00218615Z" fill="white"/>
<path d="M81.3485 1.60679C80.2475 0.538188 78.8228 0.00389502 77.0744 0.00390759C75.3256 0.00292691 73.9048 0.540634 72.812 1.61703C71.7192 2.69348 71.1728 4.15473 71.1729 6.0008V6.04918C71.1729 8.12158 71.7395 9.68805 72.8729 10.7486C74.0371 11.7738 75.5352 12.3394 77.0865 12.3394C78.6378 12.3394 80.1359 11.7738 81.3002 10.7486C82.4335 9.68832 83.0002 8.11379 83.0002 6.025V5.97661C83.0002 4.13196 82.4496 2.67535 81.3485 1.60679ZM79.8674 6.3887C79.8671 9.01151 78.9361 10.3229 77.0744 10.3229V10.3237C75.2286 10.3237 74.3057 9.01227 74.3057 6.38942V5.51501C74.3064 4.41416 74.5534 3.5642 75.0466 2.96514C75.2919 2.66856 75.6028 2.43302 75.9547 2.27708C76.3066 2.12114 76.6899 2.04907 77.0744 2.06653C77.4606 2.04958 77.8455 2.12183 78.1993 2.27766C78.5531 2.4335 78.8662 2.66874 79.1143 2.96514C79.6163 3.56517 79.8674 4.41512 79.8674 5.51501L79.8674 6.3887Z" fill="white"/>
<path d="M15.4092 0.0840833C15.3453 0.0375135 15.2697 0.00955079 15.1909 0.00329521C15.1121 -0.00296037 15.0331 0.0127356 14.9626 0.0486429C14.8922 0.0845502 14.833 0.139266 14.7918 0.206725C14.7505 0.274183 14.7288 0.351748 14.7289 0.430822V4.98665L8.04474 0.0840833C7.98083 0.0375135 7.90528 0.00955079 7.82645 0.00329521C7.74763 -0.00296037 7.66861 0.0127356 7.59816 0.0486429C7.52771 0.0845502 7.46858 0.139266 7.42732 0.206725C7.38607 0.274183 7.3643 0.351748 7.36444 0.430822V4.98665L0.680303 0.0840833C0.616398 0.0375132 0.540844 0.00955047 0.462018 0.0032951C0.383192 -0.00296027 0.304173 0.0127361 0.233723 0.0486441C0.163272 0.0845521 0.104142 0.139269 0.0628876 0.206728C0.0216333 0.274187 -0.000133456 0.351753 6.15635e-07 0.430827V6.86807C0.00024676 6.93542 0.0163302 7.00178 0.0469519 7.06177C0.0775737 7.12177 0.121875 7.17372 0.176279 7.21343L7.05234 12.2568C7.11625 12.3034 7.1918 12.3313 7.27063 12.3376C7.34945 12.3438 7.42847 12.3281 7.49892 12.2922C7.56937 12.2563 7.6285 12.2016 7.66976 12.1342C7.71101 12.0667 7.73278 11.9891 7.73265 11.9101V7.35423L14.4168 12.2568C14.4807 12.3034 14.5562 12.3314 14.6351 12.3376C14.7139 12.3439 14.7929 12.3282 14.8633 12.2923C14.9338 12.2564 14.9929 12.2016 15.0341 12.1342C15.0753 12.0667 15.097 11.9891 15.0968 11.9101V7.354L21.7823 12.2568C21.8462 12.3034 21.9218 12.3314 22.0006 12.3376C22.0794 12.3439 22.1584 12.3282 22.2288 12.2923C22.2993 12.2564 22.3584 12.2016 22.3996 12.1342C22.4408 12.0667 22.4625 11.9891 22.4623 11.9101V5.47365C22.4621 5.40609 22.4459 5.33954 22.4152 5.27939C22.3844 5.21924 22.3399 5.16719 22.2853 5.12745L15.4092 0.0840833Z" fill="white"/>
</svg>
