<svg width="159" height="30" viewBox="0 0 159 30" fill="none" xmlns="http://www.w3.org/2000/svg">
<path d="M20.4048 12.7517C24.2653 9.59591 32.1494 -1.77596 19.8067 0.237241C14.4237 1.0534 6.53953 6.27685 4.9627 12.3165C4.1471 10.6841 3.22275 9.16063 2.24403 7.63712C0.721568 5.56951 -0.964009 7.20184 0.667195 9.26945C5.50265 15.1279 8.29056 22.4082 8.60572 30C8.98634 26.3545 8.38823 21.8928 6.92014 17.5399C7.627 17.7575 8.4426 17.8664 9.14946 17.8664C11.6506 22.0016 15.5112 25.5383 19.8067 27.1706C23.7759 28.7485 29.0501 27.8236 26.8752 21.4575C25.7334 17.9752 23.0691 14.9282 20.4048 12.7517ZM20.9485 1.70634C27.7996 0.944583 20.4591 9.48709 18.0667 11.065C15.8374 9.59591 13.01 8.29005 10.2913 8.67093C12.2487 6.11362 17.0336 2.19603 20.9485 1.70634ZM10.2369 10.5209C12.0856 10.3577 14.0974 11.3915 15.6743 12.4797C14.1518 13.2414 12.5206 13.6767 10.835 13.84C8.33385 13.84 7.79012 10.7385 10.2369 10.5209ZM19.6979 23.7972C16.4899 22.8722 13.445 20.2605 11.27 17.6487C13.0643 17.2679 14.8587 16.5605 16.4899 15.5811C17.088 15.3091 17.6861 14.8738 18.2298 14.4929C20.1329 16.234 22.1447 18.5737 22.9059 21.2398C23.6672 24.1236 21.601 24.3413 19.6979 23.7972Z" fill="#FFAF2C"/>
<path d="M46.6668 5.56937H37.3146C36.9884 5.56937 36.7165 5.84142 36.7165 6.16789H36.6621V20.8588C36.6621 21.1853 36.934 21.4573 37.2602 21.4573C37.5321 21.4573 37.804 21.1853 37.8583 20.8588V14.2207H45.7969C46.1231 14.2207 46.2862 13.9486 46.2862 13.6766C46.2862 13.3501 46.0687 13.1869 45.7969 13.1869H37.804V6.712H46.6668C46.9931 6.712 47.1562 6.43994 47.1562 6.16789C47.1562 6.00466 46.9931 5.78701 46.6668 5.56937ZM50.9623 4.80762H50.908C50.6361 4.80762 50.473 5.02526 50.473 5.29732V20.8044C50.473 21.1309 50.6905 21.3485 50.9623 21.3485C51.2886 21.3485 51.4517 21.0765 51.4517 20.8044V5.40614C51.4517 5.02526 51.2886 4.80762 50.9623 4.80762ZM64.5013 10.3575C64.5013 10.0311 64.2838 9.81342 64.012 9.81342C63.6857 9.81342 63.5226 10.0855 63.5226 10.3575V16.8324C63.5226 19.0089 61.837 20.75 59.7708 20.6956C57.5959 20.6956 56.3453 19.1721 56.3453 16.778V10.3575C56.3453 10.0311 56.1278 9.81342 55.856 9.81342C55.6385 9.81342 55.3666 10.0855 55.3666 10.3575V16.9412C55.3666 19.6618 56.9978 21.675 59.6621 21.675C61.2933 21.7294 62.8158 20.8044 63.577 19.2809V20.9677C63.577 21.2941 63.8489 21.4573 64.0664 21.4573C64.3926 21.4573 64.5557 21.1853 64.5557 20.9677H64.5013V10.3575ZM73.473 10.9016C73.6905 10.9016 73.9623 10.684 73.9623 10.4119C73.9623 10.1943 73.6905 9.92224 73.473 9.92224H70.0474V6.712C70.0474 6.43994 69.7756 6.16789 69.5581 6.16789H69.5037C69.2318 6.16789 69.0687 6.43994 69.0687 6.712V9.92224H67.8725C67.6006 9.92224 67.3831 10.0855 67.3831 10.3575C67.3831 10.6296 67.6006 10.9016 67.8725 10.9016H69.0687V18.4103C69.0687 20.5324 70.4281 21.5662 72.0049 21.5662C72.5486 21.5662 73.0924 21.4574 73.5817 21.2941C73.7448 21.1853 73.908 21.0221 73.908 20.8044C73.908 20.5324 73.6905 20.3691 73.473 20.3691C73.0924 20.478 72.6574 20.5324 72.2224 20.5324C70.9174 20.5324 70.0474 19.9338 70.0474 18.3015V10.9016H73.473ZM81.9009 10.9016C82.1727 10.9016 82.3902 10.684 82.3902 10.4119C82.3902 10.1943 82.1727 9.92224 81.9009 9.92224H78.4753V6.712C78.4753 6.43994 78.2578 6.16789 77.986 6.16789H77.9316C77.6597 6.16789 77.4966 6.43994 77.4966 6.712V9.92224H76.3004C76.0829 9.92224 75.811 10.0855 75.811 10.3575C75.811 10.6296 76.0829 10.9016 76.3004 10.9016H77.4966V18.4103C77.4966 20.5324 78.8559 21.5662 80.4871 21.5662C80.9765 21.5662 81.5202 21.4574 82.0096 21.2941C82.2271 21.1853 82.3358 21.0221 82.3358 20.8044C82.3358 20.5324 82.1727 20.3691 81.9009 20.3691C81.5202 20.478 81.0853 20.5324 80.6503 20.5324C79.3453 20.5324 78.4753 19.9338 78.4753 18.3015V10.9016H81.9009ZM89.35 9.59578C86.4682 9.59578 84.2933 12.2075 84.2933 15.6354V15.6898C84.2933 19.3353 86.6857 21.7294 89.5675 21.7294C91.09 21.7838 92.6668 21.1309 93.6999 19.8794C93.863 19.7706 93.9174 19.6074 93.9174 19.4986C93.9174 19.2265 93.6455 18.9544 93.428 18.9544L93.1018 19.0633C92.6704 19.5665 92.1371 19.9723 91.5372 20.2537C90.9372 20.5351 90.2844 20.6858 89.6219 20.6956C87.5013 20.6956 85.5983 19.0089 85.3808 16.1795H93.863C94.0805 16.1795 94.3524 15.9074 94.3524 15.6354C94.3524 12.2075 92.3949 9.59578 89.35 9.59578ZM85.3264 15.0913C85.4895 12.5884 87.1751 10.6296 89.2957 10.6296C91.7425 10.6296 93.0474 12.7516 93.1562 15.0913H85.3264ZM102.672 9.75901C100.714 9.92224 99.0829 11.2825 98.376 13.2413V10.4119C98.376 10.1943 98.1042 9.92224 97.8867 9.92224C97.5604 9.92224 97.3973 10.0855 97.3429 10.4119V21.0765C97.3429 21.3485 97.5604 21.6206 97.8323 21.6206C98.1042 21.6206 98.3217 21.4029 98.376 21.0765V16.8324C98.376 13.0781 100.388 11.2825 102.672 11.0105H102.726C103.052 11.0105 103.215 10.684 103.215 10.4119C103.215 10.0311 102.998 9.75901 102.672 9.75901Z" fill="black"/>
<path d="M120.996 9.16051C120.289 9.16051 119.636 9.70462 119.473 10.4664L117.625 16.6692L115.83 10.4664C115.667 9.70462 114.96 9.1061 114.145 9.1061H113.982C113.166 9.1061 112.459 9.5958 112.296 10.4664L110.502 16.5604L108.762 10.412C108.544 9.70462 107.946 9.1061 107.185 9.1061H107.131C106.315 9.1061 105.717 9.81344 105.717 10.684L105.826 11.5002L108.599 20.0427C108.816 20.9133 109.523 21.5118 110.393 21.5662H110.502C111.317 21.5662 111.97 20.9677 112.242 20.0971L114.036 14.0031L115.83 20.0971C116.048 20.9677 116.755 21.5662 117.57 21.5662H117.733C118.603 21.5662 119.31 20.9677 119.528 20.0427L122.301 11.3914L122.464 10.7384V10.684C122.464 9.81344 121.811 9.16051 120.996 9.16051ZM128.989 9.16051C127.738 9.1061 126.542 9.37816 125.346 9.75903C124.856 9.97668 124.584 10.4664 124.584 11.0649C124.584 11.8811 125.183 12.4796 125.944 12.4252C126.053 12.4252 126.216 12.4252 126.379 12.3163C127.086 12.0987 127.847 11.9899 128.608 11.9899C130.239 11.9899 131.055 12.7516 131.055 14.2207V14.384C130.185 14.0575 129.206 13.9487 128.282 13.9487C125.618 13.9487 123.769 15.2001 123.769 17.8663C123.769 20.2059 125.563 21.5662 127.629 21.5662C128.934 21.6206 130.185 21.0221 131.055 20.0427C131.109 20.9133 131.762 21.5118 132.577 21.5118C133.447 21.5118 134.154 20.75 134.154 19.825V14.384C134.209 13.0237 133.774 11.609 132.904 10.5752C131.979 9.70462 130.729 9.16051 128.989 9.16051ZM131.109 17.0501C131.109 18.356 130.022 19.1721 128.554 19.1177C127.521 19.1177 126.814 18.5736 126.814 17.6486V17.5942C126.814 16.5604 127.684 15.9075 129.043 15.9075C129.696 15.9075 130.457 16.1251 131.109 16.3972V17.0501ZM145.192 9.1061C144.54 9.1061 143.887 9.54139 143.724 10.3031L141.223 17.3221L138.83 10.3576C138.613 9.5958 138.015 9.1061 137.253 9.1061C136.438 9.1061 135.785 9.75903 135.677 10.684C135.677 10.9561 135.785 11.2281 135.894 11.5002L139.374 20.0427C139.592 20.9133 140.298 21.5118 141.168 21.5662H141.386C142.147 21.5118 142.908 20.9677 143.235 20.0971L146.606 11.5546L146.769 10.7384V10.684C146.769 9.81344 146.116 9.1061 145.192 9.1061ZM153.62 9.05169C150.303 9.05169 148.019 11.8811 148.019 15.3089V15.8531C148.128 19.1721 150.847 21.7294 153.946 21.5662C155.36 21.5662 156.719 21.0765 157.861 20.0971C158.187 19.825 158.296 19.4986 158.296 19.1177V19.0633C158.296 18.3015 157.752 17.703 157.045 17.703C156.774 17.703 156.502 17.7574 156.284 17.9751C155.65 18.5212 154.837 18.8121 154.001 18.7912C152.641 18.8457 151.445 17.8663 151.282 16.3972H157.644C158.459 16.3428 159.112 15.581 159.057 14.7104V14.4384C159.057 11.5002 156.61 8.94287 153.62 9.05169ZM151.173 14.384C151.445 12.806 152.315 11.8266 153.62 11.8266C154.925 11.8266 155.795 12.8605 155.958 14.384H151.173Z" fill="black"/>
</svg>
