<svg width="63" height="67" viewBox="0 0 63 67" fill="none" xmlns="http://www.w3.org/2000/svg">
<g clip-path="url(#clip0)">
<path d="M2.49121 14.8801C2.49121 14.8801 2.55331 39.5873 2.49481 48.2754C2.47971 50.5106 7.64881 53.01 7.64881 53.01L54.7682 45.715L54.6634 8.75963L47.2416 6.28223L3.08861 13.5905L2.49121 14.8801Z" fill="white"/>
<path d="M20.3035 10.4742C20.3035 10.4742 18.6381 -0.0379511 34.4168 0.625869C34.4168 0.625869 39.0636 1.31177 39.2679 9.03694C39.2679 9.03694 36.9189 10.8897 35.5913 9.40884L34.472 5.15694L32.5796 4.51404C32.5796 4.51404 24.6934 4.60364 24.5764 8.66584C24.6081 9.84714 24.3579 11.019 23.8466 12.0844C23.8466 12.0844 21.254 12.9183 20.3035 10.4742Z" fill="white"/>
<path d="M52.9907 44.0673C52.995 41.4944 52.9982 38.9215 53.0004 36.3485C53.0019 34.1752 53.0036 32.0019 52.9925 29.8286C52.9919 29.7118 53.1636 29.386 52.7694 29.5082C53.1143 29.2073 53.4305 28.875 53.7141 28.5156C53.6966 28.4692 53.6943 28.4305 53.6772 28.4222C52.9048 28.0462 52.9756 27.3885 53.0516 26.691C53.09 26.1465 53.0952 25.6003 53.0674 25.0552C53.0646 24.8461 53.0042 24.6375 53.0037 24.4286C52.9986 22.3218 53.0107 20.2152 52.9973 18.1086C52.9875 16.5666 52.9505 15.0246 52.9188 13.4827C52.9053 12.836 52.7815 12.758 52.1487 12.718C50.6486 12.6825 49.1492 12.8152 47.6785 13.1133C46.4867 13.3046 45.2846 13.4325 44.0901 13.6087C42.9361 13.7789 41.7873 13.9838 40.6338 14.1572C39.3102 14.356 37.9827 14.5278 36.6595 14.728C35.1562 14.9555 33.6571 15.2095 32.1539 15.437C30.8307 15.6373 29.503 15.8077 28.18 16.0082C26.871 16.2065 25.5662 16.4321 24.2578 16.634C23.1428 16.8061 22.0245 16.9568 20.909 17.1257C19.7296 17.3043 16.2509 17.7425 15.0698 17.9086C14.3015 18.0166 13.5281 18.0955 12.7545 18.1552C12.0812 18.2071 11.4038 18.2454 10.7295 18.2305C10.1897 18.2103 9.65215 18.15 9.12125 18.0499C8.39675 17.9244 8.04805 17.3159 7.65535 16.7952C6.99195 15.7863 6.17605 14.8863 5.23675 14.1275C4.71655 13.8149 4.17275 13.5433 3.61035 13.3151C9.03345 12.286 20.6765 10.4985 20.6553 10.8001C20.5914 11.7065 24.1883 11.9717 24.8381 11.7917C24.8381 11.6235 24.9485 11.4038 24.8382 11.2582C23.1573 9.03675 31.8462 8.84255 34.7106 8.38735C34.7106 8.57685 34.9272 8.99095 34.9021 9.14055C34.8386 9.51915 35.0583 9.55395 35.3745 9.62565C37.3193 10.1771 37.3162 6.59275 36.9021 5.62995C36.391 4.44155 35.3785 2.68629 34.1516 2.40785C33.1818 2.20079 32.1801 2.19045 31.2062 2.37745C30.1926 2.60273 29.1361 2.53855 28.1572 2.19225C27.9622 2.11489 27.7474 2.08594 27.5555 2.00293C27.4382 1.9342 27.3303 1.85081 27.234 1.75478C27.3327 1.64137 27.4132 1.45651 27.5331 1.42575C28.5703 1.15975 29.6087 0.891611 30.6589 0.685981C31.3087 0.572111 31.9656 0.503371 32.6249 0.480281C35.2526 0.337371 38.2584 3.48485 38.6362 6.11185C38.6796 6.41375 38.7255 6.71525 38.777 7.06285C39.542 6.94285 38.8588 7.74575 39.6034 7.62915C42.5642 7.16575 45.5196 6.66415 48.4883 6.25845C49.6491 6.00195 50.8592 6.08775 51.9721 6.50555C52.4633 6.73295 52.9212 7.02665 53.3329 7.37825C54.2763 8.18325 55.0601 9.15845 55.6435 10.2529C55.9056 10.7462 56.0496 11.2936 56.0644 11.852C56.1007 16.4648 56.1055 21.0778 56.0793 25.691C56.0922 26.6362 55.7419 27.5506 55.1006 28.2454C54.944 28.4328 54.8565 28.6683 54.8527 28.9124C54.8387 33.5523 54.8355 38.1923 54.8427 42.8323C54.8428 43.0538 54.8404 43.2747 54.8246 43.4942L52.9907 44.0673Z" fill="#FFB7A4"/>
<path d="M8.77337 53.4682C8.56007 53.4682 8.30617 53.4518 8.02097 53.4307C7.88197 53.4205 7.75617 53.4104 7.66237 53.408C7.60417 53.4063 7.54677 53.3942 7.49287 53.3721L6.70927 53.0486C6.67307 53.0337 6.63877 53.0145 6.60697 52.9916L4.74987 51.6291C4.46397 51.4158 4.12257 51.1674 3.78357 50.9197C3.46787 50.69 3.15457 50.4611 2.89057 50.265C2.85377 50.2376 2.82107 50.205 2.79367 50.1681C2.37937 49.7398 2.12217 49.1839 2.06397 48.5908L2.02257 48.3611C2.01727 48.3331 2.01457 48.3045 2.01477 48.276C2.00847 46.5166 2.01087 38.8971 2.01317 31.7158L2.01627 22.8158C2.01627 20.4127 2.01627 18.6385 2.01477 18.0236C2.01457 17.9938 2.01717 17.9639 2.02257 17.9346C2.15587 17.2079 2.47967 16.5296 2.96087 15.969C3.10567 15.7902 3.28807 15.6453 3.49497 15.5446C3.70187 15.4439 3.92837 15.3898 4.15847 15.3861H4.16477C4.38477 15.3863 4.60217 15.4332 4.80277 15.5237C5.00327 15.6142 5.18227 15.7463 5.32797 15.9111C5.84977 16.5335 6.29877 17.2134 6.66627 17.9377C6.84107 18.265 6.93707 18.6285 6.94677 18.9994C6.96477 19.6978 6.94207 20.8143 6.94207 20.8143V50.9713L7.12407 51.7432L7.41007 52.1463L7.92957 52.4236C7.95287 52.4359 7.97507 52.45 7.99597 52.4658L8.09127 52.4729C8.39457 52.5065 8.70017 52.513 9.00457 52.4924L52.3062 45.7174C52.4039 45.6791 52.55 45.6275 52.6984 45.5752C52.8359 45.5268 52.9757 45.4783 53.0687 45.4424C53.15 45.3713 53.2547 45.2838 53.3617 45.1947C53.4851 45.0916 53.6125 44.9862 53.7047 44.9041L54.0539 44.2682L54.189 43.3971L54.1836 28.5049C54.1837 28.3771 54.2345 28.2546 54.325 28.1643C54.6353 27.854 54.9155 27.515 55.1617 27.1518C55.1748 27.0698 55.1928 26.9886 55.2156 26.9088C55.2453 26.7955 55.2734 26.6924 55.2929 26.6369C55.3304 26.5041 55.3968 26.0908 55.4273 25.8682L55.4773 25.2479C55.5459 24.6669 55.5653 24.0813 55.5351 23.4971C55.5281 23.1588 55.5219 22.8362 55.5305 22.5666C55.5258 19.976 55.5258 17.0362 55.5258 14.4307C55.5164 14.0862 55.5219 13.7182 55.5274 13.3463C55.5713 12.5066 55.5231 11.6646 55.3836 10.8354C55.0776 10.1648 54.6821 9.53874 54.2078 8.97444C53.602 8.15014 52.8473 7.44644 51.9828 6.89944C51.7279 6.78314 51.4634 6.68924 51.1922 6.61904C51.0902 6.61314 50.989 6.59774 50.8898 6.57294C50.793 6.55284 50.6952 6.53764 50.5969 6.52754C50.5606 6.52614 50.5247 6.52034 50.4898 6.51044C50.1091 6.46144 49.7236 6.46194 49.343 6.51204C49.1344 6.52764 48.9406 6.54244 48.7859 6.54404C46.6179 6.84244 44.8258 7.13544 42.9281 7.44634C41.7828 7.63304 40.5977 7.82764 39.2523 8.03384C39.1901 8.04344 39.1265 8.04054 39.0653 8.02554C39.0041 8.01054 38.9465 7.98364 38.8957 7.94634C38.845 7.90904 38.802 7.86214 38.7694 7.80824C38.7367 7.75434 38.715 7.69454 38.7055 7.63224C38.6959 7.57004 38.6987 7.50644 38.7138 7.44524C38.7288 7.38414 38.7557 7.32644 38.793 7.27564C38.8303 7.22494 38.8772 7.18194 38.9311 7.14934C38.985 7.11664 39.0448 7.09494 39.107 7.08544C40.4484 6.87914 41.6312 6.68544 42.7734 6.49864C44.6773 6.18694 46.4758 5.89244 48.7148 5.58854C48.9117 5.58224 49.0844 5.56904 49.2695 5.55494C49.7437 5.49314 50.2244 5.49914 50.6969 5.57294C50.7953 5.58224 50.9289 5.60414 51.0594 5.62834C51.1602 5.64634 51.2586 5.66514 51.3242 5.66974C51.7104 5.75694 52.0856 5.88694 52.443 6.05724C53.4245 6.66884 54.2818 7.46034 54.9695 8.39004C55.5189 9.04694 55.9686 9.78104 56.3039 10.5689C56.4734 11.4889 56.5347 12.4254 56.4867 13.3596C56.4821 13.7189 56.4766 14.0744 56.4852 14.4189C56.4852 17.0361 56.4852 19.9744 56.4899 22.5815C56.4813 22.8525 56.4883 23.158 56.4946 23.4775C56.5281 24.1087 56.5059 24.7417 56.4282 25.3689L56.3813 25.9721C56.3405 26.2954 56.2818 26.6162 56.2055 26.933C56.1821 27.0018 56.1649 27.0729 56.1446 27.1502C56.1091 27.3158 56.0576 27.4775 55.9907 27.633C55.7398 28.0128 55.4562 28.3699 55.143 28.7002V43.4705L54.993 44.4736C54.9869 44.5149 54.975 44.5552 54.9578 44.5932L54.8492 44.84L54.4969 45.4518C54.473 45.4922 54.4436 45.529 54.4094 45.5611C54.3078 45.6549 54.1398 45.7963 53.9766 45.9315C53.8492 46.0377 53.7258 46.1408 53.6484 46.2111C53.6101 46.2462 53.5663 46.2747 53.5188 46.2955C53.425 46.3361 53.2195 46.4096 53.0171 46.4807C52.857 46.5369 52.6984 46.5924 52.6188 46.626C52.5831 46.6407 52.5459 46.6511 52.5078 46.6572L9.17337 53.4369C9.04137 53.4604 8.90737 53.4709 8.77337 53.4682ZM3.51947 49.5362C3.76867 49.7213 4.05847 49.9323 4.34917 50.144C4.69137 50.3932 5.03587 50.6448 5.32097 50.8573L6.05617 51.3963L5.99527 51.1362C5.98677 51.1003 5.98257 51.0636 5.98277 51.0268V20.8041C5.98277 20.7916 6.00457 19.7049 5.98737 19.0244C5.98107 18.8028 5.92357 18.5857 5.81937 18.39C5.48687 17.732 5.08087 17.1138 4.60927 16.5471C4.55357 16.4841 4.48507 16.4337 4.40847 16.3991C4.33187 16.3645 4.24877 16.3465 4.16477 16.3463C4.08227 16.3408 3.99967 16.3558 3.92437 16.39C3.84917 16.4242 3.78357 16.4766 3.73347 16.5424C3.35097 16.9752 3.08937 17.5012 2.97487 18.0674C2.97567 18.7228 2.97567 20.469 2.97567 22.8158L2.97337 31.7158C2.97097 38.84 2.96867 46.3947 2.97417 48.2306L3.00857 48.4213C3.04267 48.8413 3.22357 49.236 3.51947 49.5361V49.5362Z" fill="#FC7C54"/>
<path d="M24.7685 10.3323C24.6478 10.3321 24.5316 10.2866 24.443 10.2046C24.3544 10.1226 24.3 10.0103 24.2905 9.88994C24.2811 9.76964 24.3173 9.65014 24.392 9.55534C24.4667 9.46054 24.5743 9.39734 24.6935 9.37844L34.9326 7.74564C34.995 7.73534 35.0588 7.73754 35.1203 7.75204C35.1818 7.76654 35.2399 7.79314 35.2912 7.83004C35.3424 7.86704 35.3859 7.91384 35.419 7.96764C35.4522 8.02144 35.4744 8.08134 35.4844 8.14374C35.4943 8.20614 35.4919 8.26994 35.4772 8.33144C35.4624 8.39294 35.4357 8.45084 35.3985 8.50204C35.3613 8.55314 35.3144 8.59644 35.2605 8.62934C35.2065 8.66234 35.1466 8.68424 35.0841 8.69404L24.8451 10.3268C24.8197 10.3305 24.7941 10.3324 24.7685 10.3323Z" fill="#FC7C54"/>
<path d="M34.6539 32.4608C34.533 32.4606 34.4166 32.4149 34.3281 32.3326C34.2395 32.2503 34.1853 32.1377 34.1762 32.0172C34.1671 31.8967 34.2039 31.7771 34.2791 31.6825C34.3543 31.5879 34.4625 31.5252 34.582 31.507C40.2445 30.6351 47.5968 29.5819 52.8773 28.8858C53.3916 28.7049 53.8811 28.4601 54.3343 28.157C54.376 28.1111 54.4264 28.074 54.4826 28.0479C54.5388 28.0218 54.5996 28.0072 54.6616 28.0051C54.7235 28.003 54.7852 28.0133 54.8431 28.0355C54.9009 28.0577 54.9537 28.0913 54.9984 28.1343C55.0914 28.2242 55.1457 28.3467 55.1498 28.476C55.1539 28.6052 55.1074 28.7309 55.0203 28.8265C54.4156 29.283 53.7328 29.6255 53.0054 29.8373C47.7289 30.5326 40.3843 31.585 34.7273 32.4553C34.703 32.4591 34.6784 32.4609 34.6539 32.4608Z" fill="#FC7C54"/>
<path d="M2.49407 18.5021C2.37727 18.502 2.26457 18.4593 2.17697 18.3821C2.08947 18.3049 2.03297 18.1984 2.01827 18.0826L1.71989 15.7208C1.64315 15.1169 1.77176 14.5047 2.08507 13.9826C2.39837 13.4606 2.87807 13.0591 3.44717 12.8427C3.77177 12.7085 4.10647 12.5999 4.44797 12.5177C7.24877 12.0201 10.4207 11.5591 13.4886 11.113C15.7667 10.7818 18.1214 10.4396 20.2277 10.0951C20.3533 10.0746 20.4818 10.1048 20.5851 10.179C20.6884 10.2533 20.758 10.3656 20.7785 10.4912C20.799 10.6167 20.7688 10.7453 20.6945 10.8486C20.6202 10.9519 20.5079 11.0214 20.3824 11.0419C18.2683 11.388 15.9089 11.731 13.6269 12.063C10.566 12.5076 7.40187 12.9677 4.62137 13.4622C4.33807 13.5338 4.06047 13.6265 3.79097 13.7396C3.42267 13.8792 3.11217 14.1386 2.90937 14.4762C2.70647 14.8138 2.62327 15.2098 2.67297 15.6005L2.97137 17.9622C2.98717 18.0886 2.95227 18.2161 2.87417 18.3167C2.79617 18.4174 2.68127 18.4829 2.55497 18.499C2.53477 18.5012 2.51437 18.5022 2.49407 18.5021Z" fill="#FC7C54"/>
<path d="M30.1375 37.7707C30.0657 37.7692 29.994 37.764 29.9227 37.7551C29.8073 37.7675 29.6907 37.7458 29.5875 37.6926C29.3922 37.5806 29.2103 37.4467 29.0454 37.2934C28.3602 36.7129 28.318 36.6278 28.2891 36.4504C28.2294 36.1322 28.2144 35.8072 28.2446 35.4848L28.4336 29.5411C28.4345 29.5109 28.4382 29.4808 28.4446 29.4512L28.5227 29.1005C28.5349 29.0474 28.5557 28.9967 28.5844 28.9505L28.7828 28.6341C28.8108 28.5898 28.8456 28.5502 28.886 28.5169L29.1594 28.2934C29.1937 28.2657 29.2306 28.2414 29.2695 28.2208C29.5809 28.0946 29.9092 28.0148 30.2438 27.9841C30.4055 27.9661 30.7727 27.9044 31.2055 27.8317C32.0278 27.6663 32.8605 27.5575 33.6977 27.5059C33.7455 27.5096 33.7926 27.5202 33.8375 27.5372C33.925 27.5716 34.1453 27.688 34.2266 27.7325C34.2567 27.7496 34.285 27.7697 34.311 27.7927L34.6945 28.1325C34.8429 28.2611 34.9679 28.4144 35.0641 28.5856C35.2188 28.7755 35.2469 28.9903 35.1563 31.3059C35.143 31.6356 35.132 31.888 35.1344 31.9591L35.0164 35.7216C35.0155 35.752 35.0119 35.7824 35.0055 35.8122L34.9274 36.1622C34.9158 36.2132 34.896 36.262 34.8688 36.3067L34.6672 36.6294C34.6344 36.681 34.5923 36.726 34.5429 36.7622L34.2679 36.963C34.2324 36.9894 34.1932 37.0105 34.1515 37.0255L33.8226 37.1474C33.7941 37.1583 33.7645 37.1661 33.7344 37.1708L33.139 37.2653C32.3234 37.3934 30.8219 37.6302 30.3734 37.7341C30.2974 37.7596 30.2177 37.772 30.1375 37.7707ZM29.9547 36.7926C29.979 36.795 30.004 36.7981 30.0282 36.8004C30.0563 36.8036 30.0852 36.8075 30.111 36.8098L30.1118 36.809C30.5212 36.7082 31.7587 36.5106 32.9907 36.3168L33.5345 36.2309L33.7563 36.1488L33.9024 36.0418L34.0079 35.8731L34.0587 35.6473L34.1751 31.9668C34.1719 31.9473 34.1813 31.6551 34.1969 31.2684C34.2188 30.7098 34.268 29.4528 34.2407 29.0934L34.2384 29.0903C34.1375 29.0316 34.0629 28.9366 34.0298 28.8247L33.7149 28.5466C33.6688 28.5216 33.6071 28.4887 33.5555 28.463C33.179 28.4755 32.0118 28.6708 31.3634 28.7786C30.9087 28.8552 30.5227 28.9192 30.3438 28.9395C30.1357 28.9597 29.9304 29.0021 29.7313 29.0661L29.5548 29.2106L29.4423 29.3903L29.3915 29.6161L29.204 35.5255C29.1891 35.7352 29.1906 35.9457 29.2087 36.1552C29.3126 36.2544 29.518 36.4364 29.6915 36.5841C29.7742 36.6597 29.8621 36.7294 29.9547 36.7926Z" fill="#FC7C54"/>
<path d="M7.64868 53.49C7.52248 53.49 7.40138 53.4402 7.31158 53.3515C7.22178 53.2628 7.17058 53.1423 7.16898 53.0161C7.16748 52.8899 7.21568 52.7681 7.30328 52.6773C7.39088 52.5864 7.51078 52.5337 7.63698 52.5306L8.56748 52.508L52.3807 45.5892L53.1729 45.272L53.6705 44.8431L54.0791 44.1978L54.2049 43.7931L54.2932 43.3001L54.3346 43.308C54.2823 42.6595 54.283 41.0283 54.2854 36.6908C54.2877 32.8924 54.2901 28.5861 54.2854 28.4072L54.7651 28.3892L55.0901 28.0361C55.2502 28.1837 55.2502 28.1837 55.2455 36.6915C55.2439 39.8751 55.2416 43.1658 55.2447 43.3673C55.2464 43.4035 55.2438 43.4396 55.2369 43.4751L55.1354 44.0228L54.9776 44.5431C54.965 44.5836 54.9471 44.6222 54.9244 44.658L54.4432 45.4173C54.4181 45.4573 54.387 45.4931 54.351 45.5236L53.7393 46.0509C53.6993 46.0859 53.6536 46.1136 53.6041 46.133L52.6869 46.5002C52.6538 46.5137 52.6192 46.5234 52.5838 46.5291L8.65408 53.4619L7.66038 53.49H7.64868Z" fill="#FC7C54"/>
<path d="M9.95989 36.4923C9.46189 36.493 8.96709 36.4136 8.49429 36.2572C7.68909 35.9182 7.03359 35.2994 6.64899 34.515L6.52319 34.3126C6.27439 33.9718 6.09299 33.5865 5.98879 33.1775C5.97939 33.1152 5.98229 33.0517 5.99739 32.9905C6.01249 32.9294 6.03949 32.8718 6.07689 32.8211C6.11429 32.7704 6.16119 32.7275 6.21519 32.695C6.26909 32.6624 6.32889 32.6408 6.39119 32.6314C6.45339 32.6219 6.51699 32.6249 6.57809 32.64C6.63929 32.6551 6.69679 32.6821 6.74749 32.7195C6.79819 32.7568 6.84109 32.8038 6.87369 32.8577C6.90619 32.9116 6.92779 32.9714 6.93729 33.0337C7.03249 33.3065 7.16609 33.5643 7.33409 33.7993L7.47399 34.0243C7.74729 34.6054 8.21479 35.0729 8.79589 35.3462C9.47109 35.564 10.193 35.5926 10.8834 35.429C14.1029 34.8587 17.7599 34.3157 21.2959 33.7899C23.774 33.4219 26.2123 33.0595 28.424 32.7017C28.4861 32.6916 28.5497 32.6939 28.611 32.7084C28.6723 32.7229 28.7301 32.7493 28.7812 32.7862C28.8322 32.823 28.8756 32.8696 28.9086 32.9232C28.9417 32.9768 28.9639 33.0364 28.974 33.0985C28.984 33.1607 28.9817 33.2243 28.9672 33.2855C28.9527 33.3468 28.9263 33.4047 28.8894 33.4557C28.8526 33.5068 28.806 33.5501 28.7525 33.5832C28.6989 33.6163 28.6393 33.6385 28.5771 33.6485C26.3623 34.0079 23.9193 34.3712 21.4373 34.7399C17.9068 35.2642 14.2568 35.8063 11.1045 36.3626C10.7289 36.4477 10.345 36.4912 9.95989 36.4923Z" fill="#FC7C54"/>
<path d="M22.6183 12.563C21.9608 12.5572 21.3096 12.4336 20.6957 12.1982C20.4214 12.091 20.1747 11.9236 19.9738 11.7083C19.7324 11.4989 19.769 11.1318 19.8104 10.713C19.8174 10.6403 19.8254 10.5747 19.8269 10.531C19.8238 10.503 19.823 10.4747 19.8246 10.4466C19.8599 8.90529 20.1579 7.38139 20.7057 5.94029C21.5348 4.12199 22.9243 2.61674 24.6707 1.64502C26.3643 0.873696 28.1744 0.389226 30.0269 0.211416L30.305 0.170016C31.9254 -0.158824 33.6038 -0.0539941 35.1706 0.473916C35.719 0.709536 36.2426 0.998976 36.7338 1.33798C36.7934 1.3748 36.8478 1.41946 36.8955 1.47078L37.4761 1.96142C37.5339 2.01219 37.7502 2.25907 37.9291 2.46922C38.0252 2.58094 38.108 2.6786 38.1385 2.71142C38.1535 2.72626 38.1995 2.78719 38.212 2.80438L38.6987 3.58329C39.203 4.63849 39.5114 5.77649 39.6088 6.94189C39.6604 7.51839 39.723 8.29969 39.748 8.87389C39.7438 9.01128 39.7118 9.14649 39.6539 9.27119C39.596 9.39599 39.5135 9.50768 39.4113 9.59968C39.405 9.60668 39.398 9.61299 39.3917 9.61919C38.9756 9.94659 38.4695 10.1391 37.941 10.1708C37.2175 10.2356 36.4885 10.1516 35.7988 9.92389C35.4599 9.83129 35.1493 9.65599 34.8949 9.41369C34.7606 9.30809 34.6697 9.15689 34.6394 8.98869C34.634 8.95989 34.6313 8.93058 34.6315 8.90119L34.6307 8.57699C34.6814 7.68469 34.5918 6.78999 34.3652 5.92539C33.991 4.87859 33.0027 4.91059 31.5424 5.08479L30.7816 5.19969C29.716 5.33399 28.66 5.53539 27.6199 5.80279C25.2441 6.55359 24.816 8.45898 24.8988 11.2872C24.9004 11.3314 24.8956 11.3756 24.8847 11.4184C24.7355 12.009 24.1691 12.3817 23.2003 12.5262C23.0073 12.5507 22.8129 12.563 22.6183 12.563ZM20.7409 11.12C20.8319 11.1985 20.9354 11.2611 21.0471 11.3052C21.689 11.5565 22.3821 11.6492 23.0674 11.5755C23.7065 11.4802 23.8863 11.3122 23.9371 11.2239C23.8668 8.50049 24.2496 5.86139 27.3441 4.88329C28.4284 4.60179 29.5295 4.39019 30.6409 4.24969L31.4096 4.13409C32.7729 3.97389 34.6097 3.75669 35.2722 5.61139C35.5362 6.57689 35.6438 7.57839 35.591 8.57779V8.75438C35.7388 8.87078 35.9078 8.95729 36.0886 9.00909C36.6487 9.19719 37.2415 9.26799 37.83 9.21689C38.1566 9.20149 38.4725 9.09579 38.7425 8.91139C38.7631 8.89179 38.781 8.86938 38.7957 8.84499C38.7652 8.35439 38.7027 7.59029 38.6535 7.03249C38.5699 6.00339 38.3038 4.99729 37.8675 4.06139L37.416 3.33959C37.4113 3.33959 37.3129 3.22469 37.1996 3.09269C37.0605 2.92942 36.8965 2.73645 36.8386 2.67942L36.2238 2.15363C36.1923 2.13269 36.1621 2.10999 36.1332 2.08563C35.7162 1.80579 35.2744 1.5647 34.8135 1.36539C33.4044 0.903935 31.8992 0.819095 30.4472 1.1193L30.1698 1.1607C28.4266 1.32233 26.7223 1.77164 25.126 2.49039C23.5719 3.36529 22.3329 4.70739 21.5847 6.32629C21.0884 7.64879 20.8182 9.04539 20.7855 10.4576C20.7882 10.5748 20.7817 10.6921 20.766 10.8084C20.7582 10.8857 20.744 11.024 20.7409 11.1201V11.12ZM20.5331 10.9349L20.5347 10.9357L20.5331 10.9349ZM35.5308 8.69888L35.5339 8.70199L35.5308 8.69888Z" fill="#FC7C54"/>
<path d="M60.2253 53.3694L60.2245 51.6322L60.2236 49.8959V48.4396L60.2219 47.4735L60.2099 46.9336L60.18 46.6878L60.1424 46.6093L60.1091 46.5521L60.0352 46.4721L59.9254 46.3817L59.7925 46.2837L59.6489 46.1791L59.496 46.0672L59.3314 45.9468L59.1541 45.8167L58.9619 45.6757L58.7538 45.5229L58.5278 45.3573L58.2834 45.178L58.0197 44.9847L57.7411 44.7802L57.452 44.5681L57.1572 44.3518L56.8605 44.1344L56.5632 43.9163L56.2649 43.6976L55.9658 43.4781L55.6667 43.2587L55.3719 43.0427L55.0878 42.8343L54.8199 42.6378L54.5721 42.4557L54.3388 42.2848L54.114 42.12L53.891 41.9564L53.6663 41.7915L53.4501 41.6326L53.2552 41.4895L53.0959 41.3719L52.9805 41.2878L52.8997 41.2385L52.822 41.2114L52.7694 41.1976L52.6464 41.1968L52.5697 41.2059L52.4584 41.1076L52.19 40.9407L51.8602 40.7871L51.4752 40.6493L51.0411 40.5299L50.9718 40.5282L50.5086 40.433L50.0118 40.3591L49.4924 40.3065L48.9585 40.2776L48.4181 40.2744L47.8798 40.2953L47.3531 40.3386L46.8485 40.4049L46.3757 40.4945L45.9402 40.6047L45.8604 40.6076L45.4576 40.7393L45.1085 40.8877L44.82 41.0507L44.5959 41.2252L44.4396 41.4081L44.3719 41.4661L44.2853 41.6574L44.2735 41.851L44.2379 41.9713L44.2248 42.1817L44.2229 42.5159V42.5312L43.5253 42.6425L42.2029 42.8534L40.9875 43.0473L39.9325 43.2155L39.0782 43.3518L38.4112 43.4582L37.9052 43.539L37.5335 43.5982L37.2712 43.6412L37.0989 43.6765L36.9975 43.713L36.9415 43.7577L36.9059 43.8409L36.8842 44.0826L36.8748 44.6204L36.873 45.5863L36.874 47.0426L36.8763 48.7786L36.879 50.5156L36.8813 51.9745L36.8863 52.9454L36.9119 53.4937L36.9798 53.7538L37.0064 53.7901L37.0738 53.8455L37.1853 53.9281L37.3418 54.0427L37.5331 54.1829L37.7461 54.3392L37.9681 54.502L38.1892 54.6642L38.4126 54.828L38.6444 54.998L38.8909 55.1788L39.1563 55.3736L39.4374 55.5797L39.729 55.7936L40.0258 56.0113L40.3234 56.2296L40.6211 56.4479L40.9187 56.6663L41.2164 56.8846L41.5132 57.1022L41.8048 57.3161L42.0859 57.5223L42.3513 57.717L42.597 57.8972L42.8234 58.0632L43.0319 58.2162L43.2242 58.3572L43.4018 58.4874L43.5657 58.6077L43.717 58.7187L43.8569 58.8215L43.9864 58.9157L44.1071 58.9982L44.2203 59.0645L44.3275 59.1103L44.3828 59.1615L44.4832 59.181L44.6068 59.1795L44.7792 59.1587L45.0266 59.1202L45.3755 59.0646L45.8554 58.988L46.497 58.8857L47.3306 58.7528L48.3723 58.5867L49.5809 58.3939L50.9007 58.1834L52.2759 57.964L53.6517 57.7447L54.9715 57.5341L56.1807 57.3413L57.2237 57.175L58.059 57.0417L58.7025 56.9391L59.184 56.8623L59.5327 56.8067L59.7762 56.7669L59.9309 56.7355L60.0104 56.7046L60.115 56.6316L60.1689 56.3886L60.2022 56.3421L60.2236 55.799L60.2262 54.8287L60.2253 53.3694ZM52.9638 44.9057L52.9623 44.7725L52.9704 44.7976L52.9638 44.9057ZM52.9809 44.7492L52.9807 44.7478L52.9954 44.7685L52.9809 44.7492ZM52.9739 44.7399L52.9618 44.7238V44.7212L52.974 44.7384L52.9739 44.7399ZM44.2208 44.741L44.2197 44.8404L44.1973 45.0157L44.2093 44.8188L44.1485 44.9006L44.2208 44.741Z" fill="white"/>
<path d="M37.2656 43.7237L44.2663 42.6034C44.2663 42.8158 44.2663 43.0047 44.2663 43.1936C44.2663 43.6209 44.2678 44.0481 44.2648 44.4754C44.2704 44.5453 44.2581 44.6154 44.2291 44.6793C44.1484 44.7628 44.0894 44.8648 44.0574 44.9765C44.0254 45.0881 44.0212 45.2059 44.0454 45.3195C44.0695 45.433 44.1211 45.539 44.1958 45.6279C44.2704 45.7169 44.3658 45.7862 44.4734 45.8297C44.9712 46.1372 45.5249 46.3432 46.1026 46.4358C47.0006 46.6316 47.92 46.7121 48.8383 46.6753C49.2328 46.6472 49.625 46.5932 50.0123 46.5137C50.3099 46.4599 50.3742 46.3668 50.376 46.0612C50.3795 45.4346 50.377 44.808 50.3769 44.1814C50.3769 44.0176 50.3775 43.8538 50.3765 43.69C50.3746 43.3799 50.2581 43.2499 49.9496 43.2407C49.3099 43.2215 48.6673 43.2423 48.0307 43.1891C47.0351 43.1693 46.057 42.9234 45.1703 42.4701C44.9988 42.3729 44.8476 42.2438 44.7247 42.0897C44.6705 42.0059 44.6351 41.9115 44.6207 41.8127C44.6063 41.714 44.6133 41.6134 44.6412 41.5176C44.6691 41.4218 44.7173 41.3331 44.7826 41.2576C44.8478 41.1821 44.9285 41.1215 45.0191 41.08C45.4479 40.8109 45.9266 40.6311 46.4265 40.5513C47.9182 40.2546 49.4547 40.2645 50.9425 40.5804C51.5328 40.6785 52.0954 40.9017 52.5924 41.2351C52.689 41.3065 52.8543 41.2782 52.9674 41.336C53.1213 41.4242 53.2679 41.5245 53.4058 41.636C54.9435 42.7639 56.481 43.8922 58.018 45.0211C58.6868 45.5115 59.3621 45.9934 60.0233 46.4939C60.1263 46.5869 60.1966 46.7107 60.2237 46.8468C60.2575 47.0286 60.271 47.2137 60.2638 47.3985C60.2664 50.204 60.2669 53.0096 60.2653 55.8152C60.2652 56.0211 60.2455 56.2271 60.232 56.4329C60.234 56.5264 60.1992 56.6169 60.135 56.6849C60.0708 56.753 59.9824 56.793 59.889 56.7963C59.1092 56.9161 58.3311 57.0466 57.5521 57.1712C56.0007 57.4195 54.4493 57.6671 52.8978 57.9142C51.2411 58.1787 49.5844 58.4433 47.9278 58.708C46.8754 58.876 45.824 59.0436 44.7737 59.2107C44.7737 57.7348 44.7736 56.263 44.7733 54.7953C44.7712 53.0438 44.7676 51.2923 44.7628 49.5408C44.762 49.469 44.7415 49.3987 44.7035 49.3377C44.6655 49.2767 44.6114 49.2273 44.5473 49.195C44.1891 48.9451 43.8688 48.6418 43.5167 48.3826C42.0101 47.2738 40.4963 46.1747 38.9875 45.0689C38.4113 44.6467 37.8413 44.2161 37.2684 43.7893L37.2656 43.7237Z" fill="#FFB7A4"/>
<path d="M60.1429 47.1033C60.0765 47.1035 60.0107 47.0893 59.9502 47.0618C59.8897 47.0343 59.8358 46.9941 59.7921 46.944C59.7745 46.9262 59.7583 46.9072 59.7437 46.8869L59.6203 46.751L52.725 41.6947C52.7132 41.6931 52.7023 41.6916 52.6914 41.6893L52.6804 41.6909C52.5421 41.7107 52.4014 41.6759 52.2882 41.594C52.282 41.5885 52.2414 41.5534 52.2156 41.5307L52.0054 41.4042C51.896 41.3395 51.8167 41.2341 51.7848 41.1111C51.753 40.9881 51.7712 40.8575 51.8356 40.7479C51.8999 40.6382 52.005 40.5586 52.1279 40.5264C52.2509 40.4942 52.3816 40.512 52.4914 40.576L52.7507 40.7252C52.8006 40.7226 52.8505 40.7298 52.8976 40.7463C52.9248 40.7485 52.9517 40.7532 52.9781 40.7604C53.0365 40.7777 53.0932 40.8002 53.1476 40.8276L60.3398 46.101C60.3701 46.1253 60.3971 46.1534 60.4203 46.1846L60.4796 46.2643L60.4976 46.2901C60.5102 46.3037 60.5219 46.3181 60.5328 46.3331C60.5856 46.4052 60.6174 46.4905 60.6247 46.5796C60.6319 46.6687 60.6144 46.758 60.5741 46.8378C60.5337 46.9175 60.4721 46.9846 60.396 47.0314C60.3199 47.0783 60.2323 47.1032 60.1429 47.1034V47.1033Z" fill="#FC7C54"/>
<path d="M48.8044 43.7446L47.6356 43.711L46.5278 43.5742L45.5458 43.3398L44.7442 43.0164L44.4215 42.8195L44.1528 42.5914C44.1253 42.5672 44.1006 42.5399 44.0793 42.5101L43.9449 42.3219C43.9161 42.2816 43.8937 42.2371 43.8785 42.1899L43.8168 41.9977C43.7987 41.941 43.7912 41.8813 43.7949 41.8219L43.8066 41.6281C43.8104 41.5652 43.8265 41.5036 43.854 41.4469C43.8816 41.3902 43.92 41.3395 43.9672 41.2976C44.0144 41.2558 44.0693 41.2236 44.1289 41.203C44.1885 41.1825 44.2516 41.1738 44.3145 41.1776C44.3774 41.1814 44.439 41.1976 44.4957 41.2252C44.5524 41.2528 44.6031 41.2913 44.6448 41.3385C44.6866 41.3857 44.7187 41.4407 44.7392 41.5003C44.7598 41.56 44.7683 41.623 44.7645 41.686L44.7582 41.7899L44.8285 41.9078L44.9918 42.0516L45.4856 42.3024L46.2434 42.5368L47.1895 42.7024L48.2465 42.7813L48.7895 42.7852L49.8598 42.7196L50.8348 42.5625L51.6395 42.3297L52.2012 42.0516L52.4371 41.7977L52.4434 41.693C52.4525 41.5666 52.5107 41.4487 52.6056 41.3646C52.7005 41.2805 52.8245 41.2369 52.9512 41.243C53.0141 41.2468 53.0757 41.2629 53.1323 41.2904C53.189 41.318 53.2397 41.3564 53.2815 41.4036C53.3233 41.4508 53.3554 41.5057 53.3759 41.5653C53.3965 41.6249 53.405 41.6879 53.4012 41.7508L53.3895 41.9438C53.3863 42.0024 53.3722 42.0599 53.3481 42.1133L53.2613 42.3047C53.2425 42.3457 53.2181 42.3838 53.1887 42.418L53.0301 42.604C53.0088 42.6285 52.9853 42.651 52.9598 42.6712L52.7316 42.8485L52.3801 43.0532L51.977 43.2274L51.0402 43.5001L49.9621 43.6735L48.8044 43.7446Z" fill="#FC7C54"/>
<path d="M44.4828 59.66C44.4519 59.6603 44.421 59.6574 44.3906 59.6514L44.2906 59.6319C44.2588 59.6256 44.2276 59.6162 44.1977 59.6038L43.6617 59.2819L36.9148 54.3288C36.9117 54.3264 36.8531 54.2827 36.8492 54.2795L36.768 54.2155L36.7008 54.16C36.6694 54.1338 36.6413 54.1039 36.6172 54.0709C36.5596 53.9886 36.5234 53.8933 36.5117 53.7936L36.4578 53.5897C36.4491 53.557 36.4439 53.5235 36.4422 53.4897L36.4164 52.9412L36.3945 44.6225L36.4312 43.7952C36.4354 43.7649 36.4412 43.735 36.4484 43.7053C36.4886 43.5979 36.547 43.4983 36.621 43.4108C36.6418 43.3855 36.6651 43.3625 36.6906 43.342C36.7361 43.3085 36.7857 43.281 36.8382 43.26L37.175 43.1702L43.7476 42.128L43.771 41.7452C43.7733 41.7094 43.7796 41.674 43.7898 41.6397L43.9234 41.2913C43.9503 41.2332 43.9853 41.1793 44.0273 41.1311L44.2312 40.9131C44.2528 40.8896 44.2757 40.8675 44.3 40.8467L44.5234 40.6717L44.8734 40.4686L45.7101 40.1506L46.7085 39.9303L47.8179 39.81L48.3937 39.7881L49.5444 39.8209L50.6359 39.9569L51.6023 40.1866L52.3929 40.5053L52.7108 40.6991C52.7327 40.7123 52.8116 40.778 52.8304 40.7952C52.8343 40.7983 52.8921 40.8491 52.896 40.853L53.0374 40.9749C53.0671 41.0005 53.0936 41.0296 53.1163 41.0616L53.2507 41.2499C53.2797 41.2903 53.3021 41.3351 53.3171 41.3827L53.4171 41.7045C53.4272 41.7389 53.4335 41.7743 53.4358 41.81L53.4546 44.6295L53.5164 44.8194C53.5346 44.8758 53.542 44.9352 53.5382 44.9944L53.5265 45.1944C53.5234 45.2533 53.5091 45.3111 53.4843 45.3647L53.3945 45.5623C53.3759 45.6036 53.3514 45.6421 53.3218 45.6764L53.1578 45.8678C53.1375 45.892 53.1147 45.914 53.0898 45.9334L52.8554 46.117L52.4913 46.3279L52.078 46.506L51.1147 46.7873L50.003 46.9654L48.8101 47.0389L47.6054 47.0029L46.464 46.8631L45.453 46.6217L44.6288 46.2889L44.296 46.0865L44.0218 45.8537C43.9938 45.829 43.9686 45.8012 43.9468 45.7709L43.8085 45.5764C43.7805 45.5363 43.7584 45.4923 43.7429 45.4459L43.6788 45.2475C43.6607 45.1903 43.6533 45.1301 43.657 45.0702L43.6695 44.8702C43.6726 44.8123 43.6866 44.7556 43.7109 44.703L43.7429 44.6311V43.1014L38.0757 43.9967L44.4038 48.6334L60.0272 46.1412C60.1178 46.1266 60.2106 46.1352 60.297 46.1663C60.3833 46.1973 60.4604 46.2497 60.521 46.3186C60.5749 46.3901 60.6117 46.4729 60.6288 46.5608C60.6311 46.5764 60.6436 46.6678 60.6444 46.6834L60.6686 47.51L60.703 55.7905L60.682 56.36C60.6807 56.3916 60.6762 56.423 60.6687 56.4538L60.5874 56.7381C60.5475 56.8482 60.4803 56.9463 60.3921 57.0233C60.3579 57.0475 60.3222 57.0694 60.2851 57.0889C60.2132 57.1223 60.1377 57.1472 60.0601 57.1631L58.8249 57.3522L44.489 59.66H44.4828ZM44.5109 58.6967L44.5266 58.6999L44.7227 58.6819L45.2539 58.5452L59.7258 56.2342L59.7437 55.7795L59.7016 47.1662L44.4148 49.6038C44.2656 49.628 44.1126 49.5981 43.9836 49.5194L37.3539 44.6577L37.3992 53.3936L37.4484 53.5827L37.4797 53.5522L44.5109 58.6967ZM37.1765 53.8264L37.1367 53.8952L37.1976 53.8342L37.1765 53.8264ZM44.6968 45.1694L44.8664 45.3178L45.3797 45.5795L46.1633 45.8217L47.1414 45.9936L48.2343 46.0756L48.7953 46.0795L49.9007 46.0115L50.9093 45.8498L51.7413 45.6084L52.3242 45.3201L52.5749 45.0279L52.5531 44.9584C52.5285 44.9106 52.5119 44.8592 52.5039 44.8061C52.5015 44.7881 52.496 44.7319 52.496 44.7139L52.4257 41.7467L52.271 41.5826L52.5163 41.1576L52.2023 41.5201L51.9367 41.3482L51.3133 41.1014L50.4672 40.9014L49.4719 40.7779L48.4086 40.7475L47.3562 40.8115L46.3984 40.9662L45.6078 41.1951L45.0547 41.4686L44.775 41.7397L44.7265 41.8459L44.7039 42.21L44.7047 42.5225C44.7047 42.5334 44.7039 42.549 44.7023 42.5647L44.7007 44.7318C44.6917 44.8096 44.6742 44.8861 44.6484 44.96L44.6203 45.0389L44.6968 45.1694Z" fill="#FC7C54"/>
<path d="M35.745 61.057C35.7118 58.9316 35.8086 56.4904 35.6998 54.3753C35.413 53.9016 34.6995 53.5853 34.2736 53.2104C32.8075 52.1353 31.3245 51.0475 29.8585 49.9723C29.5115 49.7181 29.1215 49.4318 28.7749 49.177C28.5785 49.0312 28.3561 48.8226 28.0894 48.8934C26.2407 47.6374 23.0482 47.8022 20.9773 48.4266C20.5761 48.5009 20.2208 48.7313 19.9893 49.0673C19.7578 49.4033 19.6691 49.8174 19.7427 50.2187C17.6897 50.5474 15.4757 50.8983 13.4249 51.2265C13.1354 51.3285 12.5833 51.2259 12.4256 51.5283C12.3415 54.4852 12.4187 57.6726 12.406 60.6329C12.4289 60.8302 12.4011 61.3095 12.5262 61.4775C12.6792 61.6055 12.893 61.7492 13.0528 61.8704C13.6777 62.3289 14.332 62.8086 14.9572 63.2672C16.6079 64.4455 18.2196 65.7288 19.9025 66.849C22.9506 66.5341 26.1233 65.8624 29.1715 65.4322C31.2627 65.0261 33.6 64.8694 35.6348 64.3191C35.6465 64.2777 35.6817 64.0528 35.722 64.0296C35.7631 63.2035 35.74 61.8922 35.745 61.057ZM28.4835 52.5932L28.4821 52.4601C28.4956 52.4753 28.4838 52.5742 28.4835 52.5932ZM28.5006 52.4367L28.5004 52.4354L28.5152 52.456L28.5006 52.4367ZM28.4937 52.4275L28.4815 52.4113V52.4088L28.4938 52.426L28.4937 52.4275ZM19.7405 52.4285C19.7396 52.5205 19.7317 52.6124 19.717 52.7032L19.729 52.5063L19.6683 52.5881L19.7405 52.4285Z" fill="white"/>
<path d="M12.7852 51.4114L19.7859 50.2912C20.0863 51.3489 19.1168 52.934 19.9927 53.5175C21.5189 54.2368 24.7579 55.0859 25.8958 53.7496C26.691 49.0719 23.3553 51.8897 20.6897 50.1577C18.4554 47.3822 26.8401 47.6877 28.1115 48.9227C37.1724 54.5423 35.9255 53.8638 35.7511 64.1208C31.1287 65.7358 25.3059 65.809 20.2933 66.8984C20.4221 56.4282 21.6213 57.4951 12.788 51.477L12.7852 51.4114Z" fill="#FFB7A4"/>
<path d="M20.0664 56.8828L20.2936 66.6124L35.3664 64.0932V54.4932L20.0664 56.8828Z" fill="white"/>
<path d="M35.6742 54.7969C35.6033 54.7971 35.5333 54.7815 35.4693 54.7512C35.4052 54.7209 35.3487 54.6768 35.3039 54.6219C35.0756 54.3779 34.8155 54.1658 34.5304 53.9914C34.3367 53.8586 34.1429 53.7258 33.9679 53.5805L28.6859 49.7071C28.6078 49.6556 28.5327 49.5998 28.4609 49.5399C28.3867 49.4734 28.304 49.4171 28.2148 49.3727C28.1357 49.3946 28.0521 49.3943 27.9731 49.3718C27.8941 49.3494 27.8229 49.3056 27.7672 49.2453C27.6934 49.1887 27.6147 49.1387 27.532 49.0961C27.4214 49.0333 27.3402 48.9292 27.3063 48.8065C27.2725 48.6839 27.2887 48.5528 27.3515 48.4422C27.4143 48.3315 27.5185 48.2504 27.6411 48.2165C27.7637 48.1827 27.8948 48.1989 28.0054 48.2617C28.0867 48.307 28.1734 48.3578 28.2547 48.4125C28.5572 48.4468 28.8401 48.5794 29.0601 48.7898C29.1125 48.834 29.1672 48.8752 29.2242 48.9133L34.5578 52.8242C34.7336 52.968 34.9031 53.0828 35.0726 53.1992C35.4338 53.4225 35.7611 53.6963 36.0445 54.0125C36.0846 54.0611 36.1147 54.1171 36.1331 54.1774C36.1515 54.2376 36.1578 54.3009 36.1517 54.3636C36.1456 54.4263 36.1272 54.4872 36.0976 54.5428C36.0679 54.5983 36.0276 54.6475 35.9789 54.6875C35.8934 54.7587 35.7855 54.7974 35.6742 54.7969Z" fill="#FC7C54"/>
<path d="M24.0452 51.4356C23.8553 51.4356 23.6757 51.4317 23.5092 51.4239C20.8561 51.3075 19.2921 50.5255 19.3257 49.3325C19.3254 49.2689 19.3382 49.2059 19.3632 49.1474C19.3882 49.089 19.425 49.0363 19.4712 48.9926C19.5174 48.9489 19.572 48.9151 19.6318 48.8933C19.6916 48.8716 19.7551 48.8623 19.8186 48.8661C19.8816 48.8678 19.9437 48.8819 20.0012 48.9076C20.0588 48.9333 20.1107 48.9701 20.154 49.0158C20.1974 49.0616 20.2312 49.1155 20.2537 49.1744C20.2762 49.2333 20.2868 49.296 20.285 49.359C20.2725 49.8215 21.517 50.3754 23.5514 50.4653C25.9944 50.5606 27.9272 49.97 27.9631 49.3809C27.9663 49.3178 27.982 49.256 28.0094 49.199C28.0368 49.142 28.0752 49.0911 28.1225 49.0492C28.1698 49.0073 28.225 48.9753 28.2848 48.9549C28.3446 48.9346 28.4079 48.9265 28.471 48.9309C28.598 48.9386 28.7167 48.9964 28.8011 49.0916C28.8855 49.1869 28.9286 49.3117 28.921 49.4387C28.8264 51.0325 25.9413 51.4356 24.0452 51.4356Z" fill="#FC7C54"/>
<path d="M20.074 67.3501C19.9001 67.3528 19.7284 67.3114 19.5748 67.2298L19.456 67.1486C17.067 65.4166 14.5966 63.6259 12.2107 61.8244C12.1448 61.7747 12.0928 61.7088 12.0598 61.6331C12.0268 61.5574 12.014 61.4745 12.0224 61.3924C11.913 60.3524 11.8812 59.3058 11.9271 58.2611C11.9381 57.6338 11.9498 57.0189 11.9271 56.4588C11.9451 55.8314 11.9326 55.1791 11.9209 54.515C11.8804 53.4749 11.9 52.4333 11.9795 51.3955C11.9893 51.304 12.025 51.2171 12.0825 51.1452C12.1399 51.0732 12.2166 51.0191 12.3037 50.9892C12.5311 50.8766 12.7798 50.8132 13.0334 50.8033C13.1204 50.7976 13.2069 50.7851 13.292 50.7658C14.3709 50.5963 15.4287 50.4259 16.4873 50.2564C17.4217 50.1056 18.356 49.9556 19.2646 49.815C19.2522 49.5724 19.2963 49.3302 19.3936 49.1076C19.4908 48.885 19.6384 48.688 19.8248 48.5322C21.4115 47.4564 23.6982 47.197 26.649 47.7463L26.8076 47.7892C27.5201 47.9939 28.5974 48.3025 28.8998 49.2658C28.9829 49.8533 29.0075 50.4476 28.9732 51.04C28.9485 51.5013 28.9576 51.9637 29.0006 52.4236C29.0408 52.5939 29.0431 52.7709 29.0075 52.9422C28.9718 53.1135 28.8991 53.2749 28.7943 53.415C28.1451 54.3244 26.281 54.5861 24.9357 54.7041C24.9232 54.7049 24.8443 54.7064 24.8326 54.7064C23.1412 54.7322 20.5873 54.7619 19.3529 53.2963C19.3263 53.2643 19.3037 53.2291 19.2857 53.1916C19.2222 53.0537 19.1872 52.9044 19.1831 52.7527C19.1789 52.6009 19.2056 52.4499 19.2615 52.3088C19.2638 51.8822 19.2638 51.422 19.2631 50.9728V50.7869C18.4029 50.9205 17.5209 51.0619 16.6396 51.2041C15.6131 51.3689 14.5873 51.5338 13.5975 51.6861C14.849 52.6072 16.1029 53.5273 17.3592 54.4463L19.9186 56.322C25.1186 55.4955 30.3866 54.6548 35.5842 53.8236C35.6503 53.8132 35.7179 53.8167 35.7826 53.834C35.8473 53.8512 35.9077 53.8817 35.96 53.9237C36.0122 53.9656 36.0551 54.018 36.0859 54.0774C36.1167 54.1369 36.1347 54.2021 36.1388 54.269C36.2193 55.6104 36.206 57.0869 36.1935 58.5143C36.1849 59.3979 36.1771 60.2713 36.1912 61.0963C36.1748 61.4502 36.1912 61.8244 36.2076 62.2127C36.2786 62.9581 36.2417 63.7098 36.0982 64.4447C36.0746 64.5324 36.0266 64.6116 35.9598 64.6731C35.8931 64.7347 35.8102 64.776 35.7209 64.7924C33.424 65.2088 31.0318 65.5799 28.717 65.9392C27.1373 66.1846 25.5607 66.4291 24.0092 66.6885C23.6123 66.758 23.1834 66.8229 22.749 66.8885C22.0295 66.9978 21.2865 67.1103 20.6365 67.2517C20.4547 67.3113 20.2652 67.3445 20.074 67.3501ZM12.9638 61.19C15.288 62.9415 17.6927 64.6845 20.0193 66.3712L20.0857 66.4197C20.0982 66.4087 20.3263 66.3431 20.4013 66.322C21.1122 66.1658 21.8708 66.0509 22.6052 65.9392C23.0326 65.8744 23.4537 65.8111 23.8474 65.7423C25.406 65.4814 26.9865 65.2361 28.5701 64.9908C30.7709 64.6486 33.0427 64.2962 35.2294 63.9048C35.2828 63.3559 35.2891 62.8033 35.2482 62.2533C35.231 61.8337 35.2146 61.4369 35.2318 61.0806C35.2169 60.2798 35.2247 59.3978 35.2334 58.5056C35.2443 57.2822 35.256 56.0228 35.2076 54.8564C30.1146 55.6704 24.96 56.4931 19.8709 57.3017C19.7442 57.3213 19.615 57.2898 19.5115 57.2142L16.792 55.2204C15.4865 54.2642 14.1818 53.3069 12.8779 52.3486C12.8537 53.0353 12.867 53.7751 12.8803 54.4978C12.8928 55.1775 12.9053 55.8462 12.8865 56.4548C12.9092 56.9978 12.8982 57.6314 12.8873 58.2783C12.8459 59.2494 12.8714 60.2223 12.9638 61.19ZM20.1443 52.7423C21.1193 53.7947 23.3427 53.765 24.8201 53.747C27.1959 53.5423 27.838 53.1017 28.013 52.8572C28.0409 52.8208 28.0596 52.7782 28.0675 52.733C28.0754 52.6879 28.0723 52.6415 28.0584 52.5978C28.0009 52.0717 27.9861 51.5419 28.0138 51.0134C28.0441 50.5032 28.0286 49.9912 27.9677 49.4837C27.8365 49.0829 27.1193 48.8775 26.5427 48.7119L26.4279 48.6791C23.7794 48.1908 21.7326 48.3978 20.3849 49.3111C20.2302 49.4298 20.2193 49.6986 20.2224 50.1236V50.2048L20.2232 50.9712C20.224 51.4603 20.224 51.9618 20.2209 52.4196C20.2206 52.5013 20.1993 52.5814 20.1592 52.6524C20.146 52.6805 20.1408 52.7116 20.1443 52.7423Z" fill="#FC7C54"/>
</g>
<defs>
<clipPath id="clip0">
<rect width="63" height="67" fill="white"/>
</clipPath>
</defs>
</svg>
