<svg width="78" height="66" viewBox="0 0 78 66" fill="none" xmlns="http://www.w3.org/2000/svg">
<g clip-path="url(#clip0)">
<path d="M6.00759 0.666016L4.49799 4.86443L0.758789 6.97803L4.77159 8.00683L6.57399 12.1036L8.22599 7.62203L11.8164 5.70603L7.86759 4.49003L6.00759 0.666016Z" fill="white"/>
<path d="M8.79411 6.47533C8.59548 6.37843 8.47062 6.30443 8.33679 6.25443C7.56501 5.96613 7.61519 5.96403 7.54902 5.13993C7.49016 4.40683 7.29968 3.68443 7.17112 2.95657C7.05805 2.40236 6.99585 1.83897 6.98529 1.27344C7.2538 1.98532 7.47418 2.71442 7.64494 3.45583C7.65289 3.65553 7.70088 3.85163 7.78608 4.03243C7.87127 4.21323 7.99193 4.37513 8.14088 4.50843C8.28984 4.64173 8.46406 4.74373 8.65319 4.80833C8.84233 4.87293 9.04253 4.89893 9.24193 4.88473C9.99753 4.96983 10.7437 5.12433 11.471 5.34603C11.7388 5.45333 11.9938 5.59023 12.2311 5.75433C11.9676 5.91813 11.8008 6.04443 11.6159 6.13303C10.6688 6.58683 9.72283 7.04353 8.7647 7.47313C8.54543 7.56293 8.35058 7.70353 8.19612 7.88323C8.04167 8.06293 7.93201 8.27673 7.87614 8.50703C7.57905 9.59103 7.22632 10.6589 6.81934 11.7066C6.90579 11.2814 6.96574 10.8487 7.08407 10.4326C7.41217 9.49483 7.63944 8.52473 7.76205 7.53883C7.77687 7.31693 8.10039 7.10913 8.29548 6.90813C8.43275 6.76673 8.59328 6.64783 8.79411 6.47533Z" fill="#F5A2C5"/>
<path d="M6.55573 12.5839C6.31628 12.5839 6.21004 12.4495 5.79636 11.9261C5.76881 11.8905 5.74608 11.8513 5.72878 11.8097C5.68855 11.7105 4.81278 9.55817 4.41042 8.42847C3.67527 8.28627 1.89442 7.91127 1.04636 7.73237C0.984417 7.71957 0.925597 7.69477 0.873287 7.65917C0.820967 7.62367 0.776207 7.57817 0.741547 7.52527C0.706897 7.47237 0.683037 7.41307 0.671347 7.35097C0.659667 7.28877 0.660377 7.22497 0.673447 7.16307C0.686527 7.10117 0.711697 7.04247 0.747527 6.99037C0.783357 6.93827 0.829127 6.89377 0.882227 6.85937C0.935317 6.82507 0.994677 6.80147 1.0569 6.79017C1.11911 6.77877 1.18296 6.77987 1.24476 6.79327C2.52758 7.06437 4.63461 7.50347 4.8264 7.52997C4.91664 7.54187 5.00185 7.57847 5.07264 7.63567C5.14342 7.69287 5.19704 7.76847 5.22758 7.85417C5.48578 8.62917 6.19711 10.4058 6.48968 11.1308C6.60961 10.7566 6.73383 10.298 6.83109 9.93857C7.22211 8.49247 7.49125 7.58937 7.92914 7.24487C8.49568 6.91917 9.08408 6.63307 9.69008 6.38857C10.4162 6.11037 11.1094 5.75277 11.7569 5.32217C11.8074 5.28447 11.8648 5.25697 11.9259 5.24147C11.987 5.22587 12.0505 5.22247 12.1129 5.23147C12.1753 5.24047 12.2353 5.26167 12.2895 5.29387C12.3437 5.32607 12.391 5.36857 12.4288 5.41907C12.4665 5.46957 12.494 5.52697 12.5095 5.58807C12.5251 5.64917 12.5285 5.71267 12.5195 5.77507C12.5105 5.83747 12.4893 5.89747 12.4571 5.95167C12.4249 6.00587 12.3824 6.05317 12.3319 6.09097C11.6252 6.56897 10.8661 6.96447 10.0694 7.26987C9.52118 7.49047 8.98767 7.74597 8.47211 8.03467C8.1568 8.72497 7.91725 9.44747 7.75766 10.1894C7.6214 10.9781 7.34165 11.7352 6.93227 12.423C6.84836 12.5173 6.73054 12.5746 6.60453 12.5824C6.58776 12.5839 6.57136 12.5839 6.55573 12.5839Z" fill="#ED1E71"/>
<path d="M1.14555 7.74244C1.04301 7.74264 0.943152 7.70974 0.860752 7.64874L0.795912 7.60184C0.644712 7.49164 0.357242 7.27684 0.304502 7.22374C0.259842 7.17864 0.224532 7.12524 0.200592 7.06654C0.176662 7.00784 0.164582 6.94494 0.165052 6.88154C0.165432 6.79074 0.187682 6.70134 0.229902 6.62104C0.272132 6.54064 0.333092 6.47164 0.407632 6.41984C1.38878 5.85204 2.40047 5.33874 3.4381 4.88234C4.30763 4.49484 4.30763 4.49484 4.61193 3.43384C4.79708 2.78856 5.07716 1.81356 5.63458 0.289336C5.66222 0.213726 5.70844 0.146295 5.76898 0.0932355C5.83959 0.0306455 5.92423 -0.0140245 6.01575 -0.0369945C6.10726 -0.0599745 6.20296 -0.0605745 6.29476 -0.0387645C6.43187 0.0104555 6.60258 0.0713952 7.1639 1.09093C7.53969 2.08933 8.08343 3.54324 8.2971 4.09794C8.48461 4.13394 8.73461 4.17214 8.99398 4.21204C10.7412 4.48234 12.1072 4.74794 12.4752 5.49404C12.5297 5.60574 12.5378 5.73434 12.4979 5.85204C12.4579 5.96964 12.3731 6.06674 12.2619 6.12214C12.1487 6.17844 12.0181 6.18874 11.8974 6.15084C11.7767 6.11304 11.6754 6.02994 11.6146 5.91904C11.4138 5.55734 9.54944 5.26904 8.84749 5.16124C8.49998 5.11574 8.155 5.05264 7.81389 4.97214C7.74639 4.95324 7.68387 4.91974 7.63075 4.87394C7.57763 4.82814 7.53521 4.77134 7.50646 4.70734C7.41115 4.49484 6.47951 1.98941 6.29358 1.48941C6.2803 1.46597 6.26623 1.44175 6.25178 1.41753C5.88889 2.46441 5.68146 3.18704 5.53498 3.69874C5.13106 5.10583 5.03537 5.22144 3.82872 5.75894C3.32247 5.98474 2.59512 6.30894 1.48106 6.91914C1.54941 6.98574 1.59633 7.07124 1.61581 7.16474C1.63529 7.25814 1.62645 7.35534 1.59043 7.44374C1.5544 7.53214 1.49282 7.60784 1.41357 7.66104C1.33432 7.71424 1.24099 7.74264 1.14552 7.74254L1.14555 7.74244Z" fill="#ED1E71"/>
<path d="M71.953 2.36035C72.2744 3.41103 72.5769 4.36913 72.8561 5.33393C72.8757 5.44513 72.9319 5.54653 73.0158 5.62213C73.0996 5.69773 73.2064 5.74303 73.319 5.75093C74.2272 5.90193 75.136 6.05673 76.034 6.25733C76.3802 6.36793 76.715 6.51123 77.034 6.68543L77.0268 6.82133C76.8484 6.92913 76.6774 7.05233 76.4904 7.14223C75.5183 7.60963 74.5448 8.07423 73.5661 8.52763C73.3945 8.60253 73.2423 8.71553 73.1209 8.85803C72.9995 9.00053 72.9121 9.16873 72.8653 9.35003C72.5449 10.4371 72.2116 11.5221 71.8651 12.6048C71.9265 11.482 71.3194 10.5202 71.1412 9.46483C71.1109 9.19823 70.9913 8.94973 70.8018 8.75973C70.6123 8.56963 70.3641 8.44933 70.0976 8.41833C69.8189 8.32923 69.5456 8.22383 69.2793 8.10253C69.7567 7.71653 70.1994 7.37233 70.6246 7.00773C70.8012 6.88093 70.9428 6.71153 71.0364 6.51533C71.3328 5.62903 71.6233 4.73793 71.8474 3.83163C71.9242 3.34513 71.9596 2.85289 71.953 2.36035Z" fill="#F5A2C5"/>
<path d="M71.0852 2.36035C71.0852 2.36035 70.7632 5.98683 68.1497 6.56563C65.5363 7.14433 66.3388 8.06233 66.3388 8.06233C66.3388 8.06233 68.8048 8.16673 69.4512 9.01043C70.188 10.3432 70.8139 11.7343 71.3222 13.1698C71.3222 13.1698 72.123 9.38953 73.0679 8.67543C74.1348 7.97903 75.2465 7.35383 76.3958 6.80393C74.9863 6.64203 73.6974 5.93113 72.8086 4.82523C72.1535 4.06303 71.5762 3.23733 71.0852 2.36035Z" fill="white"/>
<path d="M71.5363 13.4911C71.4308 13.487 71.3274 13.4601 71.2332 13.4122C71.1407 13.3713 71.0636 13.3021 71.0129 13.2146C70.9691 13.138 69.8293 10.549 69.4012 9.38725C68.4269 9.14665 65.6387 8.38255 65.4918 8.30755C65.4125 8.26765 65.3459 8.20645 65.2994 8.13085C65.2529 8.05524 65.2284 7.96825 65.2285 7.87945V7.83185C65.2284 7.74705 65.2507 7.66385 65.2933 7.59055C65.3358 7.51725 65.397 7.45655 65.4707 7.41465C66.4325 6.85985 67.4233 6.35675 68.4387 5.90765C69.3059 5.51935 69.3059 5.51935 69.602 4.48265C69.784 3.84825 70.0582 2.88965 70.6074 1.38965C70.636 1.31181 70.6842 1.24265 70.7473 1.18885C70.83 1.11643 70.9323 1.07008 71.0413 1.05563C71.1502 1.04117 71.2611 1.05925 71.3598 1.10759L71.441 1.15838C71.4832 1.18489 71.5208 1.21784 71.5528 1.25603C72.069 2.29008 72.5304 3.35065 72.9348 4.43335C73.0559 4.71775 73.1598 4.96224 73.2309 5.12945C74.5942 5.41694 75.9353 5.80095 77.2442 6.27865C77.2999 6.32535 77.3443 6.38405 77.3739 6.45035C77.4035 6.51664 77.4177 6.58885 77.4153 6.66145C77.4114 6.78435 77.3715 6.90335 77.3004 7.00365C76.5909 7.54375 75.8011 7.96925 74.9598 8.26465C74.4171 8.49055 73.889 8.74985 73.3785 9.04125C73.1111 9.68465 72.8973 10.3491 72.7394 11.0279C72.5911 11.8364 72.3071 12.614 71.8996 13.3279C71.8154 13.4233 71.6969 13.4814 71.5699 13.4896C71.5582 13.4904 71.5473 13.4911 71.5363 13.4911ZM66.9004 7.72245C68.0145 8.03255 69.6434 8.47475 69.8301 8.50605C69.9182 8.52075 70.0009 8.55855 70.0697 8.61545C70.1386 8.67235 70.1912 8.74645 70.2223 8.83025C70.4316 9.45995 71.0691 10.9544 71.4863 11.913C71.6012 11.5443 71.7199 11.1146 71.8145 10.7724C71.9651 9.91555 72.2712 9.09345 72.7176 8.34665C73.2955 7.96035 73.9147 7.63965 74.5637 7.39045C74.9309 7.22405 75.4309 6.99825 75.8434 6.79505C74.8527 6.51305 73.3184 6.11385 72.7965 6.01545C72.7196 6.00065 72.6474 5.96735 72.5861 5.91855C72.5249 5.86965 72.4764 5.80665 72.4449 5.73495C72.4137 5.66145 72.2574 5.29355 72.0512 4.80835C71.8059 4.23025 71.4395 3.36695 71.159 2.70837C70.8449 3.62945 70.659 4.27785 70.5254 4.74665C70.1293 6.13105 70.034 6.24505 68.8316 6.78415C68.3926 6.98025 67.7848 7.25215 66.9004 7.72245Z" fill="#ED1E71"/>
<path d="M10.1437 25.8064C10.1437 25.8064 8.51242 56.54 10.2327 58.4804C11.9529 60.4209 61.1784 51.3315 61.1784 51.3315L61.8973 17.7295L10.1437 25.8064Z" fill="white"/>
<path d="M11.237 16.9135C11.237 16.9135 9.73827 18.2076 10.233 23.3316L61.8975 15.0918L61.3135 9.32617L11.237 16.9135Z" fill="white"/>
<path d="M7.57178 14.1549C7.57178 14.1549 5.92755 15.1939 6.43818 20.548L57.806 12.6052L57.8004 7.30959C57.8002 7.14649 57.7646 6.98539 57.696 6.83739C57.6275 6.68939 57.5276 6.55809 57.4033 6.45249C57.279 6.34689 57.1333 6.26959 56.9762 6.22579C56.8191 6.18209 56.6543 6.17299 56.4933 6.19919L7.57178 14.1549Z" fill="white"/>
<path d="M6.43784 23.1865V54.4159C6.43784 54.4159 6.36882 55.7665 8.19056 56.4089L59.4421 49.0852L57.7994 15.7451L6.43784 23.1865Z" fill="white"/>
<path d="M61.2556 17.6468C57.9916 18.1668 54.7276 18.6948 51.4636 19.2068C44.7676 20.2708 38.0769 21.3348 31.3916 22.3988C24.8316 23.4388 18.2716 24.4841 11.7116 25.5348C11.1836 25.6228 10.6636 25.7188 10.1436 25.8068C10.1436 25.8708 10.1516 25.9268 10.1516 25.9828C10.3913 25.9988 10.6319 25.9988 10.8716 25.9828C13.8796 25.5108 16.8849 25.0335 19.8876 24.5508C23.4636 23.9828 27.0343 23.4148 30.5996 22.8468C32.3996 22.5588 34.1943 22.2735 35.9836 21.9908C36.2156 21.9508 36.4316 21.8788 36.4556 22.2628C36.5436 23.5908 36.7196 24.9188 36.7276 26.2468C36.7436 27.7268 36.6556 29.2148 36.5436 30.6868C36.4316 32.1588 36.2556 33.6308 36.0556 35.0868C35.6839 37.72 35.0761 40.3145 34.2396 42.8388C33.6076 44.7348 32.9276 46.6228 32.1196 48.4468C31.2156 50.4868 30.1516 52.4548 29.1356 54.4468C28.7836 55.1348 28.3676 55.7988 27.9356 56.5508C28.1996 56.5268 28.3436 56.5188 28.4876 56.4948C31.5756 56.0068 34.6609 55.5161 37.7436 55.0228C45.0476 53.8548 52.3516 52.6842 59.6556 51.5108C60.326 51.4577 60.9479 51.1404 61.3844 50.6289C61.821 50.1173 62.0365 49.4533 61.9836 48.7828C61.9916 38.6228 61.9916 28.4602 61.9836 18.2948C61.9836 17.7028 61.8396 17.5588 61.2556 17.6468ZM49.3836 40.7108C49.2373 41.2802 49.0446 41.8367 48.8076 42.3748C48.7372 42.5143 48.6175 42.6227 48.4716 42.6788C48.0236 42.8948 47.5596 43.0708 46.9676 43.3188C47.5196 43.4628 47.9356 43.5588 48.3516 43.6788C48.4796 43.7108 48.6796 43.7828 48.6956 43.8708C48.8316 44.5988 48.9436 45.3428 49.0476 46.0788C49.0556 46.1268 48.9916 46.1908 48.8956 46.3828C48.7351 46.1717 48.5983 45.9437 48.4876 45.7028C48.3217 45.2777 48.2062 44.8347 48.1436 44.3828C48.0876 43.9268 47.8396 43.7908 47.4556 43.7188C47.0233 43.6394 46.596 43.5352 46.1756 43.4068C45.9737 43.3047 45.7833 43.1813 45.6076 43.0388C46.3596 42.7268 46.9996 42.4868 47.6076 42.1828C47.8657 42.0423 48.0728 41.8239 48.1996 41.5588C48.4956 40.8948 48.7196 40.1988 48.9756 39.4948C49.6156 39.7828 49.4796 40.2948 49.3836 40.7108Z" fill="#F5A2C5"/>
<path d="M48.4724 42.6791C48.0244 42.8951 47.5604 43.0711 46.9684 43.3191C47.5204 43.4631 47.9364 43.5591 48.3524 43.6791C48.4804 43.7111 48.6804 43.7831 48.6964 43.8711C48.8324 44.5991 48.9444 45.3431 49.0484 46.0791C49.0564 46.1271 48.9924 46.1911 48.8964 46.3831C48.7359 46.1721 48.5991 45.944 48.4884 45.7031C48.3225 45.2781 48.2071 44.835 48.1444 44.3831C48.0884 43.9271 47.8404 43.7911 47.4564 43.7191C47.0241 43.6397 46.5968 43.5355 46.1764 43.4071C45.9745 43.305 45.7841 43.1816 45.6084 43.0391C46.3604 42.7271 47.0004 42.4871 47.6084 42.1831C47.8665 42.0426 48.0736 41.8242 48.2004 41.5591C48.4964 40.8951 48.7204 40.1991 48.9764 39.4951C49.6164 39.7831 49.4804 40.2951 49.3844 40.7111C49.2381 41.2806 49.0454 41.8371 48.8084 42.3751C48.738 42.5146 48.6183 42.623 48.4724 42.6791Z" fill="#F5A2C5"/>
<path d="M61.9831 15.195L36.0942 19.3254C35.8846 18.3568 35.6991 17.3939 35.4641 16.4432C35.2205 15.4578 34.931 14.4836 34.6566 13.5059C34.5812 13.2375 34.4065 13.1821 34.1305 13.2274C32.1454 13.5536 30.1573 13.8619 28.1705 14.1778C24.1481 14.8175 20.1236 15.4444 16.1048 16.1061C14.6399 16.3473 13.1895 16.6766 11.7301 16.9532C11.5647 16.962 11.3987 16.9486 11.2368 16.9135L11.2139 16.7491C11.6125 16.6004 12.0207 16.4785 12.4357 16.3844C18.7493 15.3636 25.0643 14.3513 31.3805 13.3474C38.8757 12.1534 46.3713 10.9625 53.8674 9.77455C55.6119 9.49705 57.3526 9.19555 59.0994 8.93395C59.8604 8.77335 60.6539 8.91385 61.3134 9.32615C61.5057 9.43685 61.6669 9.59435 61.7822 9.78395C61.8974 9.97355 61.963 10.1893 61.9728 10.411C61.9996 11.9823 61.9831 13.5543 61.9831 15.195Z" fill="#F5A2C5"/>
<path d="M12.2443 59.5094C12.2228 59.5093 12.2013 59.508 12.1799 59.5055L11.1744 59.386C11.0689 59.3735 10.9693 59.3304 10.8881 59.2618C10.6279 59.043 10.0143 58.5305 9.75448 58.3258C9.67628 58.2642 9.61638 58.1823 9.58138 58.0891C9.33948 57.3838 9.23758 56.6381 9.28138 55.8938L9.27708 25.6688C9.27718 25.5391 9.32348 25.4136 9.40758 25.315C9.49178 25.2163 9.60838 25.1509 9.73648 25.1305L61.4018 16.8907C61.473 16.8792 61.5458 16.882 61.6159 16.8989C61.6861 16.9158 61.7522 16.9464 61.8104 16.9891L62.2205 17.2899C62.3146 17.359 62.384 17.4565 62.4186 17.568C62.4532 17.6795 62.4511 17.7991 62.4127 17.9094C62.3354 18.418 62.3854 21.9313 62.4385 25.6469C62.7104 44.6844 62.458 50.6977 61.3588 51.3828C61.2397 51.4611 61.0988 51.4997 60.9565 51.493L60.1057 51.8649C60.0633 51.8835 60.0186 51.8967 59.9729 51.9039L12.3303 59.5023C12.3019 59.507 12.2731 59.5094 12.2443 59.5094ZM11.4647 58.3227L12.2334 58.4133L59.7322 50.8383C60.4603 50.5196 60.683 50.4227 60.7885 50.3938C61.6736 48.4907 61.4549 33.1328 61.3478 25.6625C61.276 20.6258 61.2611 18.7696 61.3134 18.0086L10.3678 26.1336V55.9618C10.3398 56.5053 10.404 57.0497 10.5576 57.5719C10.8139 57.7789 11.2096 58.1086 11.4647 58.3227Z" fill="#ED1E71"/>
<path d="M6.43789 21.0934C6.29327 21.0934 6.15457 21.0359 6.05231 20.9337C5.95004 20.8314 5.89259 20.6927 5.89258 20.5481V15.6239C5.89256 15.5951 5.89491 15.5663 5.89961 15.5379C6.10136 14.7648 6.59828 14.1017 7.28361 13.691C7.31977 13.6689 7.35829 13.6508 7.39846 13.6371L8.53206 13.2575C8.56047 13.2481 8.5896 13.241 8.61916 13.2364L55.7496 5.71916C55.7834 5.71366 55.8177 5.71126 55.8519 5.71206L56.0832 5.71366C56.7519 5.71366 57.8043 5.70976 58.2535 6.38556C58.313 6.47516 58.3448 6.58036 58.3449 6.68796V9.33326C58.3449 9.47786 58.2875 9.61656 58.1852 9.71886C58.0829 9.82106 57.9442 9.87856 57.7996 9.87856C57.655 9.87856 57.5163 9.82106 57.414 9.71886C57.3117 9.61656 57.2543 9.47786 57.2543 9.33326V6.92306C56.8783 6.79746 56.4791 6.75686 56.0855 6.80436C56.0074 6.80516 55.9348 6.80516 55.873 6.80356L8.83555 14.3059L7.80938 14.6496C7.43082 14.8935 7.14106 15.2529 6.9832 15.6746V19.909L9.96211 19.434C10.0328 19.4228 10.105 19.4255 10.1746 19.4421C10.2443 19.4588 10.3099 19.4889 10.3679 19.5309C10.4259 19.5729 10.475 19.6259 10.5125 19.6869C10.5499 19.7479 10.575 19.8157 10.5863 19.8864C10.5976 19.9571 10.5949 20.0293 10.5782 20.0989C10.5616 20.1685 10.5314 20.2342 10.4894 20.2922C10.4474 20.3501 10.3944 20.3993 10.3334 20.4367C10.2724 20.4742 10.2047 20.4993 10.134 20.5106L6.52383 21.0864C6.49542 21.091 6.46668 21.0934 6.43789 21.0934Z" fill="#ED1E71"/>
<path d="M10.2328 23.877C10.0882 23.877 9.9495 23.8195 9.8472 23.7173C9.745 23.615 9.6875 23.4763 9.6875 23.3317V20.8692C9.6875 19.502 9.6875 18.7559 9.739 18.3497L9.6918 18.3442C9.888 17.5627 10.3861 16.8909 11.0769 16.4762C11.1134 16.4537 11.1523 16.4353 11.1929 16.4215L12.3265 16.041C12.3551 16.0317 12.3843 16.0246 12.414 16.0199L59.5445 8.50346L60.8828 8.46596C60.9939 8.46346 61.1032 8.49476 61.1961 8.55586L61.8867 9.01206C62.3593 9.30506 62.507 10.091 62.4445 13.9887C62.4375 14.4528 62.4297 14.9324 62.4398 15.0371C62.4538 15.1755 62.4144 15.3141 62.3296 15.4243C62.2447 15.5346 62.1209 15.6082 61.9836 15.6301L10.3188 23.8699C10.2903 23.8746 10.2616 23.877 10.2328 23.877ZM11.6058 17.4333C11.2234 17.6796 10.9317 18.0438 10.7746 18.4708C10.7773 18.4918 10.7777 21.3778 10.7781 22.6926L61.3453 14.6278C61.3469 14.4559 61.35 14.2411 61.3539 13.9708C61.4207 12.6039 61.3739 11.2338 61.2141 9.87466L60.7383 9.56056L59.6437 9.58716L12.6305 17.0895L11.6058 17.4333ZM61.3164 9.94106L61.3172 9.94186L61.3164 9.94106Z" fill="#ED1E71"/>
<path d="M8.20078 56.6849C7.89582 56.6918 7.59129 56.6587 7.29492 56.5865C7.21679 56.5641 7.14461 56.5246 7.08359 56.4709L6.34766 55.8248C6.26693 55.7541 6.2089 55.6611 6.18086 55.5576L5.91133 54.5576C5.89891 54.5112 5.89261 54.4634 5.89258 54.4154V23.1865C5.89261 23.0568 5.93888 22.9313 6.02308 22.8327C6.10727 22.734 6.22387 22.6686 6.35195 22.6482L9.85741 22.0888C9.92811 22.0775 10.0003 22.0803 10.0699 22.0969C10.1396 22.1135 10.2052 22.1437 10.2632 22.1857C10.3212 22.2277 10.3703 22.2807 10.4078 22.3417C10.4452 22.4027 10.4703 22.4705 10.4816 22.5411C10.4929 22.6118 10.4902 22.684 10.4735 22.7537C10.4569 22.8233 10.4267 22.889 10.3847 22.9469C10.3427 23.0049 10.2897 23.054 10.2287 23.0915C10.1677 23.129 10.1 23.1541 10.0293 23.1654L6.9832 23.6513V54.3435L7.19102 55.1146L7.69961 55.5607C8.36788 55.6247 9.04211 55.581 9.69651 55.431C9.76621 55.4143 9.83851 55.4116 9.90931 55.423C9.98011 55.4343 10.0479 55.4595 10.109 55.4971C10.17 55.5347 10.223 55.584 10.265 55.6421C10.3069 55.7002 10.337 55.766 10.3535 55.8358C10.37 55.9055 10.3726 55.9779 10.3611 56.0486C10.3496 56.1194 10.3242 56.1872 10.2865 56.2481C10.2488 56.3091 10.1994 56.362 10.1412 56.4038C10.0829 56.4456 10.0171 56.4756 9.94731 56.4919C9.37321 56.6156 8.78799 56.6803 8.20078 56.6849Z" fill="#ED1E71"/>
<path d="M19.3902 19.3181C19.4886 19.1814 19.5451 19.0191 19.5531 18.8509C19.561 18.6827 19.52 18.5158 19.435 18.3704C19.35 18.2251 19.2247 18.1075 19.0742 18.0319C18.9237 17.9564 18.7545 17.9261 18.5871 17.9448C18.3952 17.9581 18.2121 18.0309 18.0635 18.1531C17.9148 18.2753 17.8079 18.4407 17.7577 18.6265C17.7075 18.8123 17.7164 19.0091 17.7832 19.1895C17.8501 19.37 17.9715 19.5251 18.1306 19.6333C18.2328 19.6996 18.3475 19.7441 18.4677 19.7641C18.5878 19.7841 18.7108 19.7791 18.8289 19.7496C18.9471 19.72 19.0579 19.6664 19.1544 19.5922C19.251 19.518 19.3313 19.4247 19.3902 19.3181Z" fill="#F5A2C5"/>
<path d="M14.008 20.0315C14.2812 19.337 13.8246 18.7562 12.9963 18.9529C12.6108 19.0445 11.9102 19.9488 12.6732 20.5042C12.7882 20.5779 12.9186 20.6243 13.0543 20.64C13.19 20.6556 13.3275 20.6401 13.4563 20.5945C13.5851 20.5489 13.7017 20.4745 13.7974 20.3769C13.893 20.2793 13.965 20.1612 14.008 20.0315Z" fill="#F5A2C5"/>
<path d="M16.737 19.5961C16.8107 19.4357 16.8328 19.2564 16.8001 19.0829C16.7674 18.9094 16.6816 18.7504 16.5545 18.6279C16.4274 18.5054 16.2654 18.4254 16.0908 18.3991C15.9163 18.3728 15.7378 18.4015 15.5803 18.4811C15.4415 18.5551 15.3229 18.6618 15.2346 18.792C15.1463 18.9221 15.091 19.0718 15.0735 19.2281C15.0559 19.3844 15.0767 19.5426 15.134 19.6891C15.1913 19.8355 15.2833 19.9659 15.4022 20.0688C15.5166 20.1448 15.6472 20.1932 15.7835 20.21C15.9198 20.2269 16.0582 20.2118 16.1877 20.1659C16.3172 20.1201 16.4342 20.0447 16.5295 19.9458C16.6249 19.8469 16.6959 19.7272 16.737 19.5961Z" fill="#F5A2C5"/>
<path d="M75.0721 60.2334L75.0513 60.2046L71.6193 57.2142L71.5913 57.1742L71.5817 57.1774L71.5769 57.147L71.5817 57.1174L71.5913 57.0966L74.6153 53.431L74.7545 53.1094L74.7705 53.0638L74.7641 53.0406L74.7777 52.9982L74.7689 52.9582L74.7241 52.7718L74.7121 52.727L74.6937 52.6926L74.6865 52.6726L74.6545 52.6382L74.6241 52.5982L74.5817 52.5622L73.3369 51.6494L73.1121 51.507L73.0785 51.4966L56.7473 47.5078L56.5025 47.5174L56.4393 47.5246L56.4081 47.5358L56.3777 47.547L56.3433 47.5686L56.2985 47.6134L56.2745 47.6422L56.2393 47.6926L56.2233 47.7302L56.2169 47.763L56.2129 47.7934L56.2161 47.8582L56.2425 48.1086L62.6017 64.0374L62.6217 64.0646L62.7905 64.2694L62.8313 64.307L64.0761 65.2206L64.1297 65.2542L64.1609 65.267L64.2065 65.283L64.2577 65.299L64.3913 65.3094L64.4449 65.299L64.4841 65.3006L64.5089 65.2942L64.5465 65.283L64.5873 65.2574L64.8689 65.063L67.8257 61.591L70.1961 63.5894L71.4409 64.503L71.4761 64.5142L71.7145 64.6086L71.7457 64.595L72.0025 64.5486L72.2265 64.3766L75.0705 61.003L75.1985 60.7502L75.1993 60.4862L75.2041 60.4558L75.0721 60.2334Z" fill="white"/>
<path d="M71.5588 57.3891C72.6794 58.3692 73.7642 59.3164 74.8471 60.2659C75.3028 60.6655 75.3166 60.9275 74.9193 61.3981C74.0731 62.4003 73.2275 63.403 72.3824 64.4061C72.0127 64.8447 71.9159 64.8661 71.4735 64.4989C70.4307 63.6338 69.3986 62.7558 68.3619 61.8834C68.2527 61.7915 68.1414 61.7019 68.012 61.5954C67.0103 62.7688 65.3958 64.6126 65.1594 64.8066C64.9963 64.5284 58.0711 48.3262 57.8057 48.0117C58.5828 48.1985 58.2459 48.116 59.0224 48.3053C63.6063 49.4232 68.1973 50.5131 72.7654 51.692C73.4606 51.9598 74.0947 52.3649 74.6299 52.8831C74.9346 53.1269 74.7296 53.4985 74.5101 53.767C73.5979 54.8828 72.6829 55.9964 71.7652 57.1077C71.703 57.1834 71.6489 57.2657 71.5588 57.3891Z" fill="#F5A2C5"/>
<path d="M64.3787 65.7872C64.3618 65.7874 64.3448 65.7867 64.3279 65.785L64.1982 65.7677C64.1865 65.7661 64.1264 65.7537 64.1146 65.7514C64.0294 65.7333 63.9475 65.7022 63.8717 65.6592C63.8623 65.6537 63.7998 65.6131 63.792 65.6069L62.5475 64.6944C62.531 64.6834 62.4756 64.6318 62.4615 64.6185L62.2514 64.3701C62.2132 64.3227 62.1809 64.2706 62.1553 64.2154L55.7959 48.2866C55.78 48.2456 55.7695 48.2028 55.7646 48.1592L55.7381 47.9092C55.7373 47.8983 55.7342 47.8217 55.7334 47.8108C55.735 47.7936 55.7436 47.6794 55.7467 47.6622C55.755 47.6227 55.7663 47.5839 55.7803 47.5459C55.7987 47.5013 55.8206 47.4581 55.8459 47.4169C55.8568 47.4021 55.9029 47.3372 55.9154 47.3239C55.969 47.2678 56.0256 47.2146 56.0849 47.1646C56.1853 47.1002 56.3025 47.067 56.4217 47.0693L56.6834 47.0319C56.7425 47.0236 56.8027 47.0268 56.8607 47.0412L73.192 51.0302C73.2535 51.0463 73.3126 51.0704 73.3678 51.1021L73.5928 51.2443L74.8654 52.1747C74.8748 52.1818 74.9263 52.2255 74.9349 52.2325C74.9768 52.2681 75.0122 52.3108 75.0396 52.3584C75.0537 52.3734 75.0668 52.3892 75.0787 52.406C75.1379 52.4929 75.1759 52.5924 75.1896 52.6966L75.2318 52.9037C75.2341 52.9162 75.2443 52.988 75.2459 53.0013C75.2616 53.1201 75.2324 53.2406 75.1638 53.3389L75.0326 53.6233C75.0151 53.6607 74.9931 53.6958 74.967 53.7279L72.1975 57.0826L75.3662 59.8428C75.393 59.8664 75.4171 59.8928 75.4381 59.9216C75.4475 59.9341 75.4771 59.9763 75.4857 59.9896L75.6029 60.1889C75.6513 60.2709 75.6789 60.3634 75.6834 60.4584L75.6818 60.738C75.6817 60.7784 75.6765 60.8186 75.6662 60.8577C75.6564 60.8955 75.6431 60.9324 75.6264 60.9678L75.4982 61.2201C75.4817 61.2534 75.4613 61.2847 75.4373 61.3131L72.5936 64.6857C72.5711 64.7122 72.546 64.7363 72.5186 64.7576L72.3451 64.8905C72.3396 64.8944 72.2834 64.9372 72.2771 64.9411C72.215 64.9847 72.1449 65.0155 72.0709 65.0318L71.8013 65.0802C71.7229 65.0954 71.6419 65.09 71.5662 65.0646L71.2654 64.9498C71.227 64.9345 71.1907 64.9144 71.1576 64.8897L69.9115 63.9764L67.8732 62.2569L65.2303 65.3638C65.2029 65.3957 65.1717 65.4241 65.1373 65.4483L64.8717 65.6311C64.818 65.6784 64.756 65.7155 64.6889 65.7404C64.6283 65.7594 64.566 65.7728 64.503 65.7803C64.4617 65.785 64.4202 65.7873 64.3787 65.7872ZM63.0201 63.7919L63.1607 63.9638L64.349 64.8255L64.5404 64.6936L67.4514 61.2732C67.5342 61.1755 67.6524 61.1146 67.7801 61.1037C67.9077 61.0929 68.0345 61.133 68.1326 61.2154L70.8912 63.5044L71.7592 64.1122L71.7881 64.1069L71.8936 64.0271L74.7233 60.5865L74.685 60.5232L71.3358 57.6108C71.3145 57.5942 71.2947 57.5758 71.2764 57.556C71.2467 57.524 71.2198 57.4896 71.1959 57.453C71.1873 57.4405 71.1795 57.428 71.1717 57.4155C71.1623 57.3991 71.1428 57.3615 71.135 57.3435C71.121 57.3104 71.1107 57.2759 71.1045 57.2404C71.0908 57.162 71.0926 57.0814 71.11 57.0036C71.1174 56.9517 71.1338 56.9015 71.1584 56.8552C71.1793 56.8169 71.205 56.7815 71.235 56.7498L71.2522 56.7247C71.2584 56.7154 71.2959 56.6678 71.303 56.6583L74.1873 53.1646L74.267 52.9913L74.2521 52.9193L72.9185 51.9529L56.7201 47.9951L56.7139 47.996L63.0201 63.7919Z" fill="#ED1E71"/>
</g>
<defs>
<clipPath id="clip0">
<rect width="78" height="66" fill="white"/>
</clipPath>
</defs>
</svg>
