<svg width="69" height="67" viewBox="0 0 69 67" fill="none" xmlns="http://www.w3.org/2000/svg">
<path d="M67.7289 52.098L67.8153 51.6948L67.3625 51.0164L67.1513 50.7444L47.3281 36.2044L46.6145 35.8404L46.2649 35.7316L45.5673 35.71L2.75288 42.538L2.08328 42.778L1.44648 43.342L0.993681 44.0812L0.863281 44.798V49.614L1.06648 49.8796L1.19688 50.5988L21.0201 65.1388L21.4809 65.8052L21.8137 65.9324L22.5441 66.278L23.2425 66.2996L23.5753 66.066L66.3889 59.238L66.9441 59.0612L67.4329 58.69L67.7289 58.1228L67.8169 57.5292V52.7132L67.7289 52.098Z" fill="white"/>
<path d="M66.939 50.6483C67.2775 50.8771 67.5545 51.1857 67.7455 51.5468C67.9365 51.908 68.0355 52.3107 68.034 52.7192C68.0454 54.1816 68.0567 55.6445 68.0327 57.1066C68.067 57.7347 67.8513 58.3507 67.4327 58.8201C67.0142 59.2896 66.4268 59.5743 65.799 59.612C62.6007 60.1095 59.4063 60.6317 56.2101 61.1425C53.0273 61.6512 49.8445 62.159 46.6614 62.666C43.4379 63.1805 40.2144 63.6951 36.9909 64.2099C33.6175 64.7468 30.2439 65.2824 26.8701 65.8167C25.7546 65.994 24.64 66.1772 23.5245 66.3543C23.3795 66.3773 23.2314 66.3801 23.0186 66.3977C23.2805 66.1325 23.4848 65.816 23.6186 65.4682C23.7525 65.1203 23.813 64.7485 23.7965 64.3762C23.7886 63.6312 23.7845 62.8859 23.7977 62.1411C23.8104 61.4282 23.9018 60.7124 23.8578 60.0042C23.7977 59.3557 23.683 58.7134 23.5148 58.0843C23.4567 57.8383 23.4836 57.7834 23.7282 57.7376C25.5553 57.3959 27.3774 57.027 29.2049 56.6876C31.091 56.3374 32.982 56.0136 34.8699 55.6732C36.3041 55.4146 37.7362 55.144 39.1706 54.8862C40.8054 54.5925 64.8334 50.5839 66.4712 50.3076L66.939 50.6483Z" fill="#B6DBA8"/>
<path d="M23.2416 66.7799H23.2267L22.5291 66.7588C22.4859 66.7572 22.4431 66.7502 22.4017 66.7377L22.0525 66.6291C22.0262 66.6207 22.0006 66.6102 21.9759 66.5979L21.2619 66.2331L1.37363 51.6526C1.3376 51.6265 1.30551 51.5955 1.27832 51.5604L1.06739 51.2885L0.593945 50.5822C0.557815 50.5282 0.533095 50.4673 0.521285 50.4033L0.391605 49.7025C0.386255 49.6737 0.383645 49.6444 0.383795 49.615V44.7986C0.383775 44.7701 0.386125 44.7416 0.390825 44.7135L0.520515 43.9963C0.527465 43.9575 0.539275 43.9197 0.555665 43.8838L0.950205 43.0986C0.982485 43.0361 1.02808 42.9814 1.0838 42.9385L1.79083 42.3971C1.8305 42.3671 1.87449 42.3434 1.92129 42.3267L2.59084 42.0869C2.61872 42.0767 2.64749 42.0691 2.67676 42.0643L45.4916 35.2361C45.5215 35.2316 45.5519 35.2297 45.5822 35.2307L46.2798 35.2525C46.323 35.254 46.3659 35.2611 46.4072 35.2736L46.7564 35.3822C46.7825 35.3905 46.8078 35.401 46.8322 35.4135L47.5462 35.7775C47.5694 35.7889 47.5913 35.8025 47.6118 35.8182L67.4353 50.358C67.4714 50.384 67.5034 50.415 67.5306 50.4502L67.7415 50.7221L68.2142 51.4291C68.2504 51.4832 68.2751 51.544 68.2869 51.608L68.4174 52.3088C68.4228 52.3377 68.4253 52.367 68.4251 52.3963V57.2119C68.4253 57.2408 68.4228 57.2695 68.4174 57.2979L68.2869 58.0151C68.2803 58.0528 68.2691 58.0895 68.2533 58.1244L67.8587 58.9127C67.8257 58.9756 67.7792 59.0305 67.7228 59.0737L67.022 59.6096C66.9816 59.6415 66.9361 59.6666 66.8876 59.6838L66.2181 59.9237C66.1902 59.9338 66.1614 59.9414 66.1321 59.9463L23.3173 66.7744C23.2923 66.7782 23.2669 66.78 23.2416 66.7799ZM22.6236 65.801L23.2111 65.819L65.937 59.0049L66.4908 58.8065L67.0573 58.3737L67.3525 57.7878L67.4659 57.169V52.4408L67.3611 51.8799L66.8142 51.0924L47.0759 36.615L46.433 36.2869L46.1845 36.2096L45.5978 36.1916L2.87207 43.0057L2.31504 43.2049L1.75254 43.6361L1.45488 44.2244L1.34316 44.8416V49.5713L1.44708 50.1314L1.99472 50.9182L21.7642 65.419L22.3744 65.7236L22.6236 65.801Z" fill="#5DA845"/>
<path d="M43.9841 38.9883L43.8401 38.3179L43.5385 37.6947L43.3633 37.2707L42.9105 36.7123L42.6113 36.3899L42.0417 35.9483L41.3825 35.6459L41.0025 35.4619L40.3177 35.3291L39.8961 35.2715L39.2433 35.3059L38.8313 35.3507L38.1849 35.4683L37.4577 35.6451L36.6601 35.8611L35.8369 36.0891L35.8329 36.0907L35.8281 36.0931L35.8241 36.0955L35.8193 36.0995L35.8153 36.1035L35.8121 36.1083L35.8089 36.1131L35.8065 36.1187L35.8049 36.1235L35.8041 36.1283L35.7225 36.8971L35.6169 37.6763L35.5129 38.4179L35.4305 39.1051L35.4121 39.7395L35.4521 40.1771L35.5961 40.8483L35.7609 41.2475L36.0729 41.8947L36.5257 42.4531L36.8257 42.7755L37.3953 43.2171L37.7993 43.4131L38.4345 43.7035L38.9025 43.7675L39.5409 43.8939L40.0249 43.8411L40.5977 43.8091L41.0473 43.6715L41.5177 43.4475L41.8585 43.3307L42.2305 43.0923L42.5897 42.8019L42.9225 42.4699L43.2161 42.1099L43.4601 41.7347L43.6441 41.3595L43.7897 40.9387L43.9401 40.4787L43.9985 40.0547L44.0241 39.4259L43.9841 38.9883Z" fill="white"/>
<path d="M42.641 36.5021C42.1644 36.0249 41.5568 35.7001 40.8953 35.5689C40.4619 35.4483 40.0093 35.4121 39.5622 35.4624C38.8761 35.56 38.207 35.7772 37.5305 35.9431C37.3511 35.9871 37.171 36.0283 36.9912 36.0708L36.9717 36.1911C37.13 36.276 37.2958 36.346 37.4671 36.4002C37.9338 36.5043 38.4089 36.5702 38.8757 36.6738C39.3764 36.7633 39.8423 36.9902 40.2214 37.3292C40.6006 37.6682 40.878 38.106 41.0227 38.5935C41.3922 39.6057 41.4975 40.6954 41.3285 41.7596C41.3158 42.1821 41.2051 42.596 41.0052 42.9685C40.8053 43.341 40.5216 43.662 40.1764 43.9061L40.2149 44.0016L42.0315 43.4576C42.0315 43.4576 45.4678 39.9969 42.641 36.5021Z" fill="#B6DBA8"/>
<path d="M39.5398 44.3737C39.5179 44.3736 39.496 44.3723 39.4742 44.3698L38.3437 44.1753C38.306 44.1682 38.2693 44.1567 38.2344 44.1409L37.1859 43.6495C37.1558 43.6348 37.1272 43.617 37.1008 43.5964L36.5312 43.1542L36.1742 42.7808L35.7 42.1972C35.6764 42.1685 35.6565 42.137 35.6406 42.1034L35.1523 41.03C35.1415 41.0036 35.1329 40.9765 35.1265 40.9487L34.9828 40.2776L34.9336 39.7839L34.95 39.0917L35.3265 36.0776C35.33 36.0486 35.3355 36.0199 35.343 35.9917C35.3518 35.9614 35.3631 35.9319 35.3766 35.9034C35.4338 35.7878 35.5309 35.6968 35.65 35.6472L38.071 35.0019L39.1906 34.8285L39.8703 34.7921C39.9003 34.7898 39.9304 34.7911 39.9601 34.7961L40.382 34.8535L41.0937 34.991C41.1311 34.998 41.1676 35.0096 41.2023 35.0254L42.2492 35.516C42.2797 35.5305 42.3085 35.5483 42.3351 35.5691L42.9046 36.0113C42.9251 36.0271 42.9442 36.0446 42.9617 36.0637L43.2617 36.3863L43.7359 36.9683C43.7595 36.997 43.7794 37.0285 43.7953 37.0621L44.2835 38.1355C44.2946 38.1618 44.3032 38.189 44.3093 38.2168L44.4539 38.8879L44.5015 39.3832L44.4781 40.0738L44.414 40.5457C44.4101 40.5738 44.4038 40.6015 44.3953 40.6285L44.0976 41.516L43.8914 41.9457L43.6179 42.3722L43.2945 42.7738L42.9273 43.1418L42.5312 43.4661L42.1163 43.7348L41.6953 43.9403L40.7374 44.2684C40.7086 44.2771 40.6791 44.2831 40.6492 44.2864L39.5695 44.3731C39.5593 44.3737 39.55 44.3737 39.5398 44.3737ZM38.582 43.2441L39.5578 43.4121L40.4992 43.3371L41.3211 43.0566L41.6515 42.8972L41.9711 42.6886L42.2875 42.4285L42.5836 42.1308L42.8429 41.8066L43.0578 41.4722L43.2125 41.1488L43.4695 40.3706L43.5234 39.9886L43.5437 39.4073L43.5062 39.0316L43.3804 38.4613L42.9554 37.53L42.2859 36.7456L41.7859 36.3581L40.8547 35.9222L39.8757 35.7534L38.8828 35.8284L38.2703 35.9409L36.2461 36.4737L35.9062 39.162L35.8914 39.7526L35.9304 40.1323L36.0562 40.7042L36.2039 41.0659L36.4804 41.6355L37.1765 42.448L37.6476 42.8065L38.582 43.2441Z" fill="#5DA845"/>
<path d="M31.3477 30.8586L31.3221 29.6818L31.0773 28.9258L30.967 28.6618L30.5805 27.9938L30.0598 27.4234L29.8613 27.2306L29.2694 26.821L29.0301 26.6834L28.4293 26.4594L28.2134 26.377L27.955 26.3106L27.663 26.2634L27.3501 26.2354L27.2269 26.2786L27.0622 26.2754L26.899 26.2834L26.7437 26.3018L26.4022 26.2818L26.1238 26.3386L25.883 26.4122L25.6886 26.5002L25.0517 26.7426L24.8486 26.8874L24.235 27.3146L24.087 27.513L23.5566 28.0986L23.163 28.7778L23.1206 29.045L22.8757 29.8082L22.8502 30.9858L22.8438 35.7322L22.8502 40.4778L22.8757 41.6546L22.9925 41.9354L23.2309 42.6754L23.6182 43.3434L23.851 43.5698L24.3365 44.1058L24.6413 44.2818L25.1677 44.6538L25.4814 44.773L25.8566 44.869L26.2429 45.0258L26.5349 45.0738L26.8477 45.101L27.1709 45.1074L27.4909 45.0914L27.7965 45.0546L28.0742 44.9986L28.515 44.8298L28.8645 44.7226L29.1462 44.5938L29.7045 44.2066L29.9629 44.0218L30.467 43.4706L30.6414 43.2378L31.0349 42.5586L31.2773 41.8114L31.3221 41.5282L31.3477 40.3506L31.3542 35.605L31.3477 30.8586Z" fill="white"/>
<path d="M26.6621 26.4564C27.4449 26.3205 28.2504 26.4248 28.9728 26.7555C29.7033 27.0621 30.3258 27.5793 30.7611 28.2411C31.1964 28.9029 31.4248 29.6794 31.417 30.4715C31.4351 34.0306 31.4078 37.5898 31.4226 41.1488C31.3844 42.0914 31.0311 42.9939 30.4193 43.712C29.8075 44.43 28.9724 44.9221 28.0479 45.1094C27.8875 45.1436 27.7232 45.1593 27.4866 45.1947C27.9284 44.9016 28.2856 44.4979 28.5228 44.0237C28.7599 43.5495 28.8686 43.0214 28.838 42.4921C28.8568 38.9467 28.8433 35.401 28.846 31.8555C28.8117 30.5244 28.3831 29.2334 27.6144 28.1462C27.2794 27.6291 27.0061 27.072 26.6621 26.4564Z" fill="#B6DBA8"/>
<path d="M27.1948 45.5867L26.4932 45.5515L25.8651 45.4242L24.9971 45.1015L24.6885 44.9304L24.0642 44.5L23.8049 44.2578L23.2635 43.6664C23.2401 43.6412 23.2196 43.6134 23.2025 43.5836L22.8158 42.9156L22.6783 42.5968L22.4189 41.8023C22.4048 41.7578 22.3971 41.7115 22.3963 41.6648L22.3705 40.4874L22.3643 35.7328L22.3963 29.7973L22.4471 29.4492L22.7073 28.6297C22.7176 28.5975 22.7312 28.5665 22.7479 28.5371L23.3471 27.5781L23.8815 26.9906C23.9038 26.9657 23.929 26.9434 23.9565 26.9242L24.7784 26.348C24.8018 26.3319 24.8267 26.3178 24.8526 26.3059L25.1346 26.1773L25.983 25.8789L26.6502 25.7684L27.0041 25.75L27.7049 25.7848L28.3331 25.9121L29.2018 26.2344L29.5104 26.4055L30.1346 26.8359L30.394 27.0785L30.9354 27.6695C30.9585 27.6951 30.9789 27.723 30.9963 27.7527L31.3831 28.4207L31.5206 28.741L31.7792 29.5336C31.794 29.5781 31.8019 29.6246 31.8026 29.6715L31.8276 30.8485V30.8578L31.8346 35.6039L31.8026 41.5383L31.7519 41.8875L31.4917 42.7071C31.4812 42.7391 31.4676 42.77 31.4511 42.7993L30.8503 43.7594L30.3183 44.3454C30.2953 44.3702 30.2699 44.3927 30.2425 44.4126L29.4198 44.9883C29.3965 45.0048 29.3717 45.0189 29.3456 45.0305L29.0636 45.1594L28.2159 45.457L27.5479 45.568L27.1948 45.5867ZM24.0065 43.057L24.6706 43.7609L25.4088 44.2375L26.3628 44.5609L26.8901 44.6227L27.1807 44.6274L27.9791 44.5281L28.9065 44.1758L29.6432 43.661L30.258 42.95L30.594 42.3633L30.8486 41.4524L30.8682 40.3406L30.8752 35.6039L30.8447 29.7625L30.5244 28.8457L30.1924 28.2797L29.5268 27.575L28.7901 27.0985L27.8354 26.7754L27.3089 26.7137L27.0182 26.7094L26.219 26.8082L25.2909 27.161L24.5557 27.6754L23.9417 28.386L23.6049 28.9731L23.3503 29.8836L23.3299 30.9961L23.3237 35.7328L23.3542 41.5742L23.6737 42.4891L24.0065 43.057Z" fill="#5DA845"/>
<path d="M52.9636 26.5811L52.906 26.1171L52.8124 25.6595L52.6868 25.2259L52.5332 24.8339L52.358 24.4971L51.978 24.0851L51.7364 23.7451L51.1892 23.3779L50.8932 23.0963L50.218 22.8299L49.8892 22.6611L49.1364 22.5371L47.9988 22.6931L47.662 22.6731L43.0828 23.3963L38.5068 24.1331L37.3756 24.3395L36.6828 24.6987L36.3916 24.8307L35.81 25.3179L35.3436 25.9235L35.1484 26.1371L34.858 26.7915L34.7316 27.0403L34.638 27.3603L34.5684 27.8995L34.5284 28.1611L34.5156 28.4539L34.5284 28.7659L34.5684 29.0859L34.6324 29.4011L34.7196 29.6995L34.8252 29.9699L35.0108 30.3659L35.186 30.7027L35.3756 30.9699L35.8076 31.4547L36.0588 31.6939L36.6508 32.1035L36.9468 32.2555L37.6548 32.5387L38.4076 32.6627L38.7428 32.6827L39.8828 32.5267L44.4604 31.8035L49.0372 31.0659L50.1692 30.8603L50.478 30.7195L51.1524 30.3691L51.7348 29.8819L51.9636 29.6307L52.3956 29.0627L52.5564 28.7467L52.6748 28.3387L52.906 27.8395L52.9636 27.4595L52.9828 27.0347L52.9636 26.5811Z" fill="white"/>
<path d="M39.4608 32.679C39.7917 32.432 40.0599 32.1108 40.244 31.7412C40.4281 31.3715 40.5228 30.9639 40.5205 30.551C40.626 29.2649 40.2881 27.9814 39.5629 26.914C39.199 26.3025 38.8523 25.6803 38.5143 25.054C38.4641 24.9735 38.436 24.8812 38.4329 24.7864C38.4299 24.6916 38.4519 24.5977 38.4969 24.5142C38.5418 24.4306 38.608 24.3605 38.6888 24.3108C38.7696 24.2611 38.8621 24.2337 38.9569 24.2313C40.0979 24.0522 41.2355 23.8511 42.3768 23.674C43.5208 23.4965 44.6683 23.3411 45.8132 23.1691C46.7445 23.0291 47.6778 22.898 48.6037 22.7275C49.4427 22.6003 50.2991 22.7868 51.0093 23.2513C51.6206 23.616 52.1313 24.1274 52.4952 24.7392C52.8591 25.3509 53.0647 26.0438 53.0935 26.755C53.1223 27.4663 52.9733 28.1734 52.6599 28.8126C52.3466 29.4518 51.8789 30.0027 51.2991 30.4156C50.5298 30.8758 49.6628 31.1478 48.7685 31.2092C45.9142 31.6614 43.0603 32.1154 40.2066 32.5713C39.9813 32.6071 39.755 32.6367 39.4608 32.679Z" fill="#B6DBA8"/>
<path d="M38.7422 33.1627L38.7141 33.1619L38.379 33.142L37.5758 33.0119C37.5416 33.0064 37.508 32.9971 37.4758 32.9842L36.4305 32.5303L35.7852 32.0885L35.4758 31.8021L35.0165 31.2892L34.7938 30.9799L34.2719 29.874L34.0977 29.1814L34.0352 28.474L34.1032 27.6822L34.1634 27.2881L34.2704 26.9053L34.7196 25.9201C34.7327 25.8942 34.7482 25.8695 34.7657 25.8463L35.4548 24.9943L36.0821 24.4627C36.1092 24.4403 36.1385 24.4208 36.1696 24.4045L37.1759 23.9025C37.212 23.886 37.2501 23.8741 37.2891 23.867L38.4204 23.6611L48.736 22.0416C48.7668 22.0376 48.798 22.0363 48.829 22.0377L49.1641 22.0576L49.9665 22.1873C50.0008 22.1928 50.0343 22.2021 50.0665 22.215L51.1126 22.6693L51.7579 23.1111L52.0665 23.3978L52.5259 23.9103L52.7485 24.2197L53.2712 25.3256L53.4462 26.017L53.5079 26.7267L53.4399 27.5185L53.3797 27.9115L53.2727 28.2943L52.8235 29.2795C52.8104 29.3054 52.7949 29.3301 52.7774 29.3533L52.0876 30.206L51.4602 30.7369C51.4333 30.759 51.4042 30.7784 51.3735 30.7947L50.3665 31.2974C50.3306 31.3138 50.2928 31.3257 50.254 31.3326L49.1227 31.5385L38.8071 33.158C38.7856 33.1612 38.7639 33.1627 38.7422 33.1627ZM37.7829 32.0733L38.7212 32.201L39.8173 32.051L50.0235 30.3986L50.8837 29.9674L51.4251 29.5135L51.6095 29.3065L51.9868 28.8076L52.372 27.9674L52.4446 27.7045L52.5485 26.7256L52.4993 26.1733L52.3634 25.6342L51.9321 24.7201L51.7759 24.5076L51.1532 23.8529L50.3774 23.3713L49.7595 23.126L48.822 22.9987L47.7267 23.1487L37.5196 24.801L36.6586 25.2322L36.1172 25.6861L35.9336 25.8924L35.5563 26.392L35.1711 27.2322L35.0985 27.4951L34.9946 28.4756L35.0446 29.0263L35.1798 29.5654L35.611 30.4806L35.7665 30.692L36.3899 31.3463L37.1657 31.8283L37.7829 32.0733Z" fill="#5DA845"/>
<path d="M20.4028 30.1757L20.3204 29.0965L20.2076 27.9221L20.0876 26.7189L20.0868 26.7181L20.086 26.7165L20.0844 26.7149L20.0812 26.7125L20.078 26.7093L20.074 26.7061L20.0692 26.7029L20.0644 26.6989L20.0596 26.6949L20.0548 26.6909L20.0508 26.6877L20.0468 26.6845L20.0436 26.6821L20.042 26.6805L20.0404 26.6797L18.9708 26.7941L17.8956 26.8845L16.8828 26.9637L15.9572 27.0485L15.1228 27.1821L14.3332 27.4661L13.6124 27.9005L12.9884 28.4677L12.4844 29.1461L12.1196 29.9101L11.9092 30.7293L11.8604 31.5733L11.9756 32.4093L12.2492 33.2045L12.6724 33.9293L12.71 33.9493L13.2276 34.5549L13.8988 35.0341L13.9084 35.0573L14.674 35.4173L14.6468 35.4197L15.4556 35.6253L16.29 35.6669L16.3404 35.6621L17.1772 35.5373L17.9732 35.2517L18.698 34.8173L19.3244 34.2501L19.8268 33.5717L20.1876 32.8085L20.3908 31.9893L20.438 31.1373L20.4028 30.1757Z" fill="white"/>
<path d="M16.8643 35.6754C17.2424 35.3725 17.5424 34.9834 17.7391 34.5407C17.9358 34.098 18.0236 33.6145 17.995 33.1309C18.0289 31.4584 17.4744 29.827 16.4283 28.5215C16.2529 28.2653 16.1158 27.9849 16.0213 27.6892C15.9288 27.4068 16.0581 27.2233 16.3846 27.1928C17.384 27.0995 18.3823 26.9935 19.381 26.8921C19.6266 26.8671 19.8721 26.8408 20.1803 26.8086C20.2887 28.093 20.4302 29.361 20.4888 30.6327C20.5223 31.2912 20.4708 31.9512 20.3357 32.5965C20.1265 33.3955 19.685 34.1145 19.0671 34.6626C18.4491 35.2106 17.6826 35.5631 16.8643 35.6754Z" fill="#B6DBA8"/>
<path d="M16.2781 36.147H16.2664L15.432 36.1056C15.4 36.1042 15.3683 36.0992 15.3374 36.0907L14.5288 35.8852C14.498 35.8774 14.4679 35.8667 14.439 35.8532L13.6867 35.4915C13.6632 35.4798 13.6038 35.447 13.5828 35.4322C13.5773 35.429 13.5132 35.3837 13.5085 35.3798L12.9335 34.9345L12.3421 34.3154C12.3351 34.3072 12.2945 34.2548 12.2882 34.2462L11.8312 33.5029C11.8195 33.4833 11.7898 33.4181 11.7812 33.3974L11.4836 32.5763C11.4727 32.5467 11.4648 32.516 11.4602 32.4849L11.3344 31.6501C11.3297 31.6189 11.3281 31.5874 11.3297 31.5559L11.3695 30.713C11.3711 30.6815 11.3758 30.6502 11.3836 30.6196L11.5875 29.8009C11.5952 29.7704 11.6056 29.7407 11.6188 29.7122L11.9789 28.9489C11.9925 28.9202 12.009 28.893 12.0281 28.8677L12.5313 28.1895C12.5497 28.1643 12.5706 28.141 12.5938 28.12L13.2195 27.5524C13.2429 27.5313 13.2683 27.5124 13.2953 27.4962L14.0203 27.0614C14.0474 27.0453 14.0759 27.0319 14.1055 27.0212L14.9016 26.7364C14.9294 26.7263 14.9582 26.7189 14.9875 26.7145L15.8305 26.5801C15.8414 26.5782 15.9039 26.5723 15.9141 26.5711L19.9891 26.2031C20.0804 26.193 20.1727 26.2097 20.2547 26.2512C20.2617 26.2563 20.325 26.2934 20.332 26.2988C20.3429 26.3074 20.3844 26.3402 20.3953 26.35C20.4182 26.3702 20.4396 26.392 20.4594 26.4153C20.4931 26.4488 20.5198 26.4888 20.5379 26.5328C20.556 26.5768 20.5651 26.6239 20.5648 26.6715L20.8812 30.1399L20.9171 31.12L20.871 32.0157C20.8691 32.0462 20.8644 32.0764 20.857 32.1059L20.6531 32.9247C20.6454 32.9552 20.635 32.9848 20.6218 33.0134L20.2617 33.7767C20.248 33.8051 20.2318 33.8323 20.2132 33.8579L19.7101 34.5364C19.6913 34.5616 19.6701 34.5849 19.6468 34.6059L19.021 35.1735C18.9975 35.1945 18.9721 35.2133 18.9453 35.2298L18.2203 35.6642C18.1934 35.6804 18.1648 35.6938 18.1351 35.704L17.339 35.9892C17.3097 36 17.2793 36.0078 17.2484 36.0126L16.4117 36.1376C16.3673 36.143 16.3227 36.1461 16.2781 36.147ZM15.5273 35.1486L16.3132 35.1876L17.0578 35.0704L17.7671 34.8165L18.4109 34.4306L18.9664 33.9267L19.4132 33.3243L19.7328 32.6466L19.9148 31.9185L19.9578 31.1119L19.9226 30.1939L19.653 27.2044L16.0015 27.5275L15.1819 27.6556L14.4734 27.9091L13.8296 28.2954L13.2734 28.7993L12.8273 29.4013L12.5077 30.079L12.3265 30.8056L12.2913 31.554L12.4023 32.295L12.6734 33.0446L13.1179 33.7431L13.5757 34.2251L14.0866 34.6138L14.8124 34.9673L15.5273 35.1486Z" fill="#5DA845"/>
<path d="M29.5468 17.7152L29.5068 17.3952L29.4428 17.08L29.3564 16.7816L29.25 16.5112L29.0644 16.1144L28.8892 15.7784L28.6996 15.5112L28.2676 15.0264L28.0164 14.7864L27.4244 14.3776L26.7492 14.1112L26.4204 13.9424L25.6676 13.8184L24.53 13.9744L19.9524 14.6976L15.3756 15.4344L14.242 15.64L13.9068 15.6208L13.214 15.9792L12.6028 16.48L12.0972 17.1032L11.8748 17.2048L11.542 17.9048L11.3892 18.0728L11.2508 18.7888L11.1636 18.96L11.0996 19.1808L11.1932 19.7384L11.1724 19.872L11.166 20.0208L11.1724 20.18L11.1932 20.3432L11.226 20.504L11.27 20.656L11.2508 20.9808L11.3564 21.2512L11.4764 21.4824L11.6076 21.6664L11.9068 22.2504L12.1044 22.4384L12.59 22.9752L13.182 23.384L13.478 23.536L14.186 23.82L14.9388 23.944L15.274 23.964L16.414 23.8072L20.9924 23.084L25.5684 22.3472L26.6996 22.1416L27.0084 22.0008L27.6836 21.6504L28.266 21.1624L28.4956 20.912L28.9268 20.344L29.0876 20.0272L29.3436 19.4408L29.4372 19.12L29.4948 18.74L29.5468 18.3192L29.5604 18.0272L29.5468 17.7152Z" fill="white"/>
<path d="M16.6513 23.8294C16.9954 23.5612 17.2582 23.2026 17.4104 22.7937C17.5626 22.3847 17.5982 21.9416 17.5131 21.5136C17.4201 20.3507 16.9434 19.2517 16.158 18.3891C15.5231 17.579 14.989 16.69 14.3594 15.7606C14.9939 15.6423 15.535 15.5327 16.0791 15.4418C17.3827 15.224 18.6872 15.0112 19.9925 14.8035C21.3007 14.5962 22.6098 14.3947 23.9198 14.1989C24.353 14.1333 24.7944 14.1093 25.2215 14.0176C25.644 13.9464 26.0765 13.9619 26.4928 14.063C26.9091 14.164 27.3006 14.3486 27.6434 14.6056C28.2384 14.9779 28.7321 15.4916 29.0804 16.101C29.4287 16.7105 29.6207 17.3966 29.6395 18.0983C29.6582 18.7999 29.5029 19.4953 29.1876 20.1225C28.8723 20.7496 28.4067 21.2889 27.8323 21.6924C27.2082 22.1002 26.4946 22.3507 25.7525 22.4226C22.8166 22.8887 19.881 23.3572 16.9458 23.8281C16.8478 23.8343 16.7494 23.8347 16.6513 23.8294Z" fill="#B6DBA8"/>
<path d="M15.2742 24.444L15.2461 24.4432L14.9109 24.4232L14.1078 24.294C14.0733 24.2881 14.0395 24.2786 14.007 24.2658L12.9625 23.8115L12.3171 23.3697L12.0078 23.0834L11.5484 22.5705L11.3257 22.2619L10.8039 21.1553L10.6289 20.4639L10.5664 19.7564L10.6351 18.9635L10.6953 18.5697L10.8023 18.1865L11.2515 17.2014C11.2646 17.1755 11.28 17.1509 11.2976 17.1279L11.9867 16.2748L12.614 15.744C12.6411 15.7217 12.6704 15.7023 12.7015 15.6861L13.7086 15.1834C13.7444 15.167 13.7822 15.1552 13.8211 15.1483L14.9523 14.9424L25.2679 13.3229C25.2988 13.3188 25.3299 13.3175 25.3609 13.319L25.6961 13.3389L26.4985 13.469C26.5327 13.4744 26.5663 13.4837 26.5985 13.4967L27.6438 13.9506L28.2891 14.392L28.5985 14.6791L29.2805 15.5006L29.8031 16.6069L29.9774 17.2994L30.0399 18.0069L29.9711 18.7998L29.9125 19.1916L29.8047 19.5756L29.3555 20.5608C29.3425 20.5869 29.327 20.6117 29.3094 20.635L28.6195 21.4873L27.993 22.0178C27.9659 22.0403 27.9366 22.06 27.9055 22.0764L26.8992 22.5784C26.8631 22.5949 26.825 22.6068 26.7859 22.6139L25.6547 22.8198L15.339 24.4393C15.3176 24.4424 15.2959 24.444 15.2742 24.444ZM14.3148 23.3549L15.2531 23.4822L16.3476 23.3322L26.5554 21.6799L27.4164 21.2487L27.957 20.7951L28.1414 20.5877L28.5188 20.0893L28.9039 19.2487L28.9766 18.9858L29.0805 18.0053L29.0305 17.4546L28.8953 16.9155L28.4633 16.0003L28.3078 15.7897L27.6852 15.1343L26.9094 14.6526L26.2914 14.4077L25.3539 14.28L24.2578 14.43L14.0515 16.0822L13.1906 16.5135L12.6492 16.9674L12.4648 17.1744L12.0891 17.6728L11.7031 18.5135L11.6305 18.7768L11.5258 19.758L11.5758 20.3088L11.7117 20.8467L12.143 21.7623L12.2984 21.9728L12.9219 22.6275L13.6976 23.1096L14.3148 23.3549Z" fill="#5DA845"/>
<path d="M42.4249 5.76289L42.4001 4.58609L42.1545 3.83009L41.7569 3.13569L41.2209 2.53009L40.5689 2.03649L40.5025 1.87729L39.7785 1.56369L39.6713 1.45889L38.9385 1.34529L38.8545 1.29729L38.7441 1.25489L38.6129 1.22129L38.4641 1.19649L38.3041 1.18289L38.1393 1.17969L37.9761 1.18769L37.8209 1.20689L37.6793 1.23489L37.5561 1.27249L37.4577 1.31809L37.3865 1.36849L36.6265 1.50449L36.5457 1.61169L35.8097 1.94689L35.1641 2.41729L34.6345 3.00289L34.5961 3.24289L34.1977 3.94929L33.9529 4.71249L33.9281 5.89009L33.9209 10.6365L33.9281 15.3821L33.9529 16.5589L34.1977 17.3149L34.3081 17.5797L34.6953 18.2477L35.2161 18.8173L35.4145 19.0101L36.0057 19.4197L36.2449 19.5581L36.5585 19.6773L37.0617 19.8637L37.3209 19.9301L37.6121 19.9781L37.9257 20.0053L38.2481 20.0117L38.5681 19.9957L38.8737 19.9589L39.1521 19.9029L39.3921 19.8293L39.9417 19.6269L40.2233 19.4981L40.7817 19.1109L41.0409 18.9261L41.5441 18.3749L41.7185 18.1421L42.1121 17.4629L42.3545 16.7157L42.4001 16.4333L42.4249 15.2557L42.4321 10.5093L42.4249 5.76289Z" fill="white"/>
<path d="M39.1709 19.9745C39.413 19.7007 39.5977 19.381 39.7139 19.0344C39.8301 18.6878 39.8755 18.3214 39.8473 17.9569C39.842 15.2399 39.859 12.5228 39.8509 9.80575C39.8477 8.74845 39.8296 7.68946 39.7637 6.63456C39.665 5.78716 39.353 4.97865 38.8567 4.28465C38.4052 3.57111 37.8769 2.90622 37.3836 2.21904C37.336 2.15214 37.2932 2.08199 37.2554 2.00909C36.992 1.5055 37.0651 1.42837 37.6173 1.35647C38.5296 1.19772 39.4688 1.3481 40.286 1.78377C40.9264 2.08533 41.4701 2.55946 41.856 3.15292C42.242 3.74638 42.4548 4.43565 42.4706 5.14335C42.5104 8.89425 42.4997 12.646 42.4616 16.3969C42.4328 16.9369 42.2828 17.4635 42.0227 17.9376C41.7627 18.4116 41.3992 18.8211 40.9593 19.1355C40.4469 19.567 39.8302 19.8563 39.1709 19.9745Z" fill="#B6DBA8"/>
<path d="M38.2719 20.4902L37.5711 20.4555L36.9429 20.3281L36.0742 20.0059L35.7656 19.8348L35.1414 19.4047C35.1191 19.3895 35.0982 19.3724 35.0789 19.3535L34.8812 19.1609L34.3406 18.5707C34.3175 18.5451 34.2971 18.5172 34.2796 18.4875L33.8929 17.8195L33.7554 17.4996L33.4968 16.7066C33.482 16.6621 33.4741 16.6156 33.4734 16.5687L33.4484 15.3918L33.4414 10.6363L33.4734 4.70193L33.5242 4.35313L33.7843 3.53403C33.7946 3.50185 33.8082 3.47082 33.8249 3.44145L34.4241 2.48207L34.9585 1.89496C34.9812 1.87005 35.0063 1.84753 35.0335 1.82776L35.8562 1.25237C35.8796 1.23591 35.9044 1.22166 35.9304 1.20979L36.2117 1.08127L37.0609 0.783237L37.7265 0.672697L38.0812 0.654297L38.7828 0.689067L39.4101 0.816407L40.2789 1.13867L40.5875 1.30977L41.2117 1.73946C41.2341 1.75467 41.255 1.77194 41.2742 1.79102L41.4719 1.98404L42.0125 2.57389C42.0353 2.59937 42.0555 2.62712 42.0726 2.6567L42.4601 3.32427L42.5984 3.64537L42.857 4.43833C42.8712 4.48283 42.8788 4.52913 42.8797 4.57583L42.9047 5.75283V5.76213L42.9125 10.5078L42.8797 16.4426L42.8289 16.7914L42.5687 17.6105C42.5584 17.6427 42.5448 17.6737 42.5281 17.7031L41.9289 18.6621L41.3945 19.2496C41.3719 19.2745 41.3468 19.297 41.3195 19.3168L40.4984 19.8922C40.4747 19.9085 40.4496 19.9227 40.4234 19.9348L40.1414 20.0633L39.293 20.3613L38.6266 20.4719L38.2719 20.4902ZM35.7195 18.6375L36.4859 19.1418L37.4406 19.4649L37.9672 19.5266L38.2578 19.5309L39.0578 19.4317L39.9843 19.0801L40.7203 18.5645L41.3344 17.8543L41.6711 17.2668L41.9258 16.3567L41.9453 15.2446L41.9531 10.5078L41.9219 4.66643L41.6023 3.74964L41.2695 3.18441L40.6336 2.50667L39.8672 2.00277L38.9133 1.67972L38.3851 1.61764L38.0961 1.61374L37.2969 1.71256L36.3695 2.06452L35.6328 2.58014L35.0188 3.28991L34.682 3.87741L34.4273 4.78793L34.4078 5.89963L34.4008 10.6364L34.4313 16.4778L34.7516 17.3942L35.0836 17.9606L35.7195 18.6375Z" fill="#5DA845"/>
<path d="M53.434 13.4613L53.3164 12.6445L53.2204 12.5197L52.9724 11.7845L52.8628 11.6613L52.7132 11.5053L52.53 11.3229L52.3524 10.8901L52.2452 10.7869L52.1284 10.6773L52.0068 10.5661L51.8844 10.4573L51.7668 10.3557L51.382 10.2741L51.1676 10.0949L50.9796 9.9429L50.8236 9.8237L50.1012 9.6733L49.9316 9.5557L49.126 9.5293L48.322 9.6661L48.162 9.5797L47.3732 9.8645L46.6524 10.2989L46.0276 10.8661L45.9556 10.8725L45.4532 11.5509L45.0924 12.3141L44.8884 13.1333L44.8428 13.9853L44.8772 14.9469L44.9596 16.0261L45.0724 17.2013L45.1916 18.3973L45.1924 18.4045L45.1956 18.4077L45.198 18.4101L45.202 18.4133L45.206 18.4165L45.2148 18.4237L45.2196 18.4277L45.2252 18.4317L45.2292 18.4349L45.2332 18.4381L45.2348 18.4389L45.238 18.4421L45.2396 18.4429L45.2292 18.4341L45.2396 18.4429L45.5828 18.4061L45.2396 18.4429L46.3164 18.3285L47.3852 18.2381L48.3972 18.1589L49.3228 18.0741L49.3732 18.0693L50.2172 17.9349L51.0132 17.6501L51.738 17.2149L52.3636 16.6477L52.866 15.9693L53.226 15.2061L53.4308 14.3877L53.3876 14.2893L53.434 13.4613Z" fill="white"/>
<path d="M50.0099 18.0378C50.2049 17.9111 50.3673 17.7403 50.484 17.5392C50.6007 17.338 50.6684 17.1123 50.6816 16.8801C50.8433 15.7562 50.731 14.6098 50.3542 13.5386C49.9021 12.4713 49.3346 11.4566 48.6617 10.5127C48.5264 10.2759 48.4314 10.0162 48.2949 9.71666C49.0449 9.54056 49.8286 9.57046 50.563 9.80326C51.2974 10.0361 51.9552 10.4631 52.4667 11.0391C52.9783 11.6152 53.3245 12.3189 53.4689 13.0756C53.6133 13.8324 53.5503 14.6141 53.2867 15.338C53.0313 16.0396 52.5927 16.66 52.0165 17.1348C51.4402 17.6095 50.7474 17.9213 50.0099 18.0378Z" fill="#B6DBA8"/>
<path d="M45.2396 18.9235C45.165 18.9235 45.0915 18.9061 45.0248 18.8727C44.9994 18.8598 44.9751 18.8449 44.9521 18.8281C44.9366 18.8172 44.9217 18.8053 44.9076 18.7926L44.8974 18.784C44.8464 18.7439 44.804 18.694 44.7727 18.6371C44.7414 18.5803 44.7219 18.5177 44.7154 18.4531L44.3982 14.984L44.3623 14.0039L44.4099 13.1078C44.4112 13.0776 44.4157 13.0476 44.4232 13.0184L44.6263 12.1996C44.6335 12.1687 44.6442 12.1386 44.6583 12.1102L45.0193 11.3469C45.0327 11.3186 45.0487 11.2915 45.0669 11.266L45.5701 10.5875C45.589 10.5624 45.6102 10.5392 45.6333 10.518L46.2591 9.95077C46.2825 9.92957 46.3079 9.91077 46.3349 9.89447L47.0591 9.45977C47.0861 9.44347 47.1146 9.43007 47.1443 9.41947L47.9404 9.13437C47.97 9.12367 48.0006 9.11607 48.0318 9.11167L48.8693 8.98707C48.9166 8.97827 48.9649 8.97497 49.013 8.97727L49.8474 9.01867C49.8793 9.02027 49.911 9.02497 49.942 9.03277L50.7513 9.23827C50.7823 9.24597 50.8125 9.25697 50.8412 9.27107L51.5927 9.63237C51.6287 9.65007 51.6637 9.66977 51.6974 9.69137C51.7013 9.69407 51.7248 9.71007 51.7451 9.72457C51.7552 9.73117 51.7654 9.73827 51.7748 9.74567L52.3466 10.1887L52.7935 10.6539L52.7966 10.657L52.9357 10.8062C52.9451 10.8164 52.9865 10.8707 52.9951 10.882L53.4482 11.6211C53.4584 11.6379 53.4873 11.7004 53.4959 11.7183L53.7959 12.548C53.8068 12.5775 53.8147 12.608 53.8193 12.639L53.9451 13.4734C53.9498 13.5046 53.9513 13.5361 53.9498 13.5676L53.9099 14.4106C53.9084 14.4421 53.9037 14.4733 53.8959 14.5039L53.692 15.3227C53.6843 15.3531 53.6738 15.3828 53.6607 15.4113L53.3006 16.175C53.2869 16.2034 53.2707 16.2305 53.2521 16.2559L52.7498 16.934C52.7308 16.9594 52.7093 16.983 52.6857 17.0043L52.0592 17.5719C52.0362 17.593 52.011 17.6118 51.9842 17.6278L51.26 18.0622C51.233 18.0784 51.2045 18.0919 51.1748 18.1024L50.3787 18.3876C50.3508 18.3976 50.322 18.4051 50.2928 18.4098L49.449 18.5442C49.4381 18.5458 49.3772 18.5516 49.3662 18.5528L45.2904 18.9208C45.2736 18.9227 45.2566 18.9235 45.2396 18.9235ZM45.3654 13.2055L45.3209 14.0125L45.3568 14.9297L45.6263 17.9195L49.2787 17.5965L50.0982 17.4684L50.8068 17.2145L51.4498 16.8285L52.006 16.3246L52.4521 15.7227L52.7717 15.0445L52.9529 14.318L52.9881 13.5695L52.8763 12.8289L52.6068 12.0785L52.1177 11.3348L52.0967 11.3133L51.7037 10.8981L51.1904 10.5075L51.1888 10.5059L50.4677 10.1566L49.7521 9.97497L48.9661 9.93597L48.2216 10.0536L47.5122 10.3075L46.8693 10.6934L46.313 11.1973L45.8669 11.8L45.5466 12.4774L45.3654 13.2055Z" fill="#5DA845"/>
<path d="M29.9566 5.91803L29.8126 5.24683L29.5102 4.62443L29.3358 4.20043L28.883 3.64204L28.3078 3.19404L28.0134 2.87804L27.3542 2.57564L26.6318 2.42524L25.8726 2.43084L25.5814 2.29004L24.8782 2.48364L24.5966 2.44524L24.2726 2.48044L23.7886 2.82924L23.5454 2.90364L23.291 3.02524L23.035 3.18924L22.7878 3.38924L22.5582 3.61804L22.3558 3.86604L22.1878 4.12443L22.0606 4.38283L21.9798 4.63163L21.647 5.09643L21.6006 5.43003L21.4102 6.04043L21.4446 6.41243L21.4246 7.10683L21.5686 7.77723L21.7326 8.17723L22.0454 8.82443L22.4974 9.38283L22.7982 9.70523L23.3678 10.1468L23.771 10.3428L24.4062 10.6332L25.091 10.766L25.5126 10.8236L26.1654 10.7892L26.5774 10.7444L27.2238 10.6268L27.951 10.45L28.7478 10.234L29.5718 10.0052L29.5758 10.0044L29.5798 10.002L29.5846 9.99883L29.5886 9.99563L29.5934 9.99163L29.5966 9.98683L29.5998 9.98203L29.6022 9.97643L29.6038 9.97163L29.6046 9.96683L29.6862 9.19803L29.7806 8.50043L29.8502 8.01003L29.8958 7.67723L29.9782 6.99003L29.9966 6.35563L29.9566 5.91803Z" fill="white"/>
<path d="M26.9925 10.7078C27.2061 10.4294 27.3625 10.1115 27.4525 9.77227C27.5425 9.43317 27.5643 9.07957 27.5169 8.73187C27.4582 7.31877 26.9615 5.95897 26.0955 4.84077C25.6188 4.21067 25.1244 3.59384 24.6373 2.9716C24.4178 2.69123 24.4882 2.52498 24.8319 2.45421C25.4364 2.30979 26.0655 2.30205 26.6734 2.43156C27.2813 2.56106 27.8526 2.82454 28.3458 3.20281C29.0197 3.70357 29.534 4.38897 29.8264 5.17607C30.1188 5.96307 30.1767 6.81807 29.9932 7.63737C29.8828 8.35847 29.8075 9.08497 29.7039 9.80737C29.689 9.91097 29.6239 10.0703 29.5488 10.0927C28.7239 10.3383 27.8924 10.5617 27.0626 10.7912L26.9925 10.7078Z" fill="#B6DBA8"/>
<path d="M25.5124 11.303C25.4908 11.3029 25.4692 11.3014 25.4477 11.2987L24.3148 11.1041C24.2773 11.097 24.2409 11.0853 24.2062 11.0694L23.1578 10.5787C23.1277 10.564 23.0992 10.5464 23.0726 10.526L22.5031 10.0842L22.1461 9.70915L21.6718 9.12635C21.6483 9.09775 21.6283 9.06645 21.6125 9.03295L21.1242 7.95915C21.1132 7.93275 21.1046 7.90545 21.0984 7.87755L20.9547 7.20645L20.9062 6.71185L20.9304 6.02045L20.9929 5.55015C20.9971 5.52195 21.0036 5.49405 21.0125 5.46695L21.3101 4.57865L21.5179 4.14825L21.7898 3.72322L22.114 3.32126L22.4796 2.9529L22.8765 2.62907L23.2913 2.35994L23.7132 2.15486L24.6702 1.82673C24.6991 1.81791 24.7286 1.81175 24.7585 1.80833L25.8382 1.722C25.8697 1.71953 25.9015 1.72058 25.9328 1.72513L27.0655 1.91966C27.103 1.92679 27.1395 1.93846 27.1741 1.95442L28.2226 2.44583C28.2527 2.46024 28.2814 2.47778 28.3078 2.49818L28.8773 2.93997C28.8976 2.95596 28.9166 2.97346 28.9343 2.99231L29.2343 3.31458L29.7077 3.89739C29.7313 3.92609 29.7513 3.95757 29.7672 3.99114L30.2554 5.06415C30.2663 5.09045 30.275 5.11765 30.2812 5.14545L30.4258 5.81655L30.4741 6.31185L30.4577 7.00325L30.0821 10.0174C30.0788 10.0496 30.0721 10.0814 30.0625 10.1123C30.0547 10.1299 30.0187 10.2166 30.0086 10.233C29.9944 10.2559 29.9789 10.2779 29.9618 10.2986C29.9366 10.3285 29.9082 10.3556 29.8773 10.3795C29.8252 10.4119 29.7706 10.4401 29.7141 10.4639L27.3375 11.0928L26.2179 11.2662L25.5375 11.3021L25.5124 11.303ZM24.5539 10.1725L25.532 10.3412L26.525 10.2666L27.1382 10.1541L29.1593 9.62125L29.5015 6.93265L29.5164 6.34155L29.4781 5.96115L29.3523 5.39085L28.9273 4.45885L28.2585 3.67521L27.7585 3.28732L26.8265 2.85138L25.8508 2.68302L24.9086 2.75802L24.0875 3.03771L23.7562 3.19747L23.4367 3.40646L23.1203 3.66583L22.825 3.96427L22.564 4.28805L22.3508 4.62165L22.1945 4.94705L21.9383 5.72405L21.8859 6.10565L21.864 6.68805L21.9023 7.06265L22.0281 7.63335L22.1758 7.99515L22.4523 8.56465L23.1492 9.37795L23.6195 9.73575L24.5539 10.1725Z" fill="#5DA845"/>
</svg>
