<svg width="67" height="68" viewBox="0 0 67 68" fill="none" xmlns="http://www.w3.org/2000/svg">
<path d="M64.9171 25.4618L64.7891 24.597L64.7083 24.3314L64.5187 23.697L64.2659 23.2946L63.9643 22.9178L63.5611 22.545L63.1051 22.2106L62.6491 21.8762L62.1939 21.5418L61.7387 21.2082L61.2827 20.8738L60.8267 20.5394L60.3715 20.205L59.9155 19.8714L59.4603 19.537L59.0043 19.2026L58.5483 18.8682L58.0931 18.5346L57.6379 18.2002L57.1819 17.8658L56.7259 17.5314L56.2707 17.1978L55.8147 16.8634L55.3595 16.529L54.9035 16.1946L54.4475 15.861L53.9923 15.5266L53.5371 15.1922L53.1083 14.9546L52.6971 14.7978L52.3267 14.749H51.8523L51.3459 14.8298L50.8395 14.9106L50.3323 14.9914L49.8259 15.0722L49.3195 15.153L48.8123 15.2338L48.3059 15.3146L47.7995 15.3954L47.2923 15.4762L46.7859 15.557L46.2795 15.6378L45.7723 15.7186L45.2659 15.7994L44.7595 15.8802L44.2531 15.961L43.7459 16.0418L43.2395 16.1226L42.7331 16.2034L42.2811 16.3506L41.9395 16.6322L41.7155 16.8362L41.5883 17.141L41.4147 17.5858L41.2875 18.3834L41.2451 19.437V20.6186V21.801V22.9826V24.165V25.3466V26.529V27.7106V28.893V30.0746V31.257V32.4386V33.6202V34.8026V35.985V37.1666V38.3482V39.5306V40.7122L41.2875 41.789L41.4147 42.6538L41.5883 43.189L41.6859 43.5538L41.9387 43.9562L42.2403 44.333L42.6435 44.7058L43.0995 45.0402L43.5547 45.3746L44.0099 45.709L44.4659 46.0426L44.9219 46.377L45.3779 46.7114L45.8331 47.0458L46.2883 47.3794L46.7443 47.7138L47.2003 48.0482L47.6555 48.3826L48.1107 48.7162L48.5667 49.0506L49.0227 49.385L49.4787 49.7194L49.9339 50.053L50.3891 50.3874L50.8451 50.7218L51.3011 51.0562L51.7563 51.3898L52.2115 51.7242L52.6675 52.0586L53.0955 52.2962L53.5067 52.4538L53.8779 52.5018H54.3515L54.8587 52.421L55.3651 52.3402L55.8163 52.193L56.1579 51.9114L56.3819 51.7082L56.5107 51.4026L56.6827 50.9578L56.8099 50.161L56.8163 50.0106L59.2211 49.6266L59.4067 49.7626L59.8627 50.097L60.3187 50.4314L60.7747 50.7658L61.2027 51.0034L61.6131 51.1602L61.9843 51.209H62.4579L62.9651 51.1282L63.4715 51.0474L63.9235 50.9002L64.2643 50.6186L64.4883 50.4146L64.6163 50.1098L64.7891 49.665L64.9171 48.8674L64.9595 47.8138V46.6322V45.4498V44.2682V43.0858V41.9042V40.7218V39.5402V38.3578V37.1762V35.9938V34.8122V33.6306V32.4482V31.2666V30.0842V28.9026V27.7202V26.5386L64.9171 25.4618Z" fill="white"/>
<path d="M54.2897 52.6053C54.5011 52.3935 54.6637 52.1382 54.766 51.857C54.8684 51.5759 54.9081 51.2758 54.8824 50.9777C54.9243 43.2121 54.9511 35.4464 54.9628 27.6806C55.0054 26.5374 54.672 25.4117 54.0137 24.4761C53.5438 23.9234 52.9919 23.4461 52.3773 23.0609C49.9653 21.2667 47.5376 19.4936 45.1143 17.7146C44.5305 17.286 43.9415 16.8642 43.249 16.3626C43.4949 16.2728 43.7465 16.1997 44.0022 16.1436C44.516 16.0724 45.0375 16.0537 45.5491 15.9715C46.066 15.8884 46.5715 15.7347 47.0882 15.6491C47.4913 15.5824 47.9057 15.5863 48.3116 15.5323C48.5545 15.5 48.7882 15.4021 49.0306 15.3606C49.2452 15.324 49.4695 15.3429 49.6837 15.3045C49.9759 15.2522 50.2607 15.1596 50.552 15.101C50.8902 15.0331 51.2312 14.9778 51.5724 14.9269C52.0185 14.8656 52.4724 14.8971 52.9058 15.0193C53.3392 15.1416 53.7426 15.352 54.0909 15.6373C57.1463 17.8974 60.2009 20.1592 63.2899 22.3728C63.8408 22.7596 64.2857 23.2784 64.584 23.8818C64.8822 24.4852 65.0242 25.1538 64.9969 25.8264C65.0331 29.1326 65.0301 32.4393 65.0296 35.7459C65.0289 40.0469 65.0176 44.3479 64.9957 48.6489C64.9721 49.1311 64.8854 49.6082 64.7378 50.0678C64.6602 50.3449 64.5027 50.593 64.285 50.7812C64.0673 50.9693 63.799 51.0892 63.5136 51.1258C63.175 51.194 62.8312 51.2365 62.4436 51.2979C62.8704 50.7594 63.075 50.0781 63.0155 49.3935C63.0572 41.9509 63.0919 34.5081 63.0803 27.0655C63.1481 26.1437 63.032 25.2176 62.7388 24.3411C62.3884 23.4573 61.7898 22.6937 61.0152 22.1425C59.4596 21.0363 57.9339 19.8882 56.3899 18.7657C55.1542 17.8671 53.9354 16.9411 52.6569 16.1074C52.0879 15.7641 51.4658 15.5174 50.8161 15.3775C50.4011 15.3174 49.9788 15.4172 49.6347 15.6567C49.2905 15.8962 49.0502 16.2575 48.9623 16.6675C48.9084 16.9296 48.8234 17.1842 48.7093 17.4261C48.5663 17.7212 48.6913 17.7485 48.937 17.7214C49.398 17.6339 49.8665 17.5928 50.3356 17.5986C50.7284 17.6414 51.1037 17.7841 51.4258 18.013C54.493 20.2359 57.5479 22.4758 60.5904 24.7326C60.6616 24.7918 60.7202 24.8649 60.7625 24.9474C60.8047 25.0298 60.8299 25.12 60.8365 25.2124C60.8483 33.1807 60.8545 41.1491 60.8549 49.1174C60.8553 49.4274 60.7534 49.9056 60.5052 49.9436C59.4128 50.111 58.2904 49.8791 57.1969 50.0383C56.9682 50.0716 56.8916 50.1471 56.8618 50.3774C56.8119 50.7207 56.7332 51.0591 56.6263 51.389C56.5509 51.6404 56.4081 51.8664 56.2136 52.0426C56.019 52.2188 55.78 52.3384 55.5223 52.3886C55.1404 52.4834 54.7459 52.5272 54.2897 52.6053Z" fill="#8FB8E2"/>
<path d="M47.9316 16.0126L53.0964 14.4502L64.6164 23.1742V51.211L61.4132 50.9582L60.5028 50.1446L60.7764 24.355L48.198 17.4254L47.9316 16.0126Z" fill="#8FB8E2"/>
<path d="M54.0121 52.9836C53.8071 52.9854 53.6025 52.9647 53.4019 52.9219C52.7809 52.7002 52.2042 52.3698 51.6988 51.9461L44.6371 46.7633C44.3285 46.525 44.0105 46.2984 43.6902 46.0703C43.0677 45.6473 42.4734 45.1841 41.9113 44.6836C41.6683 44.4007 41.4503 44.0972 41.2597 43.7765C41.1879 43.5906 41.1277 43.4004 41.0793 43.207C41.0379 43.0554 40.9988 42.9078 40.9691 42.8312C40.8402 42.1335 40.7717 41.4259 40.7644 40.7164V37.1648C40.7769 34.7398 40.7699 32.3054 40.7621 29.8687C40.7504 26.0937 40.7379 22.1906 40.8066 18.3742L40.9402 17.5094C40.9486 17.4599 40.9644 17.412 40.9871 17.3672C41.0168 17.3078 41.059 17.1891 41.1043 17.068C41.1585 16.9115 41.2213 16.7581 41.2926 16.6086C41.3052 16.5841 41.3201 16.5608 41.3371 16.5391C41.4627 16.3971 41.604 16.2697 41.7582 16.1594C41.8308 16.1024 41.9012 16.05 41.9441 16.0078C41.989 15.9632 42.0424 15.9282 42.1012 15.9047C42.5326 15.7554 42.9794 15.6545 43.4332 15.6039L50.7636 14.4359C52.1628 14.1781 52.9613 14.0922 54.291 15.15L63.3886 21.8234C63.8342 22.0851 64.2223 22.434 64.5299 22.8492C64.8374 23.2644 65.058 23.7374 65.1785 24.2398C65.4006 25.1946 65.4876 26.1757 65.4371 27.1547L65.4386 46.6312C65.4355 46.8398 65.4363 47.0492 65.4371 47.264C65.5345 48.4146 65.3542 49.5718 64.9113 50.6383C64.8823 50.6938 64.8425 50.743 64.7941 50.7828C64.7347 50.8328 64.6683 50.8929 64.5988 50.9547C64.4668 51.0742 64.3261 51.1984 64.205 51.2867L64.1996 51.2789C64.0141 51.3724 63.82 51.4474 63.6199 51.5031L63.3098 51.5594C62.7191 51.6949 62.1083 51.7185 61.509 51.6289C60.8086 51.3646 60.1593 50.9808 59.5902 50.4945C59.4277 50.3703 59.266 50.2468 59.1051 50.1312L57.2504 50.4257L57.1558 51.0335C57.1478 51.0818 57.1328 51.1286 57.1113 51.1726C57.0808 51.2328 57.0387 51.3507 56.9941 51.471C56.9396 51.6282 56.8764 51.7824 56.8051 51.9327C56.7771 51.9858 56.7391 52.033 56.6933 52.0718L56.5246 52.2202C56.384 52.346 56.2285 52.4827 56.1035 52.5765C56.0617 52.6079 56.0149 52.6322 55.9652 52.6484L55.5137 52.796L55.1988 52.853C54.8075 52.9291 54.4106 52.9727 54.0121 52.9836ZM41.8785 17.725L41.7605 18.4586C41.698 22.1985 41.7105 26.0961 41.7222 29.8657C41.7293 32.3047 41.7371 34.7422 41.7238 37.168L41.7246 38.8071L41.7238 40.7125C41.7309 41.3282 41.7841 41.9424 41.8832 42.55C41.9311 42.6824 41.9718 42.8172 42.0051 42.9539C42.0496 43.1164 42.0934 43.2844 42.1285 43.3703C42.2756 43.5988 42.4363 43.8182 42.6098 44.0274C43.13 44.4799 43.6768 44.901 44.2473 45.2883C44.5778 45.5242 44.9059 45.7578 45.2153 45.9969L52.2739 51.1766C52.6826 51.5211 53.1446 51.7969 53.6419 51.993C54.1099 52.0421 54.5828 52.0128 55.0411 51.9063L55.2903 51.8657L55.5848 51.7641C55.6794 51.6883 55.7872 51.5922 55.8872 51.5031L55.9903 51.4125C56.0215 51.3383 56.0575 51.2359 56.0942 51.1375C56.138 51.0187 56.1817 50.9031 56.2176 50.8187L56.3356 50.0843L56.3372 50.0492C56.3339 50.013 56.335 49.9765 56.3403 49.9406C56.3919 48.1312 56.3825 46.1882 56.3731 44.3078C56.3677 43.1383 56.3622 41.9742 56.3723 40.8289V29.5476C56.3747 28.6281 56.377 27.5851 56.3309 26.782C56.27 26.5304 56.0325 25.3929 56.0325 25.3929C55.8521 24.7039 55.1083 24.1679 54.452 23.6953L47.0567 18.2734C46.9471 18.2023 46.8675 18.0933 46.8333 17.9672C46.8134 17.8971 46.8091 17.8234 46.8207 17.7515C46.8323 17.6796 46.8595 17.611 46.9005 17.5508C47.0185 17.4039 47.0185 17.4039 48.6294 17.1484C49.213 17.0562 49.77 16.9679 49.845 16.9547C49.8799 16.9487 49.9152 16.9459 49.9505 16.9461C50.0096 16.9455 50.0687 16.95 50.1271 16.9594L50.2825 16.9797C50.4394 16.9876 50.5947 17.0159 50.7442 17.064C51.3396 17.2875 51.3989 17.3195 51.4849 17.4078L61.0606 24.4234C61.1215 24.4678 61.171 24.526 61.2051 24.5932C61.2392 24.6605 61.2569 24.7348 61.2567 24.8101V50.4797C61.4176 50.57 61.5866 50.645 61.7614 50.7039C62.2268 50.7505 62.6968 50.7196 63.1521 50.6125L63.3958 50.5726L63.6927 50.4703C63.7771 50.4039 63.8692 50.3203 63.9575 50.2406C64.0067 50.1961 64.0559 50.1523 64.1021 50.1117C64.427 49.2007 64.5548 48.2312 64.4771 47.2672C64.4763 47.0461 64.4755 46.8297 64.4794 46.6234L64.4771 27.1531C64.5233 26.2531 64.4466 25.3511 64.2489 24.4719C64.1515 24.0821 63.9763 23.7161 63.7336 23.3958C63.491 23.0756 63.1861 22.8078 62.8372 22.6086L53.7074 15.9125C52.6871 15.1 52.2566 15.1367 50.9262 15.382L43.5762 16.5531C43.2229 16.5958 42.8738 16.6677 42.5324 16.7679C42.4793 16.8133 42.416 16.864 42.3496 16.9156C42.2801 16.9695 42.1715 17.0547 42.1168 17.1062C42.084 17.1804 42.0441 17.2929 42.0043 17.4015C41.9598 17.5219 41.9144 17.639 41.8785 17.725ZM59.2207 49.1469C59.3168 49.1466 59.4108 49.1755 59.4902 49.2297C59.7176 49.3836 59.9441 49.5562 60.173 49.7312C60.2144 49.7632 60.2558 49.7945 60.2973 49.8258V25.0531L50.8574 18.1297C50.8191 18.1156 50.5707 18.0242 50.4519 17.9797L50.4324 17.9726L50.1441 17.9297C50.084 17.9211 50.0285 17.9125 49.9832 17.9047H49.9644C49.798 17.9351 49.4707 17.9875 48.7801 18.0969C48.6863 18.1117 48.5926 18.1265 48.4996 18.1414L55.0129 22.9164C55.906 23.4196 56.5967 24.2174 56.9668 25.1734C56.9715 25.1961 57.209 26.3289 57.2793 26.6531C57.3371 27.5586 57.3348 28.6164 57.3324 29.5492L57.3316 40.8328C57.3223 41.9781 57.3277 43.1383 57.3332 44.3031C57.341 45.9984 57.3496 47.7437 57.3098 49.4445L59.1449 49.1523C59.17 49.1486 59.1953 49.1468 59.2207 49.1469Z" fill="#0055BA"/>
<path d="M34.6842 14.527L34.6658 14.2822L34.4106 13.8998L34.1786 13.6494L33.6658 13.403L33.329 13.1558L32.9922 12.9094L32.6562 12.6622L32.3194 12.415L31.9826 12.1686L31.6458 11.9214L31.309 11.6742L30.9722 11.4278L30.6362 11.1806L30.2994 10.9334L29.9626 10.687L29.6258 10.4398L29.289 10.1926L28.9522 9.94619L28.589 9.75659L27.757 9.69419L27.0778 9.73979V8.12938V3.8742L27.001 3.5134L26.7834 3.2102L26.457 3.0094L26.281 2.7638L25.9322 2.7478L25.5842 2.5854L25.0802 2.4806L24.4986 2.4502L23.9266 2.4982L23.4514 2.6174L23.1458 2.7894L22.7842 2.8166L22.6714 3.0662L22.3458 3.27579L22.1274 3.58619L22.0514 3.9494V8.20459V10.3238L21.0106 10.4894L19.6426 10.7078L18.2746 10.9254L16.9066 11.1438L15.5386 11.3622L14.9178 11.4614V10.0686V5.81339L14.841 5.45259L14.6234 5.14939L14.417 4.8614L14.1218 4.7038L13.6842 4.49979L13.4242 4.5246L12.921 4.4206L12.3386 4.3894L11.7666 4.4374L11.2914 4.5566L10.9858 4.7286L10.6242 4.7558L10.5114 5.00539L10.1858 5.21579L9.96736 5.52539L9.89136 5.88859V10.1438V12.263L8.69856 12.4534L7.33056 12.671L5.96256 12.8894L4.72176 13.1238L3.73457 13.391L3.00497 13.695L3.06017 13.8278L2.55857 14.2222L2.30257 14.6742L2.21777 15.1758V15.7006V16.2262V16.7518V17.2766V17.8022V18.3278L2.30257 18.8054L2.53297 19.0518L2.78977 19.4374L3.12657 19.6846L3.46337 19.931L3.80017 20.1782L4.13616 20.4254L4.47296 20.6718L4.51056 20.699L4.53216 21.883L4.58416 23.3934L4.67056 24.9286L4.81456 26.4806L5.03856 28.043L5.36576 29.607L5.81856 31.1678L6.12496 31.495L6.71856 32.9254L7.49216 34.1294L7.90576 34.4334L8.31936 34.7366L8.73376 35.0406L9.14736 35.3438L9.56096 35.6478L9.97536 35.951L10.8714 36.755L11.2898 36.9454L12.4194 37.3142L13.7674 37.379L14.2914 37.3278V41.759V48.4566V55.155L14.6106 55.7038L14.9218 56.8414L15.7578 57.2694L16.409 57.9118L17.361 58.1294L18.4842 58.2054L19.6074 58.1294L20.5594 57.9118L21.1962 57.5862L22.0466 56.8414L22.3402 56.3366L22.677 55.155V48.4566V41.759V36.0582L23.545 35.9198L25.1426 35.6646L26.6282 35.3366L27.8898 34.8622L28.9538 34.1862L29.8466 33.2526L30.5818 32.0606L31.1714 30.6094L31.625 29.0294L31.9522 27.4502L32.177 25.8782L32.321 24.3206L32.4074 22.7814L32.4594 21.2678L32.485 19.9102L33.3514 19.6678L33.8578 19.439L33.9634 19.3918L34.4314 19.0454L34.6842 18.639L34.7682 18.1526V17.6278V17.1022V16.5766V16.0518V15.5262V15.0006L34.6842 14.527Z" fill="white"/>
<path d="M31.2982 30.5224C31.8115 28.9245 32.1389 27.2727 32.2738 25.5998C32.4033 23.8532 32.4712 22.1018 32.5482 20.3517C32.5598 20.0888 32.6137 19.9575 32.8913 19.8923C33.2409 19.8077 33.5808 19.687 33.9054 19.5322C34.1668 19.4439 34.3951 19.2782 34.56 19.057C34.7249 18.8358 34.8185 18.5697 34.8285 18.294C34.8325 17.1141 34.8222 15.9342 34.7975 14.7543C34.7813 14.5362 34.7127 14.3253 34.5976 14.1393C34.4826 13.9534 34.3243 13.7979 34.1364 13.6861C32.8024 12.7147 31.4694 11.742 30.1374 10.768C29.4959 10.1754 28.6663 9.82743 27.794 9.78523C27.5778 9.77583 27.3626 9.74943 27.1505 9.70613C27.1505 9.54283 27.1505 9.39493 27.1505 9.24713C27.1507 7.58123 27.1443 5.91523 27.1542 4.24931C27.1762 3.94353 27.0989 3.63883 26.9339 3.38047C26.7689 3.1221 26.525 2.92385 26.2383 2.81516C25.3122 2.48966 24.3092 2.45206 23.3613 2.70729C23.2673 2.74418 23.1827 2.80163 23.1138 2.87543C23.0449 2.94923 22.9934 3.03751 22.963 3.13381C22.9346 3.22507 23.1458 3.41817 23.2807 3.52501C23.4152 3.61132 23.5606 3.67933 23.7131 3.72724C24.1651 3.88861 24.6068 4.0778 25.0354 4.29373C25.1474 4.36043 25.2447 4.44919 25.3214 4.55462C25.3981 4.66006 25.4525 4.77997 25.4814 4.90709C25.5498 5.60903 25.5805 6.31423 25.5731 7.01953C25.583 8.98373 25.5769 10.9481 25.5757 12.9125C25.5757 13.0446 25.5647 13.1768 25.5589 13.3074C24.6998 13.4716 23.8133 13.4199 22.9791 13.157C22.3708 12.9648 22.0634 12.8614 22.1144 11.9886C22.1438 11.4853 22.1198 10.9789 22.1198 10.4454L14.9905 11.578V11.0956C14.9905 9.44213 14.9848 7.78853 14.9936 6.13503C15.0089 5.88563 14.9545 5.63693 14.8365 5.41673C14.7185 5.19643 14.5414 5.01343 14.3253 4.88811C13.32 4.41192 12.1712 4.33602 11.112 4.67581C11.0294 4.71094 10.9556 4.76387 10.8958 4.83081C10.836 4.89776 10.7917 4.97708 10.766 5.06313C10.7387 5.15193 10.8898 5.36113 11.0077 5.41723C11.4503 5.62803 11.9134 5.79523 12.3665 5.98443C12.7841 6.15883 13.277 6.29163 13.3316 6.83373C13.3984 7.49663 13.41 8.16693 13.4133 8.83413C13.4229 10.8233 13.4167 12.8125 13.4167 14.8017V15.2318C12.5442 15.3953 11.6453 15.3488 10.7943 15.0961C10.2204 14.872 9.90525 14.8031 9.95475 13.9408C9.98375 13.4357 9.96005 12.9276 9.96005 12.3854C8.82335 12.5654 7.73155 12.7248 6.64495 12.9147C5.80165 13.0622 4.96225 13.2315 4.12685 13.4227C3.68704 13.5229 3.64159 13.7464 3.95167 14.0693C4.00845 14.1354 4.07085 14.1964 4.13825 14.2515C4.76625 14.708 5.40095 15.1553 6.02535 15.6165C6.82785 16.2093 7.65535 16.7746 8.40865 17.4252C8.82735 17.8553 9.33735 18.1858 9.90105 18.3921C10.7254 18.6274 10.9094 19.2581 10.8848 20.0255C10.8633 20.6962 10.8799 21.3681 10.8804 22.0394C10.8486 22.5395 11.0119 23.0324 11.3358 23.4147C11.8823 23.3318 12.4366 23.2606 12.9852 23.159C13.2556 23.109 13.3418 23.1878 13.3457 23.4562C13.3612 24.5211 13.3892 25.5859 13.4177 26.6505C13.4376 27.3921 13.4548 28.1341 13.4933 28.875C13.5586 30.1316 13.6099 31.3902 13.7231 32.6429C13.8311 33.8366 14.0244 35.0224 14.1511 36.2147C14.1938 36.6158 14.3171 37.0507 13.9546 37.4056L13.9982 37.4901L20.0562 36.5883C20.0562 36.7954 20.0568 36.9422 20.0561 37.0889C20.0315 42.419 20.007 47.7491 19.9827 53.0791C19.9786 53.9991 19.9909 54.9193 19.9791 55.8391C19.9658 56.8783 19.7636 57.8208 18.6282 58.2727C18.9702 58.2491 19.3143 58.2427 19.6537 58.1992C20.0866 58.1779 20.511 58.0704 20.902 57.8832C21.2929 57.696 21.6427 57.4327 21.9308 57.1088C22.2188 56.7848 22.4395 56.4067 22.5797 55.9966C22.72 55.5864 22.7772 55.1524 22.7478 54.7199C22.751 48.9139 22.7521 43.1079 22.7511 37.3019C22.7513 36.9209 22.6426 36.4164 22.839 36.1934C23.0381 35.9673 23.5534 36.0213 23.9295 35.949C24.8681 35.7686 25.8078 35.5934 26.7432 35.3978C26.9002 35.365 27.112 35.3576 27.1133 35.073C27.1162 34.4421 27.1688 33.8117 27.1787 33.1807C27.1642 32.9064 27.2092 32.6322 27.3105 32.3769C27.4118 32.1216 27.5671 31.8912 27.7656 31.7014C27.9642 31.5116 28.2014 31.367 28.4611 31.2774C28.7207 31.1878 28.9967 31.1553 29.27 31.1821L31.2982 30.5224Z" fill="#8FB8E2"/>
<path d="M18.5174 58.6848L17.3283 58.6082L16.3025 58.3801C16.2636 58.3713 16.2259 58.3577 16.1904 58.3395L15.5541 58.0137C15.5235 57.9981 15.4947 57.9792 15.4682 57.9574C15.0625 57.709 14.7154 57.3757 14.4507 56.9805C14.186 56.5852 14.0101 56.1373 13.935 55.6676L13.8295 55.2848C13.8177 55.2425 13.8116 55.1989 13.8115 55.1551L13.8119 45.5598L13.8115 37.3184C13.8116 37.1911 13.8623 37.0691 13.9523 36.9792C14.0423 36.8892 14.1644 36.8387 14.2916 36.8387C14.3546 36.8387 14.417 36.851 14.4753 36.8751C14.5335 36.8992 14.5864 36.9345 14.631 36.9791C14.6756 37.0236 14.7109 37.0765 14.7351 37.1347C14.7592 37.1929 14.7717 37.2553 14.7717 37.3184V55.0902L14.8611 55.4145C14.9089 55.7795 15.0398 56.1288 15.2438 56.4353C15.4478 56.7418 15.7194 56.9974 16.0377 57.1825L16.5744 57.4575L17.4678 57.6614L18.5174 57.727L19.5748 57.6504L20.3928 57.4582L20.9244 57.1863L21.6713 56.5324L21.8947 56.1481L22.1971 55.0879V36.0582C22.1971 35.9309 22.2476 35.8088 22.3377 35.7187C22.4277 35.6287 22.5498 35.5781 22.6771 35.5781C22.8045 35.5781 22.9266 35.6287 23.0166 35.7187C23.1066 35.8088 23.1572 35.9309 23.1572 36.0582V55.1551C23.1572 55.1997 23.151 55.2441 23.1389 55.2871L22.8018 56.4691C22.7909 56.5074 22.7752 56.5442 22.7549 56.5785L22.4616 57.0832C22.4353 57.1281 22.4019 57.1685 22.3627 57.2027L21.512 57.9473C21.4825 57.9735 21.4498 57.9958 21.4147 58.0137L20.7784 58.3395C20.7428 58.3576 20.7052 58.3713 20.6663 58.3801L19.7143 58.5973L18.5174 58.6848Z" fill="#0055BA"/>
<path d="M14.5892 23.2953C14.4686 23.295 14.3525 23.2493 14.2641 23.1674C14.1756 23.0854 14.1213 22.9731 14.1118 22.8529C14.1024 22.7327 14.1385 22.6134 14.2131 22.5186C14.2876 22.4238 14.3951 22.3605 14.5142 22.3414L28.2118 20.1562C28.3375 20.1365 28.4658 20.1675 28.5686 20.2423C28.6715 20.3171 28.7405 20.4296 28.7604 20.5552C28.7804 20.6808 28.7497 20.8092 28.6751 20.9122C28.6005 21.0152 28.4881 21.0845 28.3626 21.1047L14.6657 23.2898C14.6404 23.2936 14.6148 23.2954 14.5892 23.2953Z" fill="#ED1E71"/>
<path d="M13.3483 37.8417C13.0206 37.8426 12.6932 37.826 12.3674 37.7917C12.3346 37.7878 12.3023 37.7808 12.2709 37.7706L11.1408 37.4018C10.6735 37.1972 10.2378 36.9271 9.84667 36.5995C9.69507 36.4839 9.54707 36.3706 9.40217 36.2714C8.61707 35.7257 7.86966 35.1277 7.16496 34.4815C4.32716 31.1784 4.15606 25.4495 4.03106 21.2667L4.01386 20.6964C4.01026 20.5694 4.05727 20.4462 4.14437 20.3538C4.23157 20.2614 4.35176 20.2073 4.47876 20.2034C4.60566 20.1994 4.72906 20.246 4.82176 20.3328C4.91436 20.4197 4.96886 20.5397 4.97316 20.6667L4.99086 21.2378C5.11116 25.2776 5.27637 30.8104 7.85647 33.8175C8.51537 34.4156 9.21246 34.9704 9.94316 35.4784C10.1018 35.587 10.2639 35.7104 10.4291 35.8362C10.7425 36.1014 11.0899 36.3236 11.4619 36.4972L12.5205 36.8425C14.0481 36.9068 15.5778 36.78 17.074 36.4651L23.4693 35.4456C24.916 35.2958 26.336 34.953 27.6916 34.4261L28.6463 33.8128L29.4693 32.9526C31.756 29.4433 31.8791 24.7097 31.9881 20.5315L32.0049 19.8971C32.0107 19.7707 32.0653 19.6515 32.1572 19.5645C32.2492 19.4775 32.3713 19.4295 32.4978 19.4307C32.5608 19.4325 32.6229 19.4466 32.6804 19.4723C32.738 19.498 32.7899 19.5348 32.8332 19.5806C32.8765 19.6264 32.9104 19.6802 32.9328 19.7391C32.9553 19.798 32.966 19.8607 32.9642 19.9237L32.9474 20.5565C32.8353 24.8768 32.708 29.7745 30.2478 33.5167C30.2317 33.5408 30.2136 33.5636 30.1935 33.5847L29.3006 34.5183C29.2738 34.546 29.2438 34.5704 29.2111 34.5909L28.1474 35.2675C26.6955 35.8528 25.1689 36.2323 23.6119 36.3948L17.2299 37.4128C15.9497 37.6605 14.6516 37.8039 13.3483 37.8417Z" fill="#0055BA"/>
<path d="M14.917 11.9409C14.7963 11.9408 14.6801 11.8952 14.5915 11.8132C14.5029 11.7313 14.4484 11.6189 14.439 11.4986C14.4295 11.3783 14.4657 11.2588 14.5404 11.164C14.6151 11.0692 14.7228 11.006 14.842 10.987L21.9752 9.84954C22.1008 9.82984 22.2292 9.86084 22.332 9.93564C22.4349 10.0104 22.5038 10.1229 22.5238 10.2485C22.5438 10.3741 22.5131 10.5025 22.4385 10.6055C22.3639 10.7085 22.2515 10.7777 22.126 10.7979L14.9928 11.9354C14.9677 11.9392 14.9423 11.941 14.917 11.9409Z" fill="#0055BA"/>
<path d="M9.60367 23.9376C9.15417 23.9437 8.70547 23.8968 8.26697 23.7977C8.23317 23.7899 8.20037 23.7781 8.16927 23.7626L7.98847 23.6759C7.58247 23.5033 7.20027 23.2796 6.85097 23.0103L3.51497 20.5657C3.38021 20.4587 3.24584 20.3641 3.10873 20.2681C2.77018 20.0509 2.46111 19.791 2.1892 19.4946L1.90364 19.0727C1.8732 19.0271 1.85074 18.9767 1.83724 18.9235C1.77755 18.6529 1.7385 18.3782 1.72044 18.1016C1.722 17.8344 1.72124 17.536 1.72044 17.2415L1.72005 16.5079C1.72669 16.3016 1.72318 16.0969 1.71966 15.8868C1.68985 15.3694 1.72251 14.8503 1.81692 14.3407C1.82862 14.2893 1.84882 14.2402 1.87669 14.1954L2.12904 13.7891C2.16098 13.7379 2.20233 13.6931 2.25091 13.6571L2.71849 13.3103C3.63674 12.8835 4.61447 12.5985 5.61817 12.4649L5.87447 12.4181L9.81577 11.7891C9.94157 11.7693 10.0701 11.8001 10.1731 11.875C10.2761 11.9499 10.3451 12.0626 10.365 12.1884C10.3849 12.3141 10.354 12.4427 10.2792 12.5457C10.2043 12.6487 10.0916 12.7177 9.96577 12.7376L5.79117 13.4095C4.90987 13.5261 4.04887 13.7643 3.23296 14.1173L2.89741 14.3712L2.73648 14.6306C2.67687 15.0412 2.65777 15.4568 2.67945 15.8712C2.68335 16.097 2.68687 16.3181 2.67984 16.5259L2.68064 17.2384C2.68144 17.5368 2.68224 17.8384 2.68025 18.0907C2.69537 18.2663 2.71936 18.441 2.75212 18.6141L2.95681 18.9204C3.1709 19.1319 3.40672 19.3201 3.66032 19.4821C3.81462 19.5907 3.9654 19.697 4.09937 19.804L7.45097 22.2618C7.74457 22.482 8.06367 22.6658 8.40137 22.8095L8.54047 22.8759C9.62037 23.0215 10.717 22.9883 11.7862 22.7775C12.203 22.7071 12.7916 22.615 13.3577 22.5259L26.8409 20.3759C27.4776 20.2634 28.1459 20.1626 28.8221 20.0618C30.3041 19.8739 31.7721 19.5886 33.2166 19.2079L33.7205 18.9759L34.0713 18.715L34.2346 18.4525C34.2848 18.1201 34.3028 17.7836 34.2881 17.4478C34.2869 17.3243 34.2861 17.2048 34.2877 17.0954V15.5235C34.3021 15.1717 34.2778 14.8193 34.2154 14.4727C34.1178 14.3106 34.0032 14.1592 33.8736 14.0212C33.8143 13.9759 33.7021 13.8954 33.5873 13.8126C33.4455 13.7102 33.3002 13.6048 33.2107 13.5352L29.7826 11.0204C29.503 10.7959 29.2027 10.5984 28.8857 10.4306L28.4369 10.2165C28.0048 10.1313 27.5643 10.0959 27.124 10.111C27.0613 10.1172 26.998 10.111 26.9377 10.0928C26.8773 10.0745 26.8212 10.0445 26.7725 10.0046C26.7237 9.96456 26.6834 9.91536 26.6537 9.85976C26.624 9.80416 26.6055 9.74326 26.5993 9.68056C26.5932 9.61786 26.5994 9.55446 26.6178 9.49416C26.6361 9.43386 26.6661 9.37776 26.7062 9.32906C26.7462 9.28046 26.7954 9.24006 26.851 9.21046C26.9066 9.18076 26.9676 9.16236 27.0303 9.15626C27.5839 9.13126 28.1386 9.17476 28.6815 9.28596C28.7205 9.29376 28.7585 9.30636 28.7944 9.32346L29.2881 9.55866C29.6674 9.75266 30.0259 9.98476 30.3581 10.2516L33.7893 12.7696C33.8827 12.8415 34.0178 12.9392 34.1495 13.0345C34.2717 13.1227 34.3913 13.2087 34.4694 13.2681C34.7001 13.4888 34.8998 13.7398 35.0631 14.0142C35.0947 14.0627 35.1181 14.116 35.1327 14.172C35.2283 14.625 35.2669 15.0882 35.2475 15.5509L35.2483 17.4407C35.2708 17.8836 35.2369 18.3275 35.1475 18.7618C35.1351 18.8078 35.1162 18.8517 35.0913 18.8923L34.8389 19.2993C34.8071 19.3507 34.7657 19.3955 34.717 19.4313L34.2495 19.7782C34.2211 19.7999 34.1901 19.818 34.1573 19.8321L33.5487 20.1063C32.0431 20.5127 30.5114 20.815 28.9643 21.011C28.2971 21.111 27.637 21.2094 27.0006 21.3227L13.5064 23.4743C12.9439 23.5626 12.3592 23.6548 11.9334 23.7259C11.1626 23.8501 10.3842 23.9208 9.60367 23.9376Z" fill="#0055BA"/>
<path d="M24.4566 13.7478C24.1082 13.7524 23.7601 13.7233 23.4172 13.6611L22.7664 13.5267C22.7362 13.5201 22.7066 13.5107 22.6781 13.4986C22.6402 13.4829 22.4988 13.4165 22.3598 13.3509C22.2434 13.2955 22.1289 13.2415 22.0934 13.2259C21.9882 13.1807 21.9028 13.0992 21.8527 12.9962L21.8523 12.997C21.8228 12.9631 21.795 12.9276 21.7691 12.8908C21.6988 12.7962 21.6367 12.7041 21.625 12.6822C21.5891 12.6137 21.5703 12.5376 21.5703 12.4603V3.95017C21.6219 3.47768 21.8117 3.03091 22.116 2.66579C22.1575 2.61889 22.2076 2.58043 22.2637 2.55251C22.3332 2.51811 22.4453 2.45331 22.5602 2.38691C22.7137 2.29862 22.8711 2.20878 22.9621 2.16581C23.452 2.01791 23.9586 1.93234 24.4699 1.91113C24.9788 1.91787 25.4853 1.98128 25.9801 2.10019L26.2281 2.21113C26.4336 2.308 26.6934 2.43144 26.8258 2.51193C26.8806 2.54511 26.9281 2.58894 26.9656 2.64083L27.3906 3.23458C27.4294 3.28824 27.4564 3.34947 27.4699 3.41427L27.5465 3.77521C27.5539 3.80907 27.5574 3.84366 27.557 3.87833C27.552 4.44864 27.5543 5.74785 27.5567 6.99315C27.5583 8.09785 27.5602 9.16035 27.557 9.63615V12.3846C27.5569 12.4734 27.5323 12.5605 27.4859 12.6362C27.4731 12.6643 27.4555 12.7073 27.4387 12.7487C27.4054 12.8523 27.3538 12.9492 27.2863 13.0346C27.2513 13.0744 27.2099 13.1079 27.1637 13.1338L26.6543 13.4213C26.618 13.4416 26.5793 13.4573 26.5391 13.4682L25.7469 13.6666C25.3188 13.7186 24.8879 13.7457 24.4566 13.7478ZM23.0121 12.597L23.6129 12.7213C24.2633 12.812 24.9231 12.8131 25.5738 12.7244L26.2387 12.5533L26.5539 12.3759C26.5695 12.3377 26.5836 12.3041 26.5969 12.2728V9.63295C26.6004 9.15485 26.5985 8.09625 26.5965 6.99465C26.5941 5.78295 26.5922 4.51888 26.5965 3.92279L26.541 3.69622L26.248 3.28763C26.1285 3.22435 25.9594 3.14545 25.8199 3.0806L25.6336 2.99153C25.2526 2.91986 24.8664 2.87936 24.4789 2.87045C24.0877 2.8899 23.6998 2.95146 23.3219 3.05404C23.2961 3.06966 23.1664 3.14545 23.0394 3.21884C22.9496 3.27041 22.8609 3.32118 22.7875 3.36182C22.65 3.55312 22.5606 3.77474 22.527 4.0079L22.5402 12.3181C22.5609 12.3462 22.582 12.3759 22.602 12.4033C22.652 12.4267 22.7109 12.4548 22.77 12.483C22.8633 12.5267 22.957 12.5713 23.0121 12.5971V12.597Z" fill="#0055BA"/>
<path d="M12.5521 15.699L11.5189 15.6498L10.6104 15.4662C10.5718 15.4583 10.5343 15.446 10.4986 15.4295L9.91925 15.1599C9.85555 15.1296 9.79925 15.0855 9.75445 15.031C9.73765 15.0107 9.68135 14.9326 9.62355 14.8498C9.58215 14.7904 9.53875 14.7279 9.51965 14.7029C9.45265 14.6157 9.41465 14.5097 9.41105 14.3998C9.40945 13.2701 9.41025 11.8404 9.41145 10.3928C9.41265 8.78572 9.41385 7.15682 9.41105 5.88962C9.46245 5.41762 9.65215 4.97135 9.95635 4.60684C9.99515 4.5629 10.0417 4.52637 10.0936 4.49902C10.1521 4.46778 10.2432 4.41543 10.3408 4.35918C10.5127 4.25998 10.7029 4.15215 10.8057 4.1045C11.2945 3.95769 11.7997 3.87239 12.3096 3.85059C12.8179 3.85397 13.3242 3.91717 13.8178 4.03887C13.8416 4.0459 13.9217 4.08106 13.9439 4.09122C14.1514 4.18809 14.5037 4.35371 14.6643 4.44981C14.7185 4.48259 14.7658 4.52557 14.8037 4.57637L15.1818 5.10452C15.3982 5.28102 15.4205 5.62712 15.399 9.61932C15.3979 9.85842 15.3967 10.0177 15.3974 10.0537C15.4002 10.492 15.3986 11.2436 15.3974 12.0209C15.3958 12.9029 15.3939 13.8178 15.3978 14.3201C15.3982 14.3893 15.3838 14.4577 15.3556 14.5209L15.2072 14.8514C15.1651 14.9455 15.0939 15.0235 15.0041 15.074L14.4947 15.3608C14.4586 15.3809 14.4201 15.3967 14.3802 15.4076L13.5881 15.606C13.5612 15.6132 13.5337 15.6176 13.506 15.6193L12.5521 15.699ZM10.8568 14.5373L11.6389 14.6998L12.5393 14.7412L13.3889 14.6662L14.0799 14.4928L14.3955 14.3154L14.4373 14.2224C14.4342 13.7021 14.4357 12.8467 14.4373 12.0193C14.4389 11.2451 14.44 10.4951 14.4377 10.0709C14.4373 10.0678 14.4377 9.89042 14.4393 9.61462C14.4514 7.36072 14.4389 6.03342 14.4017 5.66392L14.0893 5.22792C13.9318 5.14352 13.6904 5.03262 13.5389 4.96154C13.1389 4.87706 12.7325 4.82637 12.324 4.80998C11.9314 4.82949 11.5421 4.89104 11.1627 4.99357C11.1232 5.01542 10.9643 5.10762 10.8197 5.19122C10.7513 5.23032 10.6861 5.26782 10.6307 5.29902C10.4922 5.49062 10.402 5.71282 10.3678 5.94672C10.3736 7.15602 10.3724 8.78572 10.3717 10.3935C10.3705 11.7756 10.3697 13.1404 10.3709 14.2435L10.4111 14.3006L10.4416 14.3435L10.8568 14.5373Z" fill="#0055BA"/>
<path d="M50.6486 40.4511L50.5206 39.5863L50.4398 39.3199L50.2502 38.6863L49.9974 38.2839L49.6966 37.9063L49.2926 37.5335L48.8374 37.1999L48.3814 36.8655L47.9254 36.5311L47.4694 36.1967L47.015 35.8631L46.559 35.5287L46.103 35.1943L45.647 34.8599L45.1918 34.5263L44.7366 34.1919L44.2806 33.8575L43.8246 33.5231L43.3686 33.1895L42.9142 32.8551L42.4582 32.5207L42.0022 32.1863L41.5462 31.8527L41.091 31.5183L40.6358 31.1839L40.1798 30.8495L39.7238 30.5159L39.2678 30.1815L38.8398 29.9439L38.4286 29.7863L38.0582 29.7383H37.5846L37.0782 29.8191L36.571 29.8999L36.0638 29.9807L35.5574 30.0615L35.051 30.1423L34.5446 30.2231L34.0374 30.3039L33.531 30.3847L33.0246 30.4655L32.5174 30.5463L32.011 30.6271L31.5046 30.7079L30.9974 30.7887L30.491 30.8695L29.9846 30.9503L29.4774 31.0311L28.971 31.1119L28.4646 31.1927L28.0126 31.3399L27.6718 31.6215L27.4478 31.8247L27.3198 32.1303L27.147 32.5751L27.019 33.3719L26.9766 34.4263V35.6079V36.7903V37.9719V39.1543V40.3359V41.5175V42.6999V43.8815V45.0639V46.2455V47.4279V48.6095V49.7919V50.9735V52.1559V53.3375V54.5199V55.7015L27.019 56.7775L27.147 57.6423L27.2278 57.9087L27.4174 58.5431L27.6702 58.9455L27.9718 59.3223L28.375 59.6951L28.831 60.0295L29.2862 60.3639L29.7422 60.6975L30.1974 61.0319L30.6534 61.3663L31.1094 61.7007L31.5646 62.0343L32.0206 62.3687L32.4758 62.7031L32.9318 63.0375L33.387 63.3711L33.843 63.7055L34.2982 64.0399L34.7542 64.3743L35.2102 64.7079L35.6654 65.0423L36.1206 65.3767L36.5766 65.7111L37.0326 66.0447L37.4886 66.3791L37.9438 66.7135L38.399 67.0479L38.8278 67.2855L39.2382 67.4423L39.6102 67.4911H40.0838L40.5902 67.4103L41.0966 67.3295L41.5478 67.1815L41.8894 66.9007L42.1134 66.6967L42.2414 66.3911L42.4142 65.9471L42.5422 65.1495L42.5486 64.9991L44.9534 64.6159L45.139 64.7519L45.5942 65.0863L46.0502 65.4207L46.5062 65.7551L46.9342 65.9927L47.3454 66.1495L47.7158 66.1983H48.1894L48.6966 66.1175L49.2038 66.0367L49.655 65.8887L49.9966 65.6079L50.2206 65.4039L50.3486 65.0983L50.5206 64.6543L50.6486 63.8567L50.691 62.8031V61.6207V60.4391V59.2575V58.0751V56.8935V55.7111V54.5295V53.3471V52.1655V50.9831V49.8015V48.6191V47.4375V46.2551V45.0735V43.8911V42.7095V41.5271L50.6486 40.4511Z" fill="white"/>
<path d="M29.5638 31.22C29.4719 31.2735 27.8021 31.7538 27.6855 31.8218C27.7765 31.9261 38.1097 39.1065 38.428 39.4977C39.0841 40.3042 40.2801 40.8568 40.2785 41.9081C40.2673 49.4546 40.2633 57.0011 40.2664 64.5477C40.2662 64.9578 40.2707 65.37 40.2333 65.7775C40.2826 66.4251 40.1123 67.0704 39.75 67.6094C40.1565 67.554 40.4799 67.5008 40.8052 67.4672C41.971 67.347 42.4019 66.6975 42.5545 65.6402C42.6374 65.0656 42.6342 65.0651 43.2094 64.9817C43.2463 64.9763 43.2838 64.9749 43.3206 64.969C44.3985 64.7959 45.4763 64.6223 46.5835 64.4442V64.0928C46.5835 56.136 46.5853 48.1792 46.5889 40.2224C46.5955 40.1197 46.574 40.017 46.5268 39.9256C46.4795 39.8341 46.4082 39.7572 46.3206 39.7032C43.421 37.5867 35.0753 32.5065 37.6383 33.3312C39.7697 34.5088 41.8024 35.8569 43.7165 37.3621C45.1855 38.4704 46.5793 39.269 46.5889 40.2224C46.7387 55.1463 42.5506 64.901 47.2764 65.9983C50.0905 66.6517 49.7228 54.0749 49.7228 39.3073C49.7657 38.7986 39.0127 31.3454 39.3613 30.9076C39.5634 30.6538 35.7445 30.4954 35.943 30.2753C35.959 30.2753 35.9219 30.2708 35.8862 30.2759C34.7852 30.4319 33.6847 30.5919 32.5831 30.7439C32.2541 30.7894 31.9197 30.7978 31.5922 30.8507L29.5638 31.22Z" fill="#8FB8E2"/>
<path d="M47.5345 66.1906C47.8507 65.5252 47.9941 64.7909 47.9516 64.0555C47.97 63.7705 47.9673 63.484 47.9678 63.1982C47.9803 55.9267 47.9921 48.6552 48.0031 41.3836C48.0579 40.5945 47.9838 39.8017 47.7836 39.0364C47.559 38.2505 47.0798 37.5614 46.4212 37.0772C44.8742 35.9796 43.362 34.8329 41.8241 33.7221C40.456 32.734 39.0904 31.7403 37.6851 30.8072C37.2477 30.5168 36.4222 30.6356 35.9152 30.4515C35.8025 30.4105 35.9459 30.1668 35.8271 30.0622C36.4386 29.9649 37.0503 29.8676 37.6618 29.7704C37.9107 29.7543 38.1603 29.789 38.3954 29.8723C38.6305 29.9557 38.8462 30.0859 39.0294 30.2552C42.1777 32.5328 45.3147 34.826 48.4403 37.135C48.8636 37.4374 49.2503 37.788 49.5927 38.1797C50.0733 38.8795 50.3298 39.7089 50.3284 40.5579C50.3485 40.7558 50.3577 40.9547 50.3558 41.1537C50.357 48.4758 50.353 55.7978 50.3436 63.1199C50.316 63.7501 50.2161 64.375 50.0462 64.9825C49.9809 65.2316 49.8447 65.4563 49.6539 65.6292C49.4631 65.8022 49.2261 65.9159 48.9719 65.9565C48.5213 66.0617 48.0568 66.1081 47.5345 66.1906Z" fill="#8FB8E2"/>
<path d="M39.746 67.9735C39.5405 67.9752 39.3353 67.9545 39.1343 67.9117C38.5119 67.6895 37.9341 67.358 37.428 66.9328L30.3694 61.7531C30.0601 61.5141 29.7417 61.2875 29.4206 61.0594C28.7987 60.6367 28.2051 60.1737 27.6437 59.6735C27.4009 59.3905 27.183 59.087 26.9925 58.7664C26.9202 58.5797 26.8596 58.3887 26.8108 58.1945C26.7698 58.0445 26.7315 57.8969 26.7011 57.8211C26.5729 57.1235 26.5044 56.4163 26.4964 55.707V52.1555C26.5097 49.7274 26.5022 47.2899 26.4944 44.85C26.4827 41.0781 26.4706 37.1774 26.539 33.3641L26.673 32.4992C26.6807 32.4496 26.6964 32.4016 26.7194 32.357C26.7491 32.2985 26.7909 32.1805 26.8354 32.0594C26.8904 31.9022 26.9536 31.7481 27.0249 31.5977C27.0378 31.5741 27.0527 31.5516 27.0694 31.5305C27.195 31.3876 27.3367 31.2596 27.4917 31.1492C27.5643 31.0922 27.6339 31.0398 27.6765 30.9984C27.7215 30.9539 27.7751 30.9188 27.8339 30.8953C28.2629 30.7468 28.707 30.6462 29.1581 30.5953L36.4968 29.4258C37.8945 29.1687 38.6921 29.082 40.0234 30.1406L49.121 36.8133C49.5665 37.0753 49.9545 37.4244 50.262 37.8397C50.5695 38.255 50.7902 38.728 50.9109 39.2305C51.133 40.1849 51.22 41.1659 51.1695 42.1445L51.1711 61.6219C51.1679 61.8297 51.1687 62.0391 51.1695 62.2531C51.2662 63.4038 51.0865 64.561 50.6452 65.6281C50.616 65.6839 50.5759 65.7333 50.5273 65.7734C50.4679 65.8234 50.4007 65.8836 50.3312 65.9453C50.1992 66.0641 50.0593 66.1883 49.939 66.2766C49.8977 66.3069 49.8518 66.3304 49.8031 66.3461L49.3523 66.493L49.0406 66.55C48.4506 66.6865 47.84 66.7098 47.2414 66.6188C46.5394 66.3546 45.8891 65.9699 45.3195 65.482C45.1578 65.3578 44.9976 65.2359 44.8375 65.1211L42.9835 65.4164L42.8882 66.0242C42.8804 66.0721 42.8654 66.1184 42.8437 66.1617C42.814 66.2219 42.7726 66.3383 42.728 66.4578C42.6724 66.6165 42.6085 66.7722 42.5366 66.9242C42.5086 66.9766 42.471 67.0233 42.4257 67.0617L42.2655 67.2032C42.1226 67.3305 41.9632 67.4712 41.8358 67.5664C41.794 67.5978 41.7473 67.6221 41.6976 67.6383L41.246 67.786L40.939 67.8422C40.5456 67.9185 40.1466 67.9624 39.746 67.9735ZM27.6104 32.7148L27.4929 33.4484C27.4307 37.1852 27.4428 41.0797 27.4546 44.8468C27.462 47.289 27.4698 49.7296 27.4565 52.1586V55.7031C27.4636 56.3184 27.5168 56.9324 27.6155 57.5398C27.6633 57.6714 27.7038 57.8054 27.737 57.9414C27.7815 58.1047 27.8253 58.2727 27.8612 58.3594C28.0075 58.5885 28.1679 58.8082 28.3417 59.0172C28.8618 59.4688 29.4079 59.8896 29.9772 60.2773C30.3089 60.5133 30.6374 60.7477 30.9468 60.9867L38.003 66.1641C38.4122 66.5101 38.8754 66.7867 39.3741 66.9828C39.8445 67.0324 40.3198 67.0028 40.7804 66.8953L41.0218 66.8555L41.3171 66.7539C41.414 66.6765 41.5249 66.5765 41.6273 66.4859L41.7218 66.4031C41.7538 66.3273 41.7905 66.2234 41.828 66.1234C41.8718 66.0062 41.9147 65.8921 41.9499 65.8085L42.0687 65.0734L42.0703 65.0406C42.067 65.0041 42.068 64.9674 42.0734 64.9312C42.1249 63.1218 42.1156 61.1781 42.1062 59.2976C42.1007 58.1281 42.0953 56.964 42.1054 55.8187V44.5375C42.1077 43.618 42.1101 42.575 42.064 41.7719C42.003 41.5219 41.7656 40.3821 41.7656 40.3821C41.5859 39.6961 40.8437 39.161 40.189 38.6891L32.7355 33.2352C32.6776 33.1953 32.6292 33.1432 32.5937 33.0825C32.5582 33.0218 32.5364 32.9541 32.5301 32.8841C32.5237 32.8141 32.5328 32.7435 32.5568 32.6774C32.5807 32.6113 32.6189 32.5513 32.6687 32.5016C32.7808 32.3891 32.7808 32.3891 34.3964 32.1336C34.982 32.0406 35.5335 31.9531 35.5851 31.9445C35.614 31.9399 35.6406 31.9391 35.675 31.9367C35.7367 31.9361 35.7983 31.9406 35.8593 31.95L36.0148 31.9703C36.1717 31.9782 36.3269 32.0066 36.4765 32.0547C37.0671 32.275 37.1281 32.3078 37.2132 32.3938L46.7937 39.4141C46.8546 39.4585 46.9041 39.5167 46.9381 39.5839C46.9722 39.6511 46.9899 39.7254 46.9898 39.8008V65.4711C47.1505 65.5607 47.3192 65.6353 47.4937 65.6938C47.9583 65.7404 48.4274 65.7098 48.882 65.6031L49.1289 65.5625L49.425 65.4609C49.5093 65.3937 49.6015 65.3101 49.6906 65.2305C49.7406 65.1859 49.789 65.143 49.8351 65.1023C50.1586 64.1905 50.2861 63.2207 50.2093 62.2562C50.2085 62.0351 50.2077 61.8203 50.2117 61.614L50.2093 42.1437C50.2556 41.2438 50.1788 40.3417 49.9812 39.4625C49.8855 39.0719 49.7109 38.705 49.4681 38.3845C49.2253 38.0639 48.9195 37.7964 48.5695 37.5984L39.4405 30.9031C38.4179 30.0899 37.9897 30.1266 36.6593 30.3719L29.3022 31.5445C28.9513 31.5875 28.6044 31.659 28.2651 31.7586C28.212 31.8039 28.1483 31.8539 28.0823 31.9055C28.0124 31.9602 27.903 32.0453 27.8491 32.0969C27.8163 32.1711 27.7761 32.2844 27.7358 32.3938C27.6913 32.5133 27.6468 32.6297 27.6104 32.7148ZM44.9538 64.1367C45.0502 64.1365 45.1444 64.1654 45.2241 64.2195C45.4499 64.3734 45.6749 64.5453 45.9023 64.7195C45.9452 64.7515 45.9874 64.7844 46.0304 64.8172V40.0438L36.5905 33.1195C36.5507 33.1055 36.2788 33.0055 36.1671 32.9641L35.8765 32.9203C35.814 32.911 35.7554 32.9016 35.7093 32.8945C35.5616 32.9203 35.2515 32.9695 34.5464 33.0813C34.4421 33.0985 34.3362 33.1149 34.2319 33.1313L40.7507 37.9102C41.6416 38.413 42.3305 39.2093 42.6999 40.1633C42.7054 40.1867 42.9405 41.3188 43.0116 41.6414C43.0702 42.5485 43.0679 43.6062 43.0655 44.5398L43.0647 55.8226C43.0553 56.9679 43.0608 58.1281 43.0663 59.2929C43.0741 60.9883 43.0827 62.7344 43.0429 64.4351L44.878 64.1422C44.9031 64.1384 44.9285 64.1366 44.9538 64.1367Z" fill="#0055BA"/>
</svg>
