<svg width="50" height="50" viewBox="0 0 50 50" fill="none" xmlns="http://www.w3.org/2000/svg">
<path d="M24.9984 5C21.0428 5.00032 17.1761 6.17361 13.8873 8.3715C10.5985 10.5694 8.03525 13.6932 6.5218 17.3478C5.00834 21.0025 4.6126 25.0238 5.38462 28.9034C6.15664 32.783 8.06175 36.3465 10.859 39.1433C13.6563 41.9401 17.2201 43.8446 21.0998 44.616C24.9795 45.3874 29.0008 44.991 32.6552 43.477C36.3096 41.9629 39.4329 39.3992 41.6303 36.11C43.8277 32.8209 45.0003 28.954 45 24.9983C44.9935 19.6959 42.884 14.6125 39.1343 10.8634C35.3846 7.1143 30.3009 5.00563 24.9984 5Z" fill="#8FB8E2"/>
<path d="M25 35H42.3281C41.5849 36.2198 41.1311 36.8767 40.2031 38H25V35Z" fill="#0055BA"/>
<path fill-rule="evenodd" clip-rule="evenodd" d="M25 38C32.1797 38 38 32.1797 38 25C38 17.8203 32.1797 12 25 12C17.8203 12 12 17.8203 12 25C12 32.1797 17.8203 38 25 38ZM28.3863 18.9389C28.2249 23.4944 21.657 23.4889 21.4956 18.9389C21.657 14.3889 28.2249 14.3889 28.3863 18.9389ZM15.4231 25C15.5845 20.4444 22.158 20.45 22.3194 25C22.158 29.55 15.5845 29.55 15.4231 25ZM24.941 34.5C20.3824 34.3389 20.3824 27.7833 24.941 27.6222C29.5051 27.7778 29.4995 34.3389 24.941 34.5ZM27.5681 25C27.7295 20.45 34.2974 20.45 34.4588 25C34.2974 29.5555 27.7295 29.55 27.5681 25Z" fill="white"/>
</svg>
