<svg width="50" height="50" viewBox="0 0 50 50" fill="none" xmlns="http://www.w3.org/2000/svg">
<path d="M24.9984 5C21.0428 5.00032 17.1761 6.17361 13.8873 8.3715C10.5985 10.5694 8.03525 13.6932 6.5218 17.3478C5.00834 21.0025 4.6126 25.0238 5.38462 28.9034C6.15664 32.783 8.06175 36.3465 10.859 39.1433C13.6563 41.9401 17.2201 43.8446 21.0998 44.616C24.9795 45.3874 29.0008 44.991 32.6552 43.477C36.3096 41.9629 39.4329 39.3992 41.6303 36.11C43.8277 32.8209 45.0003 28.954 45 24.9983C44.9935 19.6959 42.884 14.6125 39.1343 10.8634C35.3846 7.1143 30.3009 5.00563 24.9984 5Z" fill="#8FB8E2"/>
<path d="M34.7094 16.3678C32.2161 14.3081 28.5303 14.6875 26.2538 16.964L25.0072 18.2649L23.4895 16.8014C20.942 14.2539 16.7143 14.4165 14.3836 17.235C12.3239 19.7283 12.7033 23.4141 14.9798 25.6905L23.7606 34.4713C24.4652 35.1759 25.5492 35.1759 26.1996 34.4713L35.143 25.4737C37.6905 22.9262 37.5821 18.7527 34.7094 16.3678Z" fill="white"/>
<path fill-rule="evenodd" clip-rule="evenodd" d="M28.125 29.5C28.125 32.5275 30.5722 35 33.625 35C36.6778 35 39.125 32.5275 39.125 29.5C39.125 26.4725 36.6778 24 33.625 24C30.5722 24 28.125 26.4725 28.125 29.5ZM32.9441 29.7268L35.0381 27.6327C35.4166 27.2543 36.0473 27.2543 36.451 27.6075C36.8294 27.986 36.8294 28.6167 36.451 28.9951L33.6505 31.7956C33.4487 31.9722 33.1964 32.0731 32.9441 32.0731C32.6918 32.0731 32.4395 31.9974 32.2377 31.7956L30.7239 30.2818C30.3455 29.9034 30.3455 29.2727 30.7239 28.8942C31.1023 28.5158 31.7331 28.5158 32.1115 28.8942L32.9441 29.7268Z" fill="#0055BA"/>
</svg>
