<svg width="30" height="30" viewBox="0 0 30 30" fill="none" xmlns="http://www.w3.org/2000/svg">
<path d="M12.6172 19.737L6.48835 15.1835C6.34896 15.0798 6.18393 15.0173 6.0116 15.0029C5.83927 14.9886 5.66639 15.0229 5.51217 15.1022C5.35795 15.1814 5.22843 15.3025 5.13801 15.4518C5.0476 15.6012 4.99982 15.773 5 15.9483V20.5018C5.00003 20.6508 5.03471 20.7977 5.10122 20.9305C5.16772 21.0634 5.26419 21.1785 5.3828 21.2666L11.5116 25.8164C11.6511 25.9198 11.816 25.9822 11.9882 25.9965C12.1604 26.0109 12.3332 25.9768 12.4874 25.8979C12.6415 25.8184 12.7709 25.6973 12.8614 25.548C12.9519 25.3987 12.9998 25.2269 13 25.0517V20.5018C13 20.3528 12.9653 20.2059 12.8988 20.073C12.8323 19.9401 12.7358 19.825 12.6172 19.737Z" fill="#8FB8E2"/>
<path d="M25.6172 8.73698L19.4884 4.18348C19.349 4.07979 19.1839 4.01729 19.0116 4.00294C18.8393 3.98859 18.6664 4.02294 18.5122 4.10219C18.3579 4.18144 18.2284 4.30247 18.138 4.45183C18.0476 4.60119 17.9998 4.77304 18 4.94827V9.5018C18 9.65079 18.0347 9.79768 18.1012 9.93055C18.1677 10.0634 18.2642 10.1785 18.3828 10.2666L24.5116 14.8164C24.6511 14.9198 24.816 14.9822 24.9882 14.9965C25.1604 15.0109 25.3332 14.9768 25.4874 14.8979C25.6415 14.8184 25.7709 14.6973 25.8614 14.548C25.9519 14.3987 25.9998 14.2269 26 14.0517V9.50176C26 9.35277 25.9653 9.20588 25.8988 9.07301C25.8323 8.94013 25.7358 8.82501 25.6172 8.73698Z" fill="#8FB8E2"/>
<path d="M24.9761 19.7688L18.7975 15.2383C18.6569 15.1351 18.4904 15.0729 18.3166 15.0586C18.1428 15.0443 17.9684 15.0785 17.8128 15.1573C17.6572 15.2361 17.5266 15.3566 17.4353 15.5052C17.3441 15.6538 17.2958 15.8248 17.2959 15.9993V20.5279C17.2959 20.6762 17.3309 20.8223 17.3979 20.9545C17.465 21.0867 17.5623 21.2013 17.6819 21.2889L23.8605 25.8157C24.001 25.9186 24.1673 25.9807 24.341 25.995C24.5146 26.0093 24.6888 25.9753 24.8443 25.8969C24.9997 25.8178 25.1302 25.6973 25.2214 25.5487C25.3126 25.4001 25.3609 25.2292 25.3611 25.0549V20.5298C25.3611 20.3816 25.3262 20.2356 25.2593 20.1034C25.1924 19.9712 25.0954 19.8566 24.9761 19.7688Z" fill="#0055BA"/>
<path fill-rule="evenodd" clip-rule="evenodd" d="M12.5 20.9998C17.1944 20.9998 21 17.1942 21 12.4998C21 7.80534 17.1944 3.99976 12.5 3.99976C7.80558 3.99976 4 7.80534 4 12.4998C4 17.1942 7.80558 20.9998 12.5 20.9998ZM12.5 17.9998C15.5376 17.9998 18 15.5373 18 12.4998C18 9.46219 15.5376 6.99976 12.5 6.99976C9.46243 6.99976 7 9.46219 7 12.4998C7 15.5373 9.46243 17.9998 12.5 17.9998Z" fill="#0055BA"/>
</svg>
