<svg width="50" height="50" viewBox="0 0 50 50" fill="none" xmlns="http://www.w3.org/2000/svg">
<path d="M10 20.8398V36.3942C10 36.8842 10.232 37.3453 10.6256 37.6373L19.0219 43.867C19.9071 44.5238 21.1628 43.892 21.1628 42.7896V27.6674L28.7462 22.2074V26.5606C28.7462 27.0527 28.9802 27.5155 29.3766 27.8073L37.8633 34.0531C38.7491 34.7051 40 34.0725 40 32.9726V14.2381C40 13.584 39.69 12.9687 39.1644 12.5795L30.5099 6.17065C29.9659 5.76779 29.2232 5.76516 28.6764 6.16416L10.8474 19.1725C10.3149 19.561 10 20.1806 10 20.8398Z" fill="#68AAF9"/>
</svg>
