<svg width="50" height="50" viewBox="0 0 50 50" fill="none" xmlns="http://www.w3.org/2000/svg">
<path d="M24.9984 5C21.0428 5.00032 17.1761 6.17361 13.8873 8.3715C10.5985 10.5694 8.03525 13.6932 6.5218 17.3478C5.00834 21.0025 4.6126 25.0238 5.38462 28.9034C6.15664 32.783 8.06175 36.3465 10.859 39.1433C13.6563 41.9401 17.2201 43.8446 21.0998 44.616C24.9795 45.3874 29.0008 44.991 32.6552 43.477C36.3096 41.9629 39.4329 39.3992 41.6303 36.11C43.8277 32.8209 45.0003 28.954 45 24.9983C44.9935 19.6959 42.884 14.6125 39.1343 10.8634C35.3846 7.1143 30.3009 5.00563 24.9984 5Z" fill="#8FB8E2"/>
<path d="M37.1404 24.9809L24.8502 15.9604C24.3486 15.5923 23.7549 15.3495 23.1025 15.4496L16.5788 16.4505C15.3828 16.634 14.5544 17.7627 14.7379 18.9587L15.7389 25.4824C15.8223 26.026 16.1232 26.5363 16.4994 26.8124L28.9317 36.0336C29.4333 36.4018 30.027 36.6446 30.6794 36.5445C31.3317 36.4444 31.934 36.0181 32.1935 35.5332L37.4401 28.3848C37.917 27.8665 38.051 27.2895 37.9509 26.6371C38.0516 25.8427 37.642 25.3491 37.1404 24.9809Z" fill="white"/>
<path d="M21.279 18.7229C20.7055 18.7229 20.145 18.893 19.6682 19.2117C19.1915 19.5303 18.8199 19.9831 18.6005 20.5129C18.3811 21.0427 18.3237 21.6257 18.4356 22.1881C18.5476 22.7505 18.8237 23.2671 19.2292 23.6725C19.6348 24.078 20.1514 24.354 20.7138 24.4659C21.2762 24.5777 21.8592 24.5202 22.3889 24.3007C22.9187 24.0813 23.3715 23.7096 23.69 23.2328C24.0086 22.756 24.1786 22.1954 24.1785 21.622C24.1776 20.8533 23.8718 20.1164 23.3282 19.5729C22.7846 19.0294 22.0476 18.7237 21.279 18.7229Z" fill="#8FB8E2"/>
<path fill-rule="evenodd" clip-rule="evenodd" d="M18.2208 13.5043C20.4741 15.5162 21.6891 18.2808 21.5531 20.4768C21.5019 21.3036 20.7902 21.9324 19.9633 21.8812C19.1365 21.83 18.5077 21.1182 18.5589 20.2914C18.6259 19.2086 17.9509 17.2851 16.2227 15.7421C14.5922 14.2862 12.0546 13.2142 8.48926 13.7225C9.46448 12.2383 10.7983 10.9075 11.0895 10.6172C14.0946 10.7952 16.471 11.9419 18.2208 13.5043Z" fill="#0055BA"/>
</svg>
