<svg width="30" height="30" viewBox="0 0 30 30" fill="none" xmlns="http://www.w3.org/2000/svg">
<path d="M19.5935 19.5924C20.1007 20.1035 20.9379 20.1099 21.3556 19.5234C23.5245 16.4782 23.2436 12.2185 20.513 9.48788C17.4692 6.44414 12.5188 6.44414 9.48202 9.48788C6.75109 12.2188 6.47043 16.4791 8.64004 19.5243C9.05796 20.1109 9.89487 20.106 10.4042 19.5967C10.9134 19.0874 10.8951 18.267 10.5286 17.647C9.35072 15.6542 9.6166 13.0338 11.3263 11.3183C13.3508 9.29374 16.6511 9.29374 18.6826 11.3183C20.3954 13.0312 20.6591 15.6572 19.4736 17.6555C19.1086 18.2707 19.0896 19.0847 19.5935 19.5924Z" fill="#8FB8E2"/>
<path d="M16.9419 16.7124C17.344 16.2548 17.6005 15.6586 17.6005 14.9999C17.6005 13.5647 16.4357 12.3999 15.0005 12.3999C13.5653 12.3999 12.4005 13.5647 12.4005 14.9999C12.4005 15.6586 12.6571 16.2548 13.0592 16.7124L8.61172 25.1816C8.53642 25.325 8.49707 25.4845 8.49707 25.6465V26.9999C8.49707 27.5522 8.94479 27.9999 9.49707 27.9999H20.4971C21.0494 27.9999 21.4971 27.5522 21.4971 26.9999V25.6462C21.4971 25.4844 21.4578 25.3251 21.3827 25.1818L16.9419 16.7124Z" fill="#0055BA"/>
<path d="M24.1943 5.8064C21.7399 3.352 18.4743 2 15.0007 2C11.5271 2 8.26146 3.352 5.80706 5.8064C1.04834 10.5651 0.757698 18.1294 4.93514 23.2308C5.38973 23.7859 6.21836 23.7823 6.72573 23.2749C7.23309 22.7676 7.225 21.9489 6.78442 21.3826C3.61215 17.3049 3.8988 11.3899 7.64439 7.65067C9.60653 5.68853 12.2204 4.60693 15.0007 4.60693C17.7809 4.60693 20.3879 5.68853 22.3569 7.65067C26.1021 11.3959 26.3891 17.3105 23.2179 21.3828C22.777 21.949 22.7685 22.7679 23.276 23.2753C23.7831 23.7825 24.6114 23.7861 25.0658 23.2312C29.2436 18.1298 28.9531 10.5653 24.1943 5.8064Z" fill="#8FB8E2"/>
</svg>
