<svg width="30" height="30" viewBox="0 0 30 30" fill="none" xmlns="http://www.w3.org/2000/svg">
<path d="M4.33216 26.6684C4.43722 26.7735 4.56197 26.8569 4.69929 26.9138C4.83661 26.9707 4.98379 27 5.13243 27H19.9511C20.0998 27.0001 20.247 26.9709 20.3844 26.914C20.5217 26.8572 20.6465 26.7738 20.7517 26.6687C20.8568 26.5635 20.9402 26.4387 20.997 26.3014C21.0539 26.164 21.0831 26.0168 21.083 25.8681V13.1894C21.0827 13.0117 21.0407 12.8366 20.9605 12.678C20.8803 12.5194 20.764 12.3819 20.621 12.2764L15.6888 8.65959C15.4942 8.51769 15.2597 8.44107 15.0189 8.44072H5.14126C4.99259 8.44064 4.84537 8.46986 4.708 8.52671C4.57063 8.58357 4.44582 8.66694 4.3407 8.77206C4.23557 8.87719 4.1522 9.002 4.09535 9.13937C4.0385 9.27673 4.00927 9.42396 4.00936 9.57263L4.0005 25.8681C4.00049 26.0167 4.02977 26.1639 4.08668 26.3012C4.14358 26.4386 4.227 26.5633 4.33216 26.6684Z" fill="#8FB8E2"/>
<path d="M9.27063 22.1408C9.37569 22.2459 9.50044 22.3293 9.63776 22.3863C9.77508 22.4432 9.92227 22.4724 10.0709 22.4724L24.8896 22.4679C25.0382 22.468 25.1855 22.4388 25.3228 22.3819C25.4602 22.325 25.585 22.2417 25.6901 22.1366C25.7953 22.0314 25.8786 21.9066 25.9355 21.7692C25.9924 21.6319 26.0216 21.4846 26.0215 21.336V7.75539C26.0212 7.57768 25.9792 7.40252 25.899 7.24396C25.8187 7.08539 25.7024 6.94785 25.5594 6.84235L20.6206 3.21889C20.4261 3.077 20.1916 3.00038 19.9508 3.00003H10.0709C9.92224 2.99995 9.77502 3.02917 9.63765 3.08602C9.50028 3.14287 9.37547 3.22625 9.27035 3.33137C9.16522 3.43649 9.08185 3.56131 9.02499 3.69868C8.96814 3.83604 8.93892 3.98327 8.939 4.13194V21.3404C8.93898 21.4891 8.96825 21.6363 9.02515 21.7736C9.08206 21.911 9.16547 22.0357 9.27063 22.1408Z" fill="#0055BA"/>
<path d="M17.5 9C15.567 9 14 10.567 14 12.5C14 14.433 15.567 16 17.5 16C19.433 16 21 14.433 21 12.5C21 10.567 19.433 9 17.5 9ZM16.7234 10.8375C16.7869 10.836 16.8536 10.8526 16.9176 10.8895L18.9738 12.1555C19.0859 12.2246 19.1625 12.3515 19.1625 12.5C19.1625 12.6485 19.0859 12.7754 18.9738 12.8445L16.9176 14.1105C16.6617 14.2579 16.369 14.0701 16.3625 13.7605V11.2367C16.3674 11.0045 16.5331 10.8421 16.7234 10.8375Z" fill="#F2F6FC"/>
</svg>
